<svg width="149" height="151" viewBox="0 0 149 151" fill="none" xmlns="http://www.w3.org/2000/svg">
<g clip-path="url(#clip0_131_84)">
<path d="M41.0331 67.7454C36.7226 68.1351 37.5575 71.0966 37.5575 71.0966C34.0819 67.083 36.742 63.946 36.742 63.946C33.2664 64.9202 32.5869 66.7712 32.4315 68.4273C31.6743 75.9871 48.6249 81.54 56.5275 83.352C47.2658 79.085 37.8876 73.7075 41.0331 67.7649V67.7454Z" fill="#4B4B4B"/>
<path d="M106.603 67.7454C110.894 68.1351 110.078 71.0966 110.078 71.0966C113.554 67.083 110.894 63.946 110.894 63.946C114.369 64.9202 115.049 66.7712 115.204 68.4273C115.961 75.9871 99.0108 81.54 91.0889 83.352C100.351 79.085 109.729 73.7075 106.583 67.7649L106.603 67.7454Z" fill="#4B4B4B"/>
<path d="M52.2364 89.8011L47.0911 89.8596C47.0911 89.8596 50.2948 97.6337 55.4208 94.4968C55.4208 94.4968 53.5374 97.4973 57.8673 99.2703C57.8673 99.2703 57.4789 102.524 61.6341 101.375C65.6145 100.283 71.6724 102.232 74.3713 105.681C74.3713 105.681 66.0416 89.5673 52.217 89.8206L52.2364 89.8011ZM54.5664 92.6263C54.5664 92.6263 53.7509 92.5484 53.4014 91.9833C53.4014 91.9833 58.2362 91.3209 67.6532 98.9391C67.6532 98.9391 61.4787 94.2824 54.5664 92.6263Z" fill="#4B4B4B"/>
<path d="M96.409 89.8011L101.554 89.8596C101.554 89.8596 98.3507 97.6337 93.2247 94.4968C93.2247 94.4968 95.1081 97.4973 90.7782 99.2703C90.7782 99.2703 91.1666 102.524 87.0114 101.375C83.031 100.283 76.9731 102.232 74.2742 105.681C74.2742 105.681 82.6039 89.5673 96.4284 89.8206L96.409 89.8011ZM94.0791 92.6263C94.0791 92.6263 94.8945 92.5484 95.244 91.9833C95.244 91.9833 90.4093 91.3209 80.9923 98.9391C80.9923 98.9391 87.1668 94.2824 94.0791 92.6263Z" fill="#4B4B4B"/>
<path d="M37.5575 84.6964C39.8098 85.0471 47.1687 82.3778 58.6633 86.3525C54.78 83.917 48.3725 81.8127 41.4214 82.5336C39.1108 82.7675 34.7809 82.67 32.3733 81.462C32.3733 81.462 32.684 87.8527 38.4118 88.6906L42.8388 87.4046C45.3241 86.5084 49.2074 86.372 52.1976 86.8591C56.9546 87.6189 62.1583 89.4699 63.731 90.4636C53.1684 82.748 43.2271 86.0797 37.5575 84.7158V84.6964Z" fill="#4B4B4B"/>
<path d="M110.156 84.0534C107.904 84.4041 100.545 81.7348 89.0501 85.7095C92.9335 83.2741 99.3409 81.1698 106.292 81.8907C108.603 82.1245 112.932 82.0271 115.34 80.8191C115.34 80.8191 115.029 87.2098 109.302 88.0476L104.875 86.7617C102.389 85.8654 98.506 85.729 95.5158 86.2161C90.7588 86.976 85.5552 88.827 83.9824 89.8206C94.545 82.105 104.486 85.4368 110.156 84.0729V84.0534Z" fill="#4B4B4B"/>
<path d="M65.1484 25.3096C67.6143 22.5818 71.2258 15.8014 70.9928 9.54711C70.9928 9.54711 73.6529 16.7561 66.5852 24.2964C68.3327 23.0689 70.3715 22.0168 72.216 19.3865C77.5944 11.7098 73.2063 1.96789 70.9151 0.331242C69.4006 -0.759855 69.09 1.24698 69.09 1.24698C69.556 1.09111 72.1966 2.39653 69.09 4.83202C65.9833 7.24802 66.1969 9.25485 66.1969 9.25485C63.4786 11.2227 67.3425 14.1258 67.3425 14.1258C65.595 14.3596 65.2067 15.3923 65.2067 15.3923C68.158 18.5097 64.1193 24.2574 64.1193 24.2574C63.9252 25.1927 62.9543 27.0241 62.9543 27.0241C63.7116 26.3812 64.4494 25.8356 65.1484 25.329V25.3096Z" fill="#4B4B4B"/>
<path d="M82.5455 25.3096C80.0796 22.5818 76.4681 15.8014 76.7011 9.54711C76.7011 9.54711 74.0411 16.7561 81.1087 24.2964C79.3612 23.0689 77.3225 22.0168 75.4779 19.3865C70.0995 11.7098 74.4876 1.96789 76.7788 0.331242C78.2933 -0.759855 78.604 1.24698 78.604 1.24698C78.138 1.09111 75.4973 2.39653 78.604 4.83202C81.7106 7.24802 81.497 9.25485 81.497 9.25485C84.2153 11.2227 80.3514 14.1258 80.3514 14.1258C82.0989 14.3596 82.4873 15.3923 82.4873 15.3923C79.5359 18.5097 83.5746 24.2574 83.5746 24.2574C83.7688 25.1927 84.7396 27.0241 84.7396 27.0241C83.9823 26.3812 83.2445 25.8356 82.5455 25.329V25.3096Z" fill="#4B4B4B"/>
<path d="M32.9559 34.8177C35.1306 32.9668 35.5966 29.7714 34.0238 27.3944C32.8977 25.6993 31.5967 24.4718 31.5967 24.4718C29.5386 27.258 29.1503 31.0184 29.1503 31.0184C27.2669 28.505 25.1699 29.5766 25.1699 29.5766C27.4222 31.4275 27.9853 35.2269 24.0825 42.7866C21.539 47.7161 22.0632 50.9504 22.0632 50.9504C22.801 46.7224 25.7524 42.4749 27.7523 40.0004C31.9074 34.3501 31.8103 29.7909 31.8103 29.7909C32.3734 31.8172 31.655 34.5255 30.8395 36.7077C31.5579 36.0257 32.2763 35.4023 32.9559 34.8372V34.8177Z" fill="#4B4B4B"/>
<path d="M114.758 34.8177C112.564 32.9668 112.117 29.7714 113.69 27.3944C114.797 25.6993 116.136 24.4718 116.136 24.4718C118.194 27.258 118.583 31.0184 118.583 31.0184C120.466 28.505 122.563 29.5766 122.563 29.5766C120.311 31.4275 119.748 35.2269 123.631 42.7866C126.175 47.7161 125.65 50.9504 125.65 50.9504C124.913 46.7224 121.961 42.4749 119.961 40.0004C115.806 34.3501 115.903 29.7909 115.903 29.7909C115.34 31.8172 116.059 34.5255 116.874 36.7077C116.156 36.0257 115.437 35.4023 114.758 34.8372V34.8177Z" fill="#4B4B4B"/>
<path d="M29.752 61.7833C36.5672 59.6791 39.5962 64.9982 39.5962 64.9982C41.6738 63.4784 41.4602 60.5948 40.6641 60.1272C43.5766 60.6338 45.693 56.737 45.693 56.737C44.3921 55.8213 43.4795 55.4706 42.1203 55.3342C45.6541 54.8081 47.091 52.3337 47.6346 49.8787C48.256 47.073 48.0618 45.6117 47.7123 44.2479C47.1492 42.1046 45.926 41.8124 45.227 42.3384C44.7416 42.7086 44.9552 43.7023 45.6736 44.092C46.4696 44.5206 46.5861 45.2221 46.6638 45.943C46.9356 48.5733 44.3727 51.2231 42.2951 51.6907C42.2951 51.6907 45.5959 49.3916 45.2658 46.1378C44.7027 46.9756 43.3824 47.4822 41.5961 47.3263C36.6643 46.9172 34.3731 49.489 34.3731 49.489C36.1595 47.716 35.9459 44.6375 35.9459 44.6375C24.8008 45.0077 19.6748 48.9045 19.0146 64.1994C20.0826 58.8608 22.063 54.1652 27.2473 49.5864C23.5387 53.8144 18.5098 62.5043 20.8398 69.4795C20.5097 60.4 26.8978 51.8076 33.48 50.093C33.48 50.093 26.7424 53.0351 23.7135 61.3547C19.9661 71.6422 24.3154 77.3315 34.2761 81.8128L34.8974 81.3062C21.1311 74.8765 23.4999 63.7317 29.7714 61.8028L29.752 61.7833Z" fill="#4B4B4B"/>
<path d="M117.942 61.7833C111.127 59.6791 108.098 64.9982 108.098 64.9982C106.001 63.4784 106.234 60.5948 107.03 60.1272C104.118 60.6338 102.001 56.737 102.001 56.737C103.302 55.8213 104.215 55.4706 105.574 55.3342C102.059 54.8081 100.603 52.3337 100.059 49.8787C99.4381 47.073 99.6323 45.6117 99.9818 44.2479C100.545 42.1046 101.788 41.8124 102.467 42.3384C102.953 42.7086 102.739 43.7023 102.001 44.092C101.205 44.5206 101.089 45.2221 101.011 45.943C100.739 48.5733 103.302 51.2231 105.399 51.6907C105.399 51.6907 102.098 49.3916 102.428 46.1378C102.991 46.9756 104.312 47.4822 106.098 47.3263C111.03 46.9172 113.321 49.489 113.321 49.489C111.535 47.716 111.748 44.6375 111.748 44.6375C122.893 45.0077 128 48.9045 128.679 64.1994C127.612 58.8608 125.631 54.1652 120.447 49.5864C124.155 53.8144 129.184 62.5043 126.854 69.4795C127.184 60.4 120.796 51.8076 114.214 50.093C114.214 50.093 120.952 53.0351 123.981 61.3547C127.728 71.6422 123.379 77.3315 113.418 81.8128L112.797 81.3062C126.563 74.8765 124.194 63.7317 117.923 61.8028L117.942 61.7833Z" fill="#4B4B4B"/>
<path d="M53.7122 2.35761C53.7122 2.35761 46.2368 -0.935165 43.2078 3.91632C42.8195 4.5398 42.9942 5.86471 44.6641 5.68935C44.4116 4.26703 48.6445 0.818383 54.7218 5.68935C54.7218 5.68935 51.5569 3.40974 48.2173 4.46187C50.5861 5.78677 50.5861 10.911 53.7316 13.1322C57.1683 15.5677 59.5954 22.8157 53.8869 27.3165C53.8869 27.3165 59.4206 18.1395 49.4988 14.2623C49.4988 14.2623 51.7511 15.5092 49.4405 18.5682C49.4405 18.5682 45.2271 21.7635 45.732 24.4523C45.732 24.4523 44.567 22.7183 42.0817 22.3091C42.0817 22.3091 44.9359 26.3423 41.5574 29.07C38.6255 31.447 26.7814 38.2859 24.0825 50.4048C28.3347 39.2795 37.6353 36.7077 37.6353 36.7077C38.3925 36.3959 39.1886 36.1426 40.0235 35.9673C41.4797 35.6555 42.7224 35.3828 43.8291 35.1684C52.3336 33.259 57.9838 28.5634 60.5274 21.861C62.9156 15.5287 64.0612 6.93632 53.6928 2.33813L53.7122 2.35761ZM46.3921 30.3754C42.3535 32.4212 36.8198 34.4865 34.1209 36.7077C42.3535 30.0637 49.324 29.3038 51.5764 23.2248C51.5764 23.2248 51.3045 27.8815 46.3921 30.3754ZM58.5469 23.1859C58.5469 23.1859 60.838 17.4771 58.0421 9.68354C58.0421 9.68354 62.5079 15.4703 58.5469 23.1859Z" fill="#4B4B4B"/>
<path d="M94.0014 2.35761C94.0014 2.35761 101.477 -0.935165 104.506 3.91632C104.894 4.5398 104.719 5.86471 103.05 5.68935C103.302 4.26703 99.0691 0.818383 92.9917 5.68935C92.9917 5.68935 96.1566 3.40974 99.4963 4.46187C97.1275 5.78677 97.1275 10.911 93.982 13.1322C90.5453 15.5677 88.1182 22.8157 93.8461 27.3165C93.8461 27.3165 88.3124 18.1395 98.2148 14.2623C98.2148 14.2623 95.9625 15.5092 98.2731 18.5682C98.2731 18.5682 102.486 21.7635 101.982 24.4523C101.982 24.4523 103.147 22.7183 105.632 22.3091C105.632 22.3091 102.778 26.3423 106.137 29.07C109.069 31.447 120.913 38.2859 123.612 50.4048C119.359 39.2795 110.059 36.7077 110.059 36.7077C109.302 36.3959 108.506 36.1426 107.671 35.9673C106.214 35.6555 104.972 35.3828 103.865 35.1684C95.3606 33.259 89.7104 28.5634 87.1668 21.861C84.7785 15.5287 83.633 6.93632 94.0014 2.33813V2.35761ZM101.321 30.3754C105.36 32.4212 110.894 34.4865 113.593 36.7077C105.36 30.0637 98.3896 29.3038 96.1372 23.2248C96.1372 23.2248 96.4091 27.8815 101.321 30.3754ZM89.1667 23.1859C89.1667 23.1859 86.8755 17.4771 89.6715 9.68354C89.6715 9.68354 85.2057 15.4703 89.1667 23.1859Z" fill="#4B4B4B"/>
<path d="M73.847 90.3078C71.7111 87.8529 68.1968 84.9303 62.1388 81.3258C53.3625 76.0846 50.916 71.6813 52.4694 63.8488C54.7023 52.5091 54.4887 44.3844 54.0421 39.9615C62.0223 37.8768 68.5657 34.4281 73.847 29.4792C79.1283 34.4281 85.6716 37.8768 93.6518 39.9615C93.2053 44.3844 92.9917 52.5091 95.2246 63.8488C96.7779 71.6813 94.3314 76.0846 85.5551 81.3258C79.4972 84.9303 75.9828 87.8529 73.847 90.3078ZM73.847 24.0432C68.6433 29.9663 61.2262 34.7399 49.7899 37.039C49.7899 37.039 52.081 46.2548 48.7608 63.0889C46.7221 73.4543 51.0908 79.1241 60.1971 84.5601C73.0703 92.2368 73.0703 96.153 73.847 98.0819C74.6236 96.153 74.6042 92.2368 87.4968 84.5601C96.6032 79.1241 100.991 73.4348 98.9526 63.0889C95.6323 46.2548 97.9235 37.039 97.9235 37.039C86.4871 34.7399 79.07 29.9663 73.8664 24.0432H73.847Z" fill="#4B4B4B"/>
<path d="M77.7885 71.7591V72.5385C76.74 72.4605 75.3615 72.4216 73.6722 72.4216C71.4976 72.4216 69.8472 72.4605 68.7598 72.5385V71.7591C69.7307 71.7201 70.4297 71.6032 70.8568 71.4084C71.284 71.2136 71.4782 70.8434 71.4782 70.3368C71.4782 69.8887 71.3228 69.3041 71.0316 68.5248L68.6628 62.212H59.4205L57.8477 66.2841C57.3429 67.5896 57.0711 68.6417 57.0711 69.4405C57.0711 70.2394 57.3429 70.8434 57.8866 71.1941C58.4302 71.5448 59.2652 71.7396 60.4107 71.7591V72.5385C58.9545 72.4605 57.4788 72.4216 55.9838 72.4216C54.8382 72.4216 53.8868 72.4605 53.1101 72.5385V71.7591C54.3916 71.4669 55.3818 70.3563 56.1197 68.4079L65.1484 45.0857H65.7697L75.1091 69.2847C75.7304 70.8823 76.6235 71.7007 77.7691 71.7396L77.7885 71.7591ZM64.0999 49.9567L59.6923 61.4327H68.3909L64.0999 49.9567Z" fill="#4B4B4B"/>
<path d="M85.8463 45.5144C86.9336 45.943 87.9821 46.5665 89.0112 47.3458C89.283 47.5796 89.5354 47.6771 89.7684 47.6771C90.2927 47.6771 90.6228 46.9172 90.7393 45.378H91.613C91.5159 47.0536 91.4577 49.9957 91.4577 54.2237H90.5839C90.3898 53.0741 90.2344 52.1778 90.0791 51.5349C89.9238 50.8919 89.7296 50.3464 89.516 49.9177C89.3025 49.4696 89.0112 49.0215 88.6617 48.5344C87.885 47.5407 86.9142 46.7808 85.7298 46.2742C84.5454 45.7677 83.2639 45.5144 81.8853 45.5144C80.2155 45.5144 78.7787 46.0599 77.5166 47.1705C76.274 48.2811 75.3031 49.8398 74.6235 51.8856C73.944 53.9314 73.5945 56.3279 73.5945 59.0556C73.5945 61.7834 73.9634 64.2578 74.7206 66.2452C75.4779 68.252 76.5069 69.7718 77.8079 70.8044C79.1088 71.8371 80.6038 72.3631 82.2542 72.3631C83.5357 72.3631 84.7784 72.1098 85.9822 71.6227C87.186 71.1356 88.1375 70.3953 88.817 69.4211C89.3413 68.7197 89.7102 67.9598 89.9432 67.1415C90.1762 66.3231 90.3898 65.0567 90.6034 63.3421H91.4771C91.4771 67.7649 91.5354 70.8434 91.6324 72.5775H90.7587C90.7004 71.7786 90.5839 71.1941 90.448 70.8434C90.3121 70.4927 90.0985 70.3173 89.8267 70.3173C89.6325 70.3173 89.3607 70.4147 89.0306 70.6291C88.2734 71.1746 87.5744 71.6033 86.9336 71.954C86.2929 72.3047 85.5551 72.5775 84.7396 72.7918C83.9241 73.0061 82.9921 73.123 81.9436 73.123C79.5165 73.123 77.3807 72.5775 75.5555 71.4669C73.7304 70.3563 72.313 68.7586 71.3033 66.6738C70.2937 64.5696 69.7888 62.0756 69.7888 59.192C69.7888 56.3084 70.3131 53.8535 71.3421 51.6713C72.3712 49.4891 73.8275 47.794 75.672 46.6055C77.5166 45.3975 79.6136 44.7935 81.9824 44.7935C83.4969 44.7935 84.7978 45.0078 85.8851 45.4559L85.8463 45.5144Z" fill="#4B4B4B"/>
<path d="M9.13173 125.242C9.28707 125.379 9.4424 125.457 9.59773 125.457V125.729C9.05407 125.71 8.35507 125.69 7.50075 125.69C6.54934 125.69 5.85034 125.69 5.38434 125.729V125.457C5.73384 125.457 5.98626 125.398 6.12217 125.32C6.2775 125.242 6.35517 125.125 6.35517 124.95C6.35517 124.794 6.29692 124.56 6.19984 124.288L5.36493 122.008H2.35536L1.98645 122.963C1.73403 123.606 1.61753 124.132 1.61753 124.502C1.61753 124.853 1.71462 125.086 1.9282 125.223C2.14178 125.359 2.43303 125.437 2.86019 125.437V125.71C2.23886 125.69 1.65637 125.671 1.13212 125.671C0.704955 125.671 0.355457 125.671 0.064209 125.71V125.437C0.530206 125.359 0.937954 124.872 1.26803 123.976L4.41352 115.851C4.56885 115.851 4.72418 115.871 4.89893 115.871C5.07368 115.871 5.22901 115.871 5.38434 115.851L8.7434 124.541C8.8599 124.853 8.99582 125.067 9.15115 125.203L9.13173 125.242ZM3.88927 118.014L2.45244 121.755H5.24843L3.86985 118.014H3.88927Z" fill="#4B4B4B"/>
<path d="M13.3062 116.299C13.1509 116.358 13.0538 116.475 12.9955 116.63C12.9373 116.786 12.9179 117.04 12.9179 117.39V124.443C12.9179 124.736 12.9373 124.95 12.9761 125.086C13.0149 125.223 13.0926 125.32 13.2285 125.359C13.345 125.398 13.5392 125.418 13.7916 125.418H14.4712C14.8983 125.418 15.2673 125.281 15.6168 125.028C15.9663 124.775 16.2575 124.404 16.4905 123.937C16.7235 123.469 16.8982 122.924 16.9759 122.32H17.2866C17.2672 122.631 17.2477 123.041 17.2477 123.547C17.2477 124.346 17.2866 125.067 17.3448 125.749C16.7235 125.729 15.6556 125.71 14.1799 125.71C12.18 125.71 10.685 125.71 9.67529 125.749V125.476C9.98596 125.476 10.219 125.418 10.3549 125.359C10.4908 125.301 10.5879 125.184 10.6461 125.028C10.7044 124.872 10.7238 124.619 10.7238 124.268V117.371C10.7238 117.02 10.7044 116.767 10.6461 116.611C10.5879 116.455 10.4908 116.338 10.3549 116.28C10.219 116.221 9.98596 116.182 9.69471 116.163V115.89C10.1607 115.909 10.8985 115.929 11.8694 115.929C12.8402 115.929 13.5392 115.929 14.044 115.89V116.163C13.7139 116.163 13.4615 116.221 13.3256 116.28L13.3062 116.299Z" fill="#4B4B4B"/>
<path d="M26.4317 117.137C27.3249 117.955 27.7715 119.144 27.7715 120.722C27.7715 121.735 27.5579 122.612 27.1113 123.372C26.6842 124.132 26.0434 124.716 25.2085 125.125C24.3736 125.535 23.4028 125.749 22.2572 125.749C22.0242 125.749 21.7524 125.749 21.4223 125.729C20.6068 125.729 20.2185 125.71 20.2379 125.71C19.2865 125.71 18.568 125.71 18.1021 125.749V125.476C18.4127 125.476 18.6457 125.418 18.7816 125.359C18.9175 125.301 19.0146 125.184 19.0729 125.028C19.1311 124.872 19.1505 124.619 19.1505 124.268V117.371C19.1505 117.02 19.1311 116.767 19.0729 116.611C19.0146 116.455 18.9175 116.338 18.7816 116.28C18.6457 116.221 18.4127 116.182 18.1215 116.163V115.89C18.704 115.929 19.267 115.929 19.7913 115.929H20.2185L20.8204 115.91C21.5582 115.91 22.1019 115.89 22.3931 115.89C24.1988 115.89 25.5386 116.299 26.4317 117.118V117.137ZM21.7329 116.26C21.597 116.319 21.4805 116.436 21.4417 116.611C21.3834 116.786 21.364 117.02 21.364 117.351V124.288C21.364 124.619 21.3834 124.872 21.4417 125.028C21.4999 125.203 21.597 125.301 21.7329 125.379C21.8883 125.437 22.1019 125.476 22.3931 125.476C23.1504 125.476 23.7523 125.301 24.2183 124.931C24.6648 124.56 24.9949 124.054 25.1891 123.352C25.3833 122.651 25.4803 121.794 25.4803 120.742C25.4803 119.689 25.3833 118.813 25.1697 118.15C24.9561 117.468 24.626 116.981 24.1794 116.63C23.7328 116.299 23.1309 116.124 22.3931 116.124C22.1019 116.124 21.8883 116.163 21.7524 116.221L21.7329 116.26Z" fill="#4B4B4B"/>
<path d="M37.3243 125.749C37.0331 125.866 36.6836 125.944 36.2952 125.944C35.771 125.944 35.3438 125.827 35.0331 125.613C34.7225 125.379 34.5089 124.989 34.4118 124.443L34.1594 123.06C34.0817 122.612 34.0041 122.242 33.907 121.969C33.8099 121.696 33.6934 121.482 33.5187 121.326C33.3439 121.17 33.1303 121.092 32.8585 121.092H31.9653V124.288C31.9653 124.638 31.9848 124.892 32.043 125.047C32.1012 125.203 32.1983 125.32 32.3342 125.379C32.4702 125.437 32.7032 125.476 33.0138 125.496V125.768C32.509 125.749 31.81 125.729 30.9168 125.729C29.9266 125.729 29.2082 125.729 28.7422 125.768V125.496C29.0529 125.496 29.2859 125.437 29.4218 125.379C29.5577 125.32 29.6548 125.203 29.713 125.047C29.7713 124.892 29.7907 124.638 29.7907 124.288V117.39C29.7907 117.04 29.7713 116.786 29.713 116.63C29.6548 116.475 29.5577 116.358 29.4218 116.299C29.2859 116.241 29.0529 116.202 28.7616 116.182V115.91C29.2276 115.929 29.9266 115.949 30.8586 115.949C31.0333 115.949 31.5576 115.949 32.4119 115.929H33.0332C34.2953 115.929 35.2661 116.124 35.9069 116.553C36.5476 116.962 36.8777 117.566 36.8777 118.345C36.8777 118.754 36.7806 119.163 36.5865 119.534C36.3923 119.904 36.0622 120.235 35.5962 120.508C35.1302 120.781 34.5283 120.956 33.7711 121.053C34.3342 121.112 34.7807 121.19 35.1496 121.346C35.5186 121.482 35.7904 121.677 36.004 121.93C36.2176 122.183 36.3535 122.495 36.4311 122.885L36.7418 124.307C36.8195 124.677 36.8971 124.95 36.9942 125.086C37.0913 125.223 37.2272 125.301 37.402 125.301C37.5185 125.301 37.6155 125.281 37.6932 125.223C37.7709 125.164 37.868 125.086 37.965 124.97L38.1592 125.145C37.9068 125.437 37.6544 125.632 37.3631 125.768L37.3243 125.749ZM32.2954 116.28C32.1789 116.338 32.1012 116.455 32.043 116.63C31.9848 116.806 31.9848 117.04 31.9848 117.371V120.781H32.5867C33.1109 120.781 33.4992 120.683 33.8099 120.488C34.1012 120.293 34.2953 120.021 34.4118 119.689C34.5283 119.358 34.5866 118.949 34.5866 118.481C34.5866 117.722 34.4507 117.157 34.1788 116.767C33.907 116.377 33.4798 116.182 32.8585 116.182C32.6061 116.182 32.4313 116.221 32.3148 116.28H32.2954Z" fill="#4B4B4B"/>
<path d="M41.9068 116.299C41.7708 116.358 41.6738 116.475 41.6155 116.63C41.5573 116.786 41.5378 117.04 41.5378 117.39V124.288C41.5378 124.638 41.5573 124.892 41.6155 125.047C41.6738 125.203 41.7708 125.32 41.9068 125.379C42.0427 125.437 42.2757 125.476 42.5863 125.496V125.768C42.0815 125.749 41.3825 125.729 40.4894 125.729C39.4991 125.729 38.7807 125.729 38.3147 125.768V125.496C38.6254 125.496 38.8584 125.437 38.9943 125.379C39.1302 125.32 39.2273 125.203 39.2855 125.047C39.3438 124.892 39.3632 124.638 39.3632 124.288V117.39C39.3632 117.04 39.3438 116.786 39.2855 116.63C39.2273 116.475 39.1302 116.358 38.9943 116.299C38.8584 116.241 38.6254 116.202 38.3341 116.182V115.91C38.8001 115.929 39.5379 115.949 40.5088 115.949C41.4019 115.949 42.1009 115.949 42.6058 115.91V116.182C42.2951 116.182 42.0621 116.241 41.9262 116.299H41.9068Z" fill="#4B4B4B"/>
<path d="M50.0035 115.948C50.3919 116.104 50.7802 116.319 51.1685 116.611C51.2656 116.708 51.3627 116.747 51.4404 116.747C51.5374 116.747 51.6151 116.689 51.6734 116.552C51.7316 116.416 51.7704 116.202 51.7899 115.909H52.1005C52.0617 116.533 52.0423 117.663 52.0423 119.28H51.7316C51.6539 118.657 51.5569 118.15 51.4015 117.76C51.2656 117.371 51.0132 117.04 50.6831 116.767C50.4501 116.552 50.1783 116.397 49.8676 116.26C49.5375 116.143 49.2075 116.085 48.8774 116.085C48.2366 116.085 47.693 116.299 47.2658 116.747C46.8386 117.195 46.528 117.76 46.3144 118.501C46.1008 119.222 46.0037 120.021 46.0037 120.858C46.0037 124.073 46.8969 125.671 48.6638 125.671C49.0521 125.671 49.3822 125.573 49.654 125.398C49.7705 125.301 49.8676 125.203 49.9065 125.106C49.9647 124.989 49.9841 124.853 49.9841 124.677V123.313C49.9841 122.885 49.9453 122.553 49.8676 122.359C49.79 122.164 49.6735 122.027 49.4793 121.949C49.2851 121.872 48.9939 121.833 48.5861 121.813V121.54C49.1104 121.579 49.9065 121.579 50.9549 121.579C51.8093 121.579 52.4306 121.579 52.8189 121.54V121.813C52.6248 121.813 52.4889 121.872 52.4112 121.93C52.3335 121.988 52.2753 122.086 52.2364 122.242C52.1976 122.398 52.1976 122.651 52.1976 123.002V125.749H51.9258C51.9258 125.554 51.8675 125.379 51.8093 125.203C51.7316 125.028 51.6345 124.95 51.518 124.95C51.3627 124.95 51.1297 125.047 50.7802 125.242C49.9647 125.71 49.2075 125.944 48.5085 125.944C47.4406 125.944 46.5474 125.749 45.8096 125.359C45.0717 124.969 44.5087 124.385 44.1397 123.645C43.7708 122.904 43.5767 122.008 43.5767 120.956C43.5767 119.904 43.7902 119.007 44.2174 118.209C44.6446 117.41 45.2271 116.806 46.0037 116.377C46.761 115.948 47.6347 115.734 48.5861 115.734C49.1492 115.734 49.6346 115.812 50.0424 115.968L50.0035 115.948Z" fill="#4B4B4B"/>
<path d="M61.7311 116.416C61.5952 116.533 61.4787 116.708 61.4398 116.942C61.3816 117.176 61.3622 117.527 61.3622 118.014V121.696C61.3622 122.339 61.3233 122.904 61.2263 123.391C61.1486 123.878 60.9933 124.288 60.7797 124.638C60.5273 125.047 60.1778 125.359 59.7118 125.593C59.2458 125.827 58.6633 125.924 57.9837 125.924C56.9158 125.924 56.0809 125.69 55.4984 125.223C55.2071 124.989 54.9741 124.716 54.8188 124.404C54.6635 124.093 54.547 123.723 54.4887 123.313C54.4305 122.885 54.411 122.359 54.411 121.735V117.371C54.411 117.02 54.3916 116.767 54.3334 116.611C54.2751 116.455 54.178 116.338 54.0421 116.28C53.9062 116.221 53.6732 116.182 53.3625 116.163V115.89C53.8285 115.909 54.5664 115.929 55.5372 115.929C56.508 115.929 57.207 115.929 57.7313 115.89V116.163C57.4012 116.163 57.1488 116.221 57.0129 116.28C56.8575 116.338 56.7604 116.455 56.7022 116.611C56.6439 116.767 56.6245 117.02 56.6245 117.371V122.612C56.6245 123.255 56.6828 123.781 56.7993 124.19C56.9158 124.599 57.1099 124.911 57.4012 125.125C57.673 125.34 58.0614 125.437 58.5468 125.437C59.4593 125.437 60.1195 125.125 60.4884 124.502C60.8768 123.878 61.0515 123.002 61.0515 121.852V118.189C61.0515 117.644 61.0127 117.254 60.9544 117.001C60.8962 116.747 60.7603 116.552 60.5855 116.436C60.3913 116.319 60.1001 116.241 59.7118 116.202V115.929C60.0807 115.948 60.5661 115.968 61.2068 115.968C61.7311 115.968 62.1194 115.968 62.4107 115.929V116.202C62.1194 116.241 61.8864 116.319 61.7505 116.436L61.7311 116.416Z" fill="#4B4B4B"/>
<path d="M70.7792 125.729C70.1578 125.71 69.0899 125.69 67.6143 125.69C65.6144 125.69 64.1193 125.69 63.1096 125.729V125.457C63.4203 125.457 63.6339 125.398 63.7892 125.34C63.9251 125.281 64.0222 125.164 64.0804 125.008C64.1387 124.853 64.1581 124.599 64.1581 124.249V117.351C64.1581 117.001 64.1387 116.747 64.0804 116.591C64.0222 116.436 63.9251 116.319 63.7892 116.26C63.6533 116.202 63.4203 116.163 63.129 116.143V115.87C64.1387 115.89 65.6338 115.909 67.6337 115.909C68.9928 115.909 69.9637 115.909 70.5267 115.87C70.4685 116.63 70.4297 117.312 70.4297 117.916C70.4297 118.325 70.4297 118.637 70.4685 118.852H70.1578C70.0607 118.189 69.9248 117.644 69.7307 117.254C69.5365 116.864 69.2841 116.591 68.9928 116.416C68.7016 116.241 68.3327 116.163 67.8861 116.163H67.323C67.0318 116.163 66.8376 116.182 66.7017 116.221C66.5658 116.26 66.4881 116.358 66.4298 116.494C66.391 116.63 66.3522 116.845 66.3522 117.137V120.566H66.7988C67.3036 120.566 67.6725 120.391 67.9249 120.021C68.1773 119.65 68.3521 119.222 68.4492 118.735H68.7598C68.721 119.183 68.721 119.631 68.721 120.04V120.702C68.721 121.17 68.7598 121.833 68.7987 122.67H68.488C68.3133 121.443 67.7502 120.839 66.7988 120.839H66.3522V124.346C66.3522 124.638 66.3716 124.853 66.4298 124.989C66.4687 125.125 66.5658 125.223 66.7017 125.262C66.8376 125.301 67.0318 125.32 67.323 125.32H68.0026C68.4298 125.32 68.8181 125.223 69.1288 125.047C69.4394 124.853 69.7112 124.541 69.9442 124.112C70.1578 123.684 70.3326 123.099 70.4491 122.378H70.7597C70.7403 122.67 70.7209 123.06 70.7209 123.547C70.7209 124.307 70.7597 125.008 70.818 125.651L70.7792 125.729Z" fill="#4B4B4B"/>
<path d="M76.4876 115.87C76.7789 115.968 77.0701 116.104 77.3613 116.26C77.5749 116.397 77.7303 116.455 77.8274 116.455C77.905 116.455 77.9827 116.416 78.0215 116.319C78.0603 116.221 78.0992 116.065 78.138 115.851H78.4487C78.3904 116.416 78.371 117.488 78.371 119.027H78.0603C78.0215 118.52 77.9244 118.053 77.7303 117.585C77.5361 117.137 77.2643 116.767 76.9342 116.494C76.5847 116.221 76.1769 116.065 75.7109 116.065C75.4197 116.065 75.1479 116.124 74.9149 116.241C74.6819 116.358 74.5071 116.513 74.3712 116.728C74.2353 116.942 74.177 117.195 74.177 117.488C74.177 117.819 74.2547 118.092 74.3906 118.345C74.5265 118.579 74.7401 118.813 74.9925 119.007C75.2449 119.202 75.6333 119.494 76.1769 119.845C76.3323 119.943 76.4682 120.021 76.5847 120.118C77.1283 120.469 77.5555 120.78 77.8662 121.053C78.1768 121.326 78.4487 121.638 78.6234 121.988C78.8176 122.339 78.9147 122.768 78.9147 123.235C78.9147 123.82 78.7593 124.326 78.4487 124.736C78.138 125.145 77.7303 125.437 77.206 125.651C76.6818 125.846 76.1187 125.963 75.4779 125.963C74.9731 125.963 74.5459 125.924 74.1965 125.827C73.8664 125.729 73.5363 125.612 73.245 125.457C73.0315 125.32 72.8761 125.262 72.779 125.262C72.7014 125.262 72.6237 125.301 72.5849 125.398C72.546 125.496 72.5072 125.651 72.4684 125.866H72.1577C72.1965 125.281 72.216 124.034 72.216 122.125H72.5266C72.5849 123.157 72.8179 123.995 73.2062 124.638C73.5945 125.281 74.2159 125.612 75.0314 125.612C75.3614 125.612 75.6527 125.554 75.9051 125.437C76.1575 125.32 76.3711 125.145 76.507 124.911C76.6624 124.677 76.74 124.385 76.74 124.054C76.74 123.684 76.6624 123.372 76.4876 123.08C76.3129 122.787 76.0993 122.534 75.808 122.281C75.5168 122.047 75.1479 121.774 74.6625 121.462C74.0994 121.112 73.6722 120.8 73.3421 120.527C73.012 120.254 72.7402 119.943 72.5266 119.572C72.3131 119.202 72.1965 118.774 72.1965 118.286C72.1965 117.721 72.3325 117.254 72.6237 116.884C72.915 116.513 73.2839 116.221 73.7499 116.046C74.2159 115.851 74.7401 115.773 75.3032 115.773C75.7886 115.773 76.1769 115.812 76.4682 115.909L76.4876 115.87Z" fill="#4B4B4B"/>
<path d="M89.6131 115.949C90.0014 116.104 90.3704 116.319 90.7587 116.611C90.8558 116.689 90.9529 116.728 91.0305 116.728C91.2053 116.728 91.3412 116.455 91.38 115.91H91.6907C91.6518 116.533 91.6324 117.663 91.6324 119.28H91.3023C91.2441 118.813 91.1859 118.442 91.1082 118.15C91.0305 117.858 90.9334 117.605 90.7975 117.39C90.6616 117.157 90.4869 116.962 90.2539 116.767C90.0209 116.553 89.7684 116.377 89.4578 116.26C89.1471 116.143 88.8365 116.085 88.5064 116.085C87.885 116.085 87.3608 116.299 86.9336 116.747C86.5259 117.176 86.2152 117.761 86.021 118.481C85.8269 119.202 85.7298 120.001 85.7298 120.858C85.7298 121.716 85.8269 122.515 86.0405 123.235C86.2346 123.956 86.5453 124.521 86.9725 124.95C87.3996 125.379 87.9239 125.593 88.5452 125.593C88.8559 125.593 89.1665 125.535 89.4772 125.418C89.7879 125.301 90.0403 125.145 90.2733 124.911C90.5063 124.736 90.681 124.521 90.8169 124.288C90.9529 124.054 91.0499 123.762 91.1082 123.45C91.1664 123.138 91.2247 122.729 91.2829 122.222H91.613C91.613 123.898 91.613 125.067 91.6713 125.729H91.3606C91.3412 125.437 91.3024 125.223 91.2441 125.106C91.1859 124.97 91.1276 124.911 91.0305 124.911C90.9529 124.911 90.8558 124.95 90.7393 125.028C90.4674 125.223 90.215 125.379 89.982 125.515C89.749 125.632 89.4772 125.749 89.1859 125.827C88.8947 125.905 88.5452 125.944 88.1763 125.944C87.2055 125.944 86.3511 125.749 85.6133 125.34C84.8755 124.95 84.3124 124.366 83.9046 123.606C83.4969 122.846 83.3027 121.95 83.3027 120.897C83.3027 119.845 83.5163 118.969 83.9241 118.189C84.3318 117.41 84.9143 116.786 85.6715 116.358C86.4094 115.929 87.2637 115.715 88.2151 115.715C88.7588 115.715 89.2248 115.793 89.6131 115.949Z" fill="#4B4B4B"/>
<path d="M101.36 125.242C101.515 125.379 101.671 125.457 101.826 125.457V125.729C101.282 125.71 100.583 125.69 99.7291 125.69C98.7777 125.69 98.0787 125.69 97.6127 125.729V125.457C97.9622 125.457 98.2147 125.398 98.3506 125.32C98.5059 125.242 98.5836 125.125 98.5836 124.95C98.5836 124.794 98.5253 124.56 98.4282 124.288L97.5933 122.008H94.5838L94.2148 122.963C93.9624 123.606 93.8459 124.132 93.8459 124.502C93.8459 124.853 93.943 125.086 94.1566 125.223C94.3702 125.359 94.6614 125.437 95.0692 125.437V125.71C94.4478 125.69 93.8653 125.671 93.3411 125.671C92.9139 125.671 92.5644 125.671 92.2732 125.71V125.437C92.7392 125.359 93.1469 124.872 93.477 123.976L96.6225 115.851C96.7778 115.851 96.9332 115.871 97.1079 115.871C97.2827 115.871 97.438 115.871 97.5933 115.851L100.952 124.541C101.069 124.853 101.205 125.067 101.36 125.203V125.242ZM98.4088 113.883C98.9137 114.273 99.4573 114.585 100.059 114.838L99.9816 115.033C99.3797 114.935 98.7972 114.799 98.2147 114.624C97.6322 114.468 97.1662 114.292 96.8167 114.136C96.5254 114.292 96.1371 114.468 95.6517 114.624C95.1663 114.799 94.6808 114.916 94.1954 115.033L94.1372 114.838C94.7197 114.585 95.2633 114.273 95.7682 113.883C96.273 113.493 96.6613 113.084 96.972 112.675H97.2244C97.5157 113.084 97.904 113.493 98.4088 113.883ZM96.1177 117.994L94.6808 121.735H97.4768L96.0983 117.994H96.1177Z" fill="#4B4B4B"/>
<path d="M110.35 116.416C110.214 116.533 110.098 116.708 110.059 116.942C110.001 117.176 109.981 117.527 109.981 118.014V125.768C109.981 125.768 109.806 125.768 109.651 125.768C109.496 125.768 109.36 125.768 109.263 125.768L103.263 118.131V123.469C103.263 124.015 103.283 124.424 103.341 124.677C103.399 124.931 103.516 125.106 103.71 125.242C103.904 125.359 104.195 125.437 104.603 125.476V125.749C104.253 125.729 103.749 125.71 103.108 125.71C102.603 125.71 102.195 125.71 101.904 125.749V125.476C102.215 125.437 102.428 125.359 102.564 125.242C102.7 125.125 102.797 124.95 102.855 124.716C102.914 124.482 102.933 124.132 102.933 123.645V117.39C102.933 117.04 102.914 116.786 102.855 116.63C102.797 116.475 102.7 116.358 102.564 116.299C102.428 116.241 102.195 116.202 101.885 116.182V115.91C102.176 115.929 102.584 115.949 103.088 115.949C103.554 115.949 103.962 115.949 104.292 115.91L109.651 122.534V118.189C109.651 117.644 109.632 117.234 109.573 116.981C109.515 116.728 109.399 116.553 109.205 116.416C109.03 116.299 108.719 116.221 108.311 116.182V115.91C108.68 115.929 109.166 115.949 109.806 115.949C110.311 115.949 110.719 115.949 111.01 115.91V116.182C110.7 116.221 110.486 116.299 110.35 116.416Z" fill="#4B4B4B"/>
<path d="M120.194 117.137C121.087 117.955 121.534 119.144 121.534 120.722C121.534 121.735 121.32 122.612 120.874 123.372C120.447 124.132 119.806 124.716 118.971 125.125C118.136 125.535 117.165 125.749 116.02 125.749C115.787 125.749 115.515 125.749 115.185 125.729C114.369 125.729 113.981 125.71 114 125.71C113.049 125.71 112.33 125.71 111.865 125.749V125.476C112.175 125.476 112.389 125.418 112.544 125.359C112.68 125.301 112.777 125.184 112.835 125.028C112.894 124.872 112.913 124.619 112.913 124.268V117.371C112.913 117.02 112.894 116.767 112.835 116.611C112.777 116.455 112.68 116.338 112.544 116.28C112.408 116.221 112.175 116.182 111.884 116.163V115.89C112.466 115.929 113.029 115.929 113.554 115.929H113.981L114.583 115.91C115.34 115.91 115.864 115.89 116.156 115.89C117.961 115.89 119.301 116.299 120.194 117.118V117.137ZM115.495 116.26C115.359 116.319 115.243 116.436 115.204 116.611C115.146 116.786 115.126 117.02 115.126 117.351V124.288C115.126 124.619 115.146 124.872 115.204 125.028C115.262 125.203 115.359 125.301 115.515 125.379C115.651 125.437 115.884 125.476 116.175 125.476C116.932 125.476 117.534 125.301 118 124.931C118.447 124.56 118.777 124.054 118.971 123.352C119.165 122.67 119.262 121.794 119.262 120.742C119.262 119.689 119.165 118.813 118.952 118.15C118.738 117.468 118.408 116.981 117.961 116.63C117.515 116.299 116.913 116.124 116.175 116.124C115.884 116.124 115.67 116.163 115.534 116.221L115.495 116.26Z" fill="#4B4B4B"/>
<path d="M126.097 116.299C125.961 116.358 125.864 116.475 125.806 116.63C125.747 116.786 125.728 117.04 125.728 117.39V124.288C125.728 124.638 125.747 124.892 125.806 125.047C125.864 125.203 125.961 125.32 126.097 125.379C126.233 125.437 126.466 125.476 126.777 125.496V125.768C126.272 125.749 125.573 125.729 124.68 125.729C123.689 125.729 122.971 125.729 122.505 125.768V125.496C122.816 125.496 123.049 125.437 123.184 125.379C123.32 125.32 123.417 125.203 123.476 125.047C123.534 124.892 123.553 124.638 123.553 124.288V117.39C123.553 117.04 123.534 116.786 123.476 116.63C123.417 116.475 123.32 116.358 123.184 116.299C123.049 116.241 122.816 116.202 122.524 116.182V115.91C122.99 115.929 123.728 115.949 124.699 115.949C125.592 115.949 126.291 115.949 126.796 115.91V116.182C126.485 116.182 126.252 116.241 126.116 116.299H126.097Z" fill="#4B4B4B"/>
<path d="M136.019 117.137C136.912 117.955 137.358 119.144 137.358 120.722C137.358 121.735 137.145 122.612 136.698 123.372C136.271 124.132 135.63 124.716 134.795 125.125C133.961 125.535 132.99 125.749 131.844 125.749C131.611 125.749 131.339 125.749 131.009 125.729C130.194 125.729 129.805 125.71 129.825 125.71C128.873 125.71 128.155 125.71 127.689 125.749V125.476C128 125.476 128.233 125.418 128.369 125.359C128.504 125.301 128.602 125.184 128.66 125.028C128.718 124.872 128.737 124.619 128.737 124.268V117.371C128.737 117.02 128.718 116.767 128.66 116.611C128.602 116.455 128.504 116.338 128.369 116.28C128.233 116.221 128 116.182 127.708 116.163V115.89C128.291 115.929 128.854 115.929 129.378 115.929H129.805L130.407 115.91C131.145 115.91 131.689 115.89 131.98 115.89C133.786 115.89 135.126 116.299 136.019 117.118V117.137ZM131.32 116.26C131.184 116.319 131.067 116.436 131.029 116.611C130.97 116.786 130.951 117.02 130.951 117.351V124.288C130.951 124.619 130.97 124.872 131.029 125.028C131.087 125.203 131.184 125.301 131.32 125.379C131.475 125.437 131.689 125.476 131.98 125.476C132.737 125.476 133.339 125.301 133.805 124.931C134.252 124.56 134.582 124.054 134.776 123.352C134.97 122.651 135.067 121.794 135.067 120.742C135.067 119.689 134.97 118.813 134.757 118.15C134.543 117.468 134.213 116.981 133.766 116.63C133.32 116.299 132.718 116.124 131.98 116.124C131.689 116.124 131.475 116.163 131.339 116.221L131.32 116.26Z" fill="#4B4B4B"/>
<path d="M146.038 116.299C146.776 116.689 147.339 117.273 147.746 118.033C148.154 118.793 148.348 119.689 148.348 120.742C148.348 121.794 148.135 122.67 147.727 123.45C147.319 124.229 146.737 124.853 145.999 125.281C145.261 125.71 144.407 125.924 143.455 125.924C142.504 125.924 141.63 125.729 140.892 125.32C140.155 124.911 139.591 124.346 139.184 123.586C138.776 122.826 138.582 121.93 138.582 120.878C138.582 119.826 138.795 118.949 139.203 118.17C139.611 117.39 140.193 116.767 140.931 116.338C141.669 115.91 142.523 115.695 143.475 115.695C144.426 115.695 145.3 115.89 146.038 116.299ZM142.077 116.572C141.688 116.981 141.397 117.566 141.184 118.306C140.97 119.046 140.873 119.884 140.873 120.839C140.873 121.794 140.989 122.651 141.222 123.372C141.455 124.112 141.766 124.677 142.174 125.067C142.582 125.457 143.028 125.671 143.514 125.671C144.018 125.671 144.465 125.457 144.853 125.047C145.242 124.638 145.533 124.054 145.746 123.313C145.96 122.573 146.057 121.735 146.057 120.78C146.057 119.826 145.941 118.968 145.708 118.228C145.475 117.488 145.145 116.923 144.756 116.533C144.349 116.143 143.902 115.929 143.417 115.929C142.931 115.929 142.465 116.143 142.077 116.552V116.572Z" fill="#4B4B4B"/>
<path d="M122.893 133.562H25.5193V134.244H122.893V133.562Z" fill="#4B4B4B"/>
<path d="M43.2466 150.338C43.4019 150.474 43.5378 150.532 43.6932 150.552V150.825C43.1689 150.805 42.5087 150.786 41.6933 150.786C40.7807 150.786 40.1205 150.786 39.6739 150.825V150.552C40.004 150.552 40.237 150.493 40.3923 150.435C40.5477 150.376 40.6059 150.24 40.6059 150.065C40.6059 149.909 40.5477 149.695 40.4506 149.441L39.6545 147.259H36.7809L36.4314 148.175C36.1984 148.798 36.0625 149.285 36.0625 149.636C36.0625 149.967 36.1595 150.201 36.3537 150.318C36.5479 150.435 36.8391 150.513 37.2274 150.532V150.805C36.6255 150.786 36.0819 150.766 35.577 150.766C35.1693 150.766 34.8198 150.766 34.5674 150.805V150.532C35.014 150.454 35.4023 149.987 35.713 149.149L38.7225 141.394C38.8584 141.394 39.0138 141.394 39.1885 141.394C39.3633 141.394 39.4992 141.394 39.6545 141.394L42.8582 149.695C42.9747 149.987 43.0912 150.201 43.2466 150.338ZM38.2371 143.421L36.8779 146.986H39.5574L38.2565 143.421H38.2371Z" fill="#4B4B4B"/>
<path d="M51.7122 142.583C52.5666 143.362 52.9937 144.512 52.9937 145.993C52.9937 146.947 52.7801 147.805 52.3724 148.526C51.9646 149.246 51.3433 149.811 50.5667 150.201C49.79 150.591 48.8386 150.786 47.7513 150.786C47.5377 150.786 47.2658 150.786 46.9552 150.786C46.1785 150.786 45.8096 150.786 45.829 150.786C44.9164 150.786 44.2369 150.786 43.7903 150.825V150.552C44.0815 150.552 44.2951 150.513 44.431 150.454C44.5669 150.396 44.6446 150.299 44.7029 150.143C44.7611 149.987 44.7805 149.753 44.7805 149.422V142.856C44.7805 142.524 44.7611 142.291 44.7029 142.135C44.6446 141.979 44.5669 141.882 44.431 141.823C44.2951 141.765 44.0815 141.726 43.7903 141.726V141.453C44.3534 141.492 44.8776 141.492 45.3824 141.492H45.7902H46.3533C47.0717 141.492 47.5765 141.472 47.8678 141.472C49.5764 141.472 50.8773 141.862 51.7122 142.641V142.583ZM47.227 141.745C47.0911 141.804 46.994 141.92 46.9358 142.076C46.8775 142.232 46.8581 142.466 46.8581 142.797V149.422C46.8581 149.734 46.8775 149.987 46.9358 150.143C46.994 150.299 47.0911 150.415 47.227 150.474C47.3629 150.532 47.5765 150.571 47.8483 150.571C48.5668 150.571 49.1492 150.396 49.5958 150.065C50.0424 149.734 50.3337 149.227 50.5278 148.564C50.722 147.902 50.7997 147.084 50.7997 146.071C50.7997 145.057 50.7026 144.239 50.5084 143.596C50.3142 142.953 50.0036 142.466 49.557 142.154C49.1104 141.843 48.5473 141.667 47.8483 141.667C47.5765 141.667 47.3629 141.706 47.227 141.765V141.745Z" fill="#4B4B4B"/>
<path d="M62.2164 141.414V141.687C62.0028 141.765 61.7892 141.94 61.5756 142.193C61.362 142.447 61.1679 142.797 61.0125 143.265L58.2165 150.844C58.0224 150.844 57.867 150.844 57.7505 150.844C57.634 150.844 57.4787 150.844 57.2845 150.844L53.9255 142.544C53.7119 141.998 53.4207 141.706 53.0906 141.687V141.414C53.6148 141.433 54.2944 141.453 55.1099 141.453C56.0225 141.453 56.6826 141.453 57.1098 141.414V141.687C56.7797 141.687 56.5467 141.745 56.3914 141.804C56.2361 141.862 56.1778 141.998 56.1778 142.174C56.1778 142.33 56.2361 142.525 56.3331 142.797L58.6631 148.74L60.2941 144.337C60.5465 143.674 60.663 143.129 60.663 142.739C60.663 142.388 60.5659 142.115 60.3912 141.959C60.2164 141.804 59.9252 141.706 59.5563 141.706V141.433C60.1582 141.453 60.7019 141.472 61.2067 141.472C61.6144 141.472 61.9445 141.472 62.2164 141.433V141.414Z" fill="#4B4B4B"/>
<path d="M69.4589 141.804C70.1579 142.174 70.7015 142.739 71.0899 143.46C71.4782 144.181 71.6724 145.038 71.6724 146.032C71.6724 147.025 71.4782 147.863 71.0705 148.623C70.6627 149.383 70.119 149.948 69.42 150.376C68.721 150.805 67.9056 151 66.993 151C66.0804 151 65.2455 150.805 64.5465 150.435C63.8475 150.065 63.3038 149.5 62.9155 148.779C62.5272 148.058 62.333 147.201 62.333 146.207C62.333 145.213 62.5272 144.375 62.9349 143.616C63.3427 142.856 63.8863 142.291 64.5853 141.862C65.2843 141.433 66.0998 141.239 67.0124 141.239C67.925 141.239 68.7599 141.433 69.4589 141.804ZM65.6726 142.057C65.3037 142.447 65.0319 142.992 64.8183 143.713C64.6047 144.434 64.5271 145.233 64.5271 146.129C64.5271 147.025 64.6436 147.844 64.8572 148.545C65.0707 149.246 65.3814 149.792 65.7697 150.162C66.1581 150.532 66.5852 150.727 67.0512 150.727C67.5172 150.727 67.9638 150.532 68.3327 150.143C68.7016 149.753 68.9929 149.207 69.187 148.487C69.3812 147.766 69.4783 146.967 69.4783 146.071C69.4783 145.174 69.3618 144.336 69.1482 143.635C68.9346 142.934 68.624 142.388 68.2356 142.018C67.8473 141.648 67.4201 141.453 66.9541 141.453C66.4881 141.453 66.0416 141.648 65.6726 142.037V142.057Z" fill="#4B4B4B"/>
<path d="M78.8177 141.453C79.1866 141.609 79.5555 141.823 79.905 142.096C80.0021 142.174 80.0798 142.213 80.1574 142.213C80.3322 142.213 80.4487 141.94 80.5069 141.414H80.8176C80.7788 142.018 80.7593 143.09 80.7593 144.629H80.4487C80.3904 144.181 80.3322 143.83 80.2739 143.557C80.2157 143.284 80.1186 143.031 79.9827 142.817C79.8468 142.602 79.672 142.408 79.4584 142.232C79.2449 142.018 78.9924 141.862 78.7012 141.745C78.4099 141.628 78.0993 141.57 77.7886 141.57C77.1867 141.57 76.6819 141.784 76.2935 142.193C75.9052 142.602 75.614 143.168 75.4198 143.849C75.2256 144.531 75.148 145.291 75.148 146.129C75.148 146.967 75.2451 147.707 75.4392 148.389C75.6334 149.071 75.9246 149.617 76.3324 150.026C76.7401 150.435 77.245 150.649 77.8469 150.649C78.1575 150.649 78.4488 150.591 78.74 150.493C79.0313 150.396 79.2837 150.221 79.4973 150.026C79.7303 149.85 79.8856 149.656 80.0215 149.422C80.1574 149.188 80.2351 148.935 80.3128 148.623C80.3904 148.311 80.4293 147.941 80.4681 147.454H80.7788C80.7788 149.052 80.7788 150.162 80.837 150.786H80.5264C80.5069 150.513 80.4681 150.318 80.4099 150.182C80.3516 150.045 80.2933 150.006 80.1963 150.006C80.1186 150.006 80.0215 150.045 79.9244 150.123C79.672 150.318 79.4196 150.454 79.206 150.571C78.9924 150.688 78.74 150.786 78.4488 150.864C78.1575 150.942 77.8469 150.981 77.4974 150.981C76.5654 150.981 75.7499 150.786 75.0509 150.415C74.3519 150.045 73.8082 149.48 73.4199 148.759C73.0316 148.038 72.8374 147.181 72.8374 146.187C72.8374 145.194 73.0316 144.356 73.4393 143.596C73.8471 142.836 74.3907 142.271 75.0897 141.843C75.7887 141.414 76.6042 141.219 77.5168 141.219C78.041 141.219 78.4876 141.297 78.8565 141.453H78.8177Z" fill="#4B4B4B"/>
<path d="M90.021 150.338C90.1763 150.474 90.3122 150.532 90.4676 150.552V150.825C89.9433 150.805 89.2832 150.786 88.4677 150.786C87.5551 150.786 86.8949 150.786 86.4484 150.825V150.552C86.7784 150.552 87.0114 150.493 87.1668 150.435C87.3221 150.376 87.3803 150.24 87.3803 150.065C87.3803 149.909 87.3221 149.695 87.225 149.441L86.4289 147.259H83.5553L83.2058 148.175C82.9728 148.798 82.8369 149.285 82.8369 149.636C82.8369 149.967 82.934 150.201 83.1281 150.318C83.3223 150.435 83.6135 150.513 84.0019 150.532V150.805C83.4 150.786 82.8563 150.766 82.3515 150.766C81.9437 150.766 81.5942 150.766 81.3418 150.805V150.532C81.7884 150.454 82.1767 149.987 82.4874 149.149L85.4969 141.394C85.6329 141.394 85.7882 141.394 85.9629 141.394C86.1377 141.394 86.2736 141.394 86.4289 141.394L89.6327 149.695C89.7492 149.987 89.8657 150.201 90.021 150.338ZM85.0115 143.421L83.6524 146.986H86.3318L85.0309 143.421H85.0115Z" fill="#4B4B4B"/>
<path d="M96.8167 141.453C97.1856 141.609 97.5546 141.823 97.9041 142.096C98.0011 142.174 98.0788 142.213 98.1565 142.213C98.3312 142.213 98.4477 141.94 98.506 141.414H98.8166C98.7778 142.018 98.7584 143.09 98.7584 144.629H98.4477C98.3895 144.181 98.3312 143.83 98.273 143.557C98.2147 143.284 98.1176 143.031 97.9817 142.817C97.8458 142.602 97.671 142.408 97.4575 142.232C97.2439 142.018 96.9915 141.862 96.7002 141.745C96.409 141.628 96.0983 141.57 95.7877 141.57C95.1857 141.57 94.6809 141.784 94.2926 142.193C93.9042 142.602 93.613 143.168 93.4188 143.849C93.2247 144.531 93.147 145.291 93.147 146.129C93.147 146.967 93.2441 147.707 93.4382 148.389C93.6324 149.071 93.9237 149.617 94.3314 150.026C94.7392 150.435 95.244 150.649 95.8459 150.649C96.1566 150.649 96.4478 150.591 96.7391 150.493C97.0303 150.396 97.2827 150.221 97.4963 150.026C97.7293 149.85 97.8846 149.656 98.0205 149.422C98.1565 149.188 98.2341 148.935 98.3118 148.623C98.3895 148.311 98.4283 147.941 98.4671 147.454H98.7778C98.7778 149.052 98.7778 150.162 98.836 150.786H98.5254C98.506 150.513 98.4671 150.318 98.4089 150.182C98.3506 150.045 98.2924 150.006 98.1953 150.006C98.1176 150.006 98.0206 150.045 97.9235 150.123C97.6711 150.318 97.4186 150.454 97.2051 150.571C96.9915 150.688 96.7391 150.786 96.4478 150.864C96.1566 150.942 95.8459 150.981 95.4964 150.981C94.5644 150.981 93.7489 150.786 93.0499 150.415C92.3509 150.045 91.8073 149.48 91.4189 148.759C91.0306 148.038 90.8364 147.181 90.8364 146.187C90.8364 145.194 91.0306 144.356 91.4383 143.596C91.8461 142.836 92.3897 142.271 93.0887 141.843C93.7877 141.414 94.6032 141.219 95.5158 141.219C96.0401 141.219 96.4866 141.297 96.8556 141.453H96.8167Z" fill="#4B4B4B"/>
<path d="M103.438 141.784C103.302 141.843 103.205 141.94 103.166 142.096C103.127 142.252 103.088 142.486 103.088 142.817V149.383C103.088 149.714 103.108 149.948 103.166 150.104C103.224 150.26 103.302 150.357 103.438 150.415C103.574 150.474 103.787 150.513 104.078 150.513V150.786C103.593 150.766 102.933 150.747 102.079 150.747C101.147 150.747 100.448 150.747 100.001 150.786V150.513C100.292 150.513 100.506 150.474 100.642 150.415C100.778 150.357 100.855 150.26 100.914 150.104C100.972 149.948 100.991 149.714 100.991 149.383V142.817C100.991 142.486 100.972 142.252 100.914 142.096C100.855 141.94 100.778 141.843 100.642 141.784C100.506 141.726 100.292 141.687 100.001 141.687V141.414C100.448 141.433 101.147 141.453 102.079 141.453C102.933 141.453 103.593 141.453 104.078 141.414V141.687C103.787 141.687 103.574 141.726 103.438 141.784Z" fill="#4B4B4B"/>
<path d="M112.971 150.338C113.127 150.474 113.262 150.532 113.418 150.552V150.825C112.894 150.805 112.233 150.786 111.418 150.786C110.505 150.786 109.845 150.786 109.399 150.825V150.552C109.729 150.552 109.962 150.493 110.117 150.435C110.272 150.376 110.331 150.24 110.331 150.065C110.331 149.909 110.272 149.695 110.175 149.441L109.379 147.259H106.505L106.156 148.175C105.923 148.798 105.787 149.285 105.787 149.636C105.787 149.967 105.884 150.201 106.078 150.318C106.272 150.435 106.564 150.513 106.952 150.532V150.805C106.35 150.786 105.806 150.766 105.302 150.766C104.894 150.766 104.544 150.766 104.292 150.805V150.532C104.739 150.454 105.127 149.987 105.438 149.149L108.447 141.394C108.583 141.394 108.738 141.394 108.913 141.394C109.088 141.394 109.224 141.394 109.379 141.394L112.583 149.695C112.699 149.987 112.816 150.201 112.971 150.338ZM107.962 143.421L106.603 146.986H109.282L107.981 143.421H107.962Z" fill="#4B4B4B"/>
</g>
<defs>
<clipPath id="clip0_131_84">
<rect width="148.304" height="151" fill="white" transform="translate(0.0446777)"/>
</clipPath>
</defs>
</svg>
