<svg width="116" height="105" viewBox="0 0 116 105" fill="none" xmlns="http://www.w3.org/2000/svg">
<path d="M0.514893 47.668V0.818481H19.2441C22.6854 0.818481 25.5557 1.32937 27.855 2.35116C30.1543 3.37294 31.8826 4.79124 33.0398 6.60605C34.1971 8.40561 34.7757 10.4797 34.7757 12.8283C34.7757 14.6583 34.4103 16.2672 33.6794 17.655C32.9485 19.0276 31.9435 20.1561 30.6644 21.0406C29.4006 21.9099 27.954 22.5276 26.3247 22.8936V23.3511C28.1063 23.4273 29.7736 23.9306 31.3268 24.8609C32.8952 25.7912 34.1666 27.0951 35.1412 28.7726C36.1157 30.435 36.603 32.4175 36.603 34.7203C36.603 37.2062 35.9863 39.4251 34.7529 41.3772C33.5347 43.314 31.7303 44.8467 29.3397 45.9752C26.949 47.1037 24.0026 47.668 20.5004 47.668H0.514893ZM10.4048 39.57H18.4676C21.2237 39.57 23.2336 39.0439 24.4975 37.9916C25.7613 36.924 26.3932 35.5057 26.3932 33.7367C26.3932 32.4404 26.0811 31.2966 25.4568 30.3053C24.8325 29.314 23.9417 28.5363 22.7844 27.972C21.6424 27.4077 20.2796 27.1256 18.696 27.1256H10.4048V39.57ZM10.4048 20.423H17.7367C19.0919 20.423 20.2948 20.1866 21.3455 19.7139C22.4114 19.2258 23.2488 18.5396 23.8579 17.655C24.4822 16.7705 24.7944 15.7106 24.7944 14.4753C24.7944 12.7825 24.1929 11.4176 22.99 10.3805C21.8023 9.34351 20.1121 8.82499 17.9194 8.82499H10.4048V20.423Z" fill="#4B4B4B"/>
<path d="M52.9282 0.818481V47.668H43.0383V0.818481H52.9282Z" fill="#4B4B4B"/>
<path d="M61.0652 47.668V0.818481H79.7944C83.2357 0.818481 86.106 1.32937 88.4053 2.35116C90.7046 3.37294 92.4329 4.79124 93.5901 6.60605C94.7474 8.40561 95.326 10.4797 95.326 12.8283C95.326 14.6583 94.9605 16.2672 94.2296 17.655C93.4987 19.0276 92.4938 20.1561 91.2147 21.0406C89.9508 21.9099 88.5043 22.5276 86.875 22.8936V23.3511C88.6565 23.4273 90.3239 23.9306 91.8771 24.8609C93.4454 25.7912 94.7169 27.0951 95.6914 28.7726C96.666 30.435 97.1532 32.4175 97.1532 34.7203C97.1532 37.2062 96.5365 39.4251 95.3031 41.3772C94.085 43.314 92.2806 44.8467 89.8899 45.9752C87.4993 47.1037 84.5529 47.668 81.0507 47.668H61.0652ZM70.9551 39.57H79.0178C81.7739 39.57 83.7839 39.0439 85.0477 37.9916C86.3116 36.924 86.9435 35.5057 86.9435 33.7367C86.9435 32.4404 86.6314 31.2966 86.007 30.3053C85.3827 29.314 84.492 28.5363 83.3347 27.972C82.1927 27.4077 80.8298 27.1256 79.2462 27.1256H70.9551V39.57ZM70.9551 20.423H78.2869C79.6421 20.423 80.8451 20.1866 81.8957 19.7139C82.9616 19.2258 83.7991 18.5396 84.4082 17.655C85.0325 16.7705 85.3447 15.7106 85.3447 14.4753C85.3447 12.7825 84.7432 11.4176 83.5403 10.3805C82.3526 9.34351 80.6624 8.82499 78.4697 8.82499H70.9551V20.423Z" fill="#4B4B4B"/>
<path d="M113.479 0.818481V47.668H103.589V0.818481H113.479Z" fill="#4B4B4B"/>
<path d="M5.36503 75.0646C5.42935 75.0646 5.49367 75.0646 5.49367 75.0646C6.32982 75.0646 7.35892 76.0953 7.35892 76.675C7.35892 76.8039 7.23028 76.9327 7.03733 76.9971C6.52277 77.0616 6.00822 77.126 5.55799 77.126C4.20729 77.126 3.24251 76.8039 2.535 76.1597C1.82749 75.5799 1.57021 74.8713 1.57021 74.2272C1.57021 72.6811 2.92091 71.1351 4.01433 69.9756C7.48756 66.3037 13.8551 62.1165 17.9072 62.1165C18.1002 62.1165 18.2931 62.1165 18.4861 62.1165C19.7082 62.2454 20.8659 62.8251 21.7021 63.727C23.1171 65.2086 23.6316 67.0767 23.6316 69.1381C23.6316 74.6137 19.7082 81.7641 16.4279 87.6261C15.9133 88.4636 15.4631 89.301 15.0772 90.074C20.287 82.0217 34.6302 60.7638 43.1846 53.5489C44.6639 52.325 46.5292 51.1655 48.2015 51.1655C49.4879 51.1655 50.6456 51.8097 51.4174 53.5489C51.932 54.7729 52.1249 56.3189 52.1249 58.0582C52.1249 65.273 48.2658 76.1597 44.9855 85.6292C43.3132 90.3317 40.2259 98.3195 40.2259 101.863C40.2259 102.571 40.4832 103.409 40.4832 103.859C40.4832 104.053 40.4189 104.182 40.2902 104.182C40.2259 104.182 40.1616 104.182 40.0973 104.182C38.6179 104.182 37.9748 101.991 37.9748 100.639C37.9748 96.8379 40.9977 88.9789 42.7344 84.0831C46.0789 74.6137 49.9381 63.727 49.9381 56.8987C49.9381 55.3526 49.7451 53.9999 49.2949 52.9048C49.2306 52.9048 49.2306 52.9048 49.1662 52.9048C46.5292 52.9048 39.0682 61.6656 37.4602 63.5337C26.4617 76.8683 13.0833 97.8686 13.0833 98.1263C13.0833 98.1263 12.826 98.1263 12.5044 98.1263C11.604 98.1263 9.93168 97.8686 9.93168 95.8072C9.93168 95.4851 9.996 95.0986 10.0603 94.6477C10.5106 92.7152 12.2472 89.5587 14.241 85.9512C15.2702 84.1475 21.8307 72.5523 21.8307 67.0123C21.8307 65.3375 21.2518 64.2423 19.7082 64.0491C19.5795 64.0491 19.3866 64.0491 19.1936 64.0491C13.0833 64.0491 3.43546 74.0339 3.43546 75.2578V75.3223C3.49978 75.3223 4.07865 75.2578 5.36503 75.0646Z" fill="#4B4B4B"/>
<path d="M64.4912 77.3192C64.2983 77.8346 63.2049 77.2548 62.819 76.8683C60.1819 77.6413 56.6443 80.3469 56.6443 82.988C56.6443 83.2457 56.7087 83.5034 56.773 83.6966C59.5387 83.4389 65.0058 77.3836 65.0058 77.3836C65.1344 77.1904 65.3274 77.126 65.5204 77.126C66.2922 77.126 67.257 78.3499 67.257 78.8008C67.257 78.8653 67.1926 78.9297 67.1926 78.9297C67.064 79.8315 66.9997 80.6045 66.9997 81.3131C66.9997 82.0217 67.064 82.6015 67.1926 83.0524C67.257 83.3101 67.5142 83.4389 67.9002 83.4389C70.087 83.4389 76.3903 79.445 77.2907 78.8653C77.355 78.8008 77.4837 78.8008 77.548 78.8008C78.2555 78.8008 79.2846 79.8315 79.2846 80.4113C79.2846 80.5401 79.2203 80.6045 79.156 80.669C76.3903 82.4083 72.3382 85.3071 69.2509 85.3071C68.9293 85.3071 68.6077 85.3071 68.2861 85.2427C66.3565 84.7273 65.1344 83.4389 64.8128 81.3776C62.819 83.3101 59.8603 85.6936 57.9307 85.6936C57.8021 85.6936 57.7378 85.6936 57.6091 85.6292C56.2584 85.5003 54.972 84.3408 54.5861 82.8592C54.4575 82.5371 54.4575 82.1506 54.4575 81.8285C54.4575 78.6076 58.3809 75.7088 61.0823 74.9358C61.4039 74.8713 61.7255 74.8069 62.0471 74.8069C62.8833 74.8069 63.5908 75.129 64.1697 75.8376C64.5556 76.2885 64.6842 76.8039 64.4912 77.3192Z" fill="#4B4B4B"/>
<path d="M79.2133 74.4848C79.2776 74.356 79.4062 74.2916 79.5992 74.2916C80.2424 74.2916 81.4644 75.2578 81.4644 75.902C81.4644 75.9664 81.4644 76.0309 81.4001 76.0953C80.564 77.899 78.3771 82.8592 78.3771 85.5647C78.3771 85.9512 78.3771 86.2733 78.4414 86.531C78.5058 86.531 78.5058 86.531 78.5701 86.531C81.5287 86.531 86.8672 80.7978 88.5395 78.7364C88.6038 78.672 88.7325 78.6076 88.7968 78.6076C89.3113 78.6076 90.2118 79.7671 90.2118 80.4113C90.2118 80.5401 90.2118 80.669 90.1475 80.7334C88.2179 83.1169 83.4583 88.4636 79.8565 88.4636C79.5992 88.4636 79.2776 88.3991 79.0203 88.3347C78.0555 88.077 77.1551 87.3684 76.7048 86.531C76.3189 85.9512 76.1903 85.1782 76.1903 84.2764C76.1903 81.0555 78.2485 76.6106 79.2133 74.4848ZM82.7508 73.0676C82.6865 73.1965 82.5578 73.2609 82.3649 73.2609C81.7217 73.2609 80.4996 72.2946 80.4996 71.6504C80.4996 71.586 80.564 71.5216 80.564 71.4572L83.201 67.27C83.2654 67.1412 83.394 67.0767 83.5869 67.0767C84.2301 67.0767 85.4522 68.043 85.4522 68.6872C85.4522 68.7516 85.3879 68.816 85.3879 68.8804L82.7508 73.0676Z" fill="#4B4B4B"/>
<path d="M100.947 78.8653C101.075 78.7364 101.139 78.7364 101.268 78.7364C101.911 78.7364 102.94 79.7671 102.94 80.4113C102.94 80.5401 102.94 80.6045 102.876 80.669C99.2742 83.3101 89.4978 96.2581 87.3109 96.387C87.2466 96.387 87.1823 96.387 87.118 96.387C85.2527 96.387 84.4166 95.0986 84.4166 92.9728C84.4166 87.1108 91.7489 69.267 95.7367 59.6687C96.8944 56.8343 97.7306 54.7085 98.0522 53.8066C98.1165 53.6778 98.2451 53.6134 98.4381 53.6134C99.0813 53.6134 100.303 54.5152 100.303 55.1594C100.303 56.1257 99.0813 58.4447 97.9235 61.2147C94.0001 70.7486 86.732 88.3347 86.6677 94.0679C90.4625 91.4912 96.4442 83.1813 100.947 78.8653Z" fill="#4B4B4B"/>
<path d="M104.821 71.7148C104.95 71.6504 105.014 71.586 105.143 71.586C105.85 71.586 106.944 72.6811 106.944 73.2609C106.944 73.3897 106.944 73.4541 106.815 73.5186C104.178 75.0646 102.956 76.353 102.956 78.0922C102.956 79.1229 103.342 80.3469 104.114 81.8285C106.751 80.669 109.967 79.5739 113.504 78.8008C113.569 78.7364 113.633 78.7364 113.697 78.7364C114.469 78.7364 115.563 79.8315 115.563 80.4113C115.563 80.5401 115.434 80.669 115.241 80.7334C111.317 81.6352 107.844 82.7948 105.079 84.0831C105.207 84.4052 105.207 84.7917 105.207 85.1138C105.207 86.531 104.307 87.9482 101.284 89.301C100.512 89.6231 99.8687 89.8808 99.2255 89.8808C98.4537 89.8808 97.8105 89.4942 97.103 88.3347C96.9743 88.0126 96.91 87.755 96.91 87.4973C96.8457 85.3715 101.155 83.2457 102.634 82.4727C101.605 80.4757 100.576 78.672 100.576 76.9971C100.576 75.2578 101.605 73.583 104.821 71.7148ZM100.319 86.9819C101.219 86.531 101.798 86.0801 102.248 85.6292C101.541 86.0157 100.898 86.4666 100.319 86.9819Z" fill="#4B4B4B"/>
</svg>
