<svg width="215" height="95" viewBox="0 0 215 95" fill="none" xmlns="http://www.w3.org/2000/svg">
<g clip-path="url(#clip0_131_80)">
<path d="M119.645 30.2046L114.842 23.0149L124.271 8.90888H113.347L103.721 23.3027L139.331 76.56H109.176L74.0787 24.0728H63.1471L91.7785 66.8945L93.316 69.1831L78.2421 91.7239H48.0872L52.3489 85.3618L67.7739 62.2813L72.5832 69.471L63.1471 83.577H74.0787L83.7044 69.1831L48.0872 15.9259H78.2421L79.4357 17.7035L113.347 68.4202H124.271L94.1094 23.3027L95.64 21.0069L109.176 0.761963H139.331L119.645 30.2046Z" fill="#4B4B4B"/>
<path d="M20.545 3.45713L26.7969 12.8902H30.1763L22.0657 0.761963H11.2516L19.3622 12.8902H23.0795L16.7751 3.45713H20.545Z" fill="#4B4B4B"/>
<path d="M0.4375 76.5636V16.2592H41.2102V26.7712H13.2307V41.1406H39.1125V51.6527H13.2307V66.0515H41.3284V76.5636H0.4375Z" fill="#4B4B4B"/>
<path d="M158.594 16.2592V76.5636H146.09V16.2592H158.594Z" fill="#4B4B4B"/>
<path d="M165.353 26.7712V16.2592H214.354V26.7712H196.088V76.5636H183.619V26.7712H165.353Z" fill="#4B4B4B"/>
<path d="M104.917 86.5867H103.221C103.19 86.3676 103.127 86.173 103.031 86.0029C102.936 85.8302 102.813 85.6832 102.663 85.5621C102.513 85.441 102.341 85.3482 102.144 85.2837C101.951 85.2193 101.74 85.1871 101.513 85.1871C101.103 85.1871 100.745 85.2889 100.441 85.4925C100.136 85.6936 99.8999 85.9874 99.7321 86.374C99.5643 86.7581 99.4804 87.2246 99.4804 87.7736C99.4804 88.3381 99.5643 88.8124 99.7321 89.1964C99.9025 89.5805 100.14 89.8704 100.445 90.0663C100.749 90.2622 101.102 90.3602 101.502 90.3602C101.726 90.3602 101.934 90.3305 102.125 90.2712C102.319 90.212 102.49 90.1256 102.64 90.0122C102.79 89.8962 102.914 89.7557 103.012 89.5908C103.112 89.4258 103.182 89.2377 103.221 89.0263L104.917 89.034C104.873 89.3975 104.763 89.748 104.588 90.0857C104.415 90.4207 104.181 90.721 103.887 90.9865C103.595 91.2494 103.247 91.4582 102.841 91.6129C102.439 91.7649 101.983 91.841 101.475 91.841C100.767 91.841 100.135 91.6812 99.5772 91.3615C99.0223 91.0419 98.5834 90.5793 98.2608 89.9735C97.9407 89.3678 97.7806 88.6345 97.7806 87.7736C97.7806 86.9102 97.9433 86.1756 98.2685 85.5698C98.5938 84.9641 99.0352 84.5027 99.5927 84.1857C100.15 83.8661 100.778 83.7063 101.475 83.7063C101.934 83.7063 102.36 83.7707 102.752 83.8996C103.147 84.0285 103.497 84.2166 103.802 84.4641C104.106 84.7089 104.354 85.0092 104.545 85.3649C104.739 85.7206 104.862 86.1279 104.917 86.5867Z" fill="#4B4B4B"/>
<path d="M108.775 91.8487C108.174 91.8487 107.654 91.7211 107.215 91.4659C106.778 91.2082 106.442 90.8499 106.204 90.3911C105.967 89.9297 105.848 89.3949 105.848 88.7866C105.848 88.1731 105.967 87.637 106.204 87.1782C106.442 86.7168 106.778 86.3586 107.215 86.1034C107.654 85.8456 108.174 85.7168 108.775 85.7168C109.377 85.7168 109.895 85.8456 110.332 86.1034C110.77 86.3586 111.109 86.7168 111.346 87.1782C111.584 87.637 111.702 88.1731 111.702 88.7866C111.702 89.3949 111.584 89.9297 111.346 90.3911C111.109 90.8499 110.77 91.2082 110.332 91.4659C109.895 91.7211 109.377 91.8487 108.775 91.8487ZM108.783 90.5728C109.056 90.5728 109.285 90.4955 109.468 90.3408C109.651 90.1836 109.79 89.9697 109.883 89.699C109.978 89.4284 110.026 89.1204 110.026 88.775C110.026 88.4296 109.978 88.1216 109.883 87.8509C109.79 87.5803 109.651 87.3664 109.468 87.2091C109.285 87.0519 109.056 86.9733 108.783 86.9733C108.507 86.9733 108.274 87.0519 108.086 87.2091C107.9 87.3664 107.759 87.5803 107.664 87.8509C107.571 88.1216 107.524 88.4296 107.524 88.775C107.524 89.1204 107.571 89.4284 107.664 89.699C107.759 89.9697 107.9 90.1836 108.086 90.3408C108.274 90.4955 108.507 90.5728 108.783 90.5728Z" fill="#4B4B4B"/>
<path d="M112.775 91.7327V85.7941H114.347V86.8418H114.417C114.541 86.4939 114.747 86.2194 115.036 86.0183C115.325 85.8173 115.671 85.7168 116.074 85.7168C116.482 85.7168 116.829 85.8186 117.115 86.0222C117.402 86.2232 117.593 86.4965 117.688 86.8418H117.75C117.872 86.5016 118.091 86.2297 118.409 86.0261C118.729 85.8199 119.107 85.7168 119.543 85.7168C120.098 85.7168 120.549 85.8933 120.894 86.2464C121.243 86.597 121.417 87.0944 121.417 87.7388V91.7327H119.772V88.0636C119.772 87.7337 119.684 87.4862 119.508 87.3213C119.333 87.1563 119.113 87.0738 118.85 87.0738C118.551 87.0738 118.317 87.1692 118.149 87.3599C117.981 87.5481 117.898 87.7968 117.898 88.1061V91.7327H116.298V88.0288C116.298 87.7375 116.214 87.5056 116.047 87.3329C115.881 87.1602 115.663 87.0738 115.392 87.0738C115.209 87.0738 115.044 87.1202 114.897 87.213C114.752 87.3032 114.637 87.4308 114.552 87.5958C114.467 87.7582 114.424 87.9489 114.424 88.168V91.7327H112.775Z" fill="#4B4B4B"/>
<path d="M126.534 89.2042V85.7941H128.183V91.7327H126.6V90.654H126.538C126.404 91.002 126.18 91.2816 125.868 91.493C125.558 91.7044 125.18 91.81 124.733 91.81C124.336 91.81 123.986 91.7198 123.684 91.5394C123.382 91.359 123.146 91.1025 122.976 90.77C122.808 90.4375 122.723 90.0393 122.72 89.5753V85.7941H124.37V89.2815C124.372 89.632 124.466 89.9091 124.652 90.1127C124.838 90.3164 125.087 90.4182 125.399 90.4182C125.598 90.4182 125.784 90.3731 125.957 90.2828C126.13 90.1901 126.269 90.0534 126.375 89.873C126.484 89.6926 126.537 89.4696 126.534 89.2042Z" fill="#4B4B4B"/>
<path d="M131.152 88.2994V91.7327H129.503V85.7941H131.075V86.8418H131.145C131.276 86.4965 131.497 86.2232 131.807 86.0222C132.116 85.8186 132.492 85.7168 132.933 85.7168C133.346 85.7168 133.706 85.807 134.014 85.9874C134.321 86.1678 134.56 86.4256 134.73 86.7607C134.9 87.0932 134.986 87.4901 134.986 87.9515V91.7327H133.336V88.2453C133.339 87.8819 133.246 87.5984 133.057 87.3947C132.869 87.1885 132.609 87.0854 132.279 87.0854C132.057 87.0854 131.861 87.1331 131.69 87.2285C131.523 87.3238 131.391 87.463 131.296 87.646C131.203 87.8265 131.155 88.0443 131.152 88.2994Z" fill="#4B4B4B"/>
<path d="M136.286 91.7327V85.7941H137.935V91.7327H136.286ZM137.114 85.0286C136.869 85.0286 136.659 84.9474 136.483 84.785C136.31 84.62 136.224 84.4228 136.224 84.1934C136.224 83.9666 136.31 83.772 136.483 83.6096C136.659 83.4447 136.869 83.3622 137.114 83.3622C137.359 83.3622 137.568 83.4447 137.741 83.6096C137.917 83.772 138.005 83.9666 138.005 84.1934C138.005 84.4228 137.917 84.62 137.741 84.785C137.568 84.9474 137.359 85.0286 137.114 85.0286Z" fill="#4B4B4B"/>
<path d="M141.943 91.8487C141.334 91.8487 140.81 91.7198 140.371 91.4621C139.935 91.2017 139.6 90.8409 139.365 90.3795C139.132 89.9181 139.016 89.3872 139.016 88.7866C139.016 88.1783 139.134 87.6447 139.369 87.1859C139.606 86.7246 139.943 86.365 140.379 86.1073C140.815 85.8469 141.334 85.7168 141.936 85.7168C142.455 85.7168 142.909 85.8108 143.299 85.999C143.688 86.1872 143.997 86.4514 144.224 86.7916C144.451 87.1318 144.576 87.5313 144.6 87.9901H143.043C142.999 87.6937 142.883 87.4553 142.695 87.2749C142.509 87.0919 142.265 87.0004 141.963 87.0004C141.707 87.0004 141.484 87.07 141.293 87.2091C141.105 87.3458 140.957 87.5455 140.852 87.8084C140.746 88.0713 140.693 88.3897 140.693 88.7634C140.693 89.1423 140.744 89.4645 140.848 89.73C140.954 89.9955 141.102 90.1978 141.293 90.337C141.484 90.4762 141.707 90.5458 141.963 90.5458C142.151 90.5458 142.32 90.5071 142.47 90.4298C142.622 90.3524 142.748 90.2403 142.846 90.0934C142.946 89.9439 143.012 89.7648 143.043 89.556H144.6C144.574 90.0096 144.45 90.4091 144.228 90.7545C144.009 91.0973 143.705 91.3654 143.318 91.5587C142.931 91.752 142.473 91.8487 141.943 91.8487Z" fill="#4B4B4B"/>
<path d="M147.352 91.8448C146.972 91.8448 146.634 91.7791 146.337 91.6476C146.04 91.5136 145.805 91.3164 145.632 91.0561C145.462 90.7932 145.377 90.4659 145.377 90.0741C145.377 89.7441 145.438 89.4671 145.559 89.2428C145.68 89.0186 145.845 88.8381 146.055 88.7015C146.264 88.5649 146.501 88.4618 146.767 88.3922C147.035 88.3226 147.317 88.2737 147.611 88.2453C147.957 88.2092 148.236 88.1757 148.447 88.1448C148.659 88.1113 148.813 88.0623 148.908 87.9979C149.004 87.9334 149.051 87.8381 149.051 87.7118V87.6886C149.051 87.4437 148.974 87.2543 148.819 87.1202C148.667 86.9862 148.45 86.9192 148.169 86.9192C147.872 86.9192 147.636 86.9849 147.46 87.1164C147.285 87.2452 147.168 87.4076 147.112 87.6035L145.586 87.4798C145.663 87.1189 145.816 86.807 146.043 86.5441C146.27 86.2787 146.563 86.075 146.922 85.9333C147.283 85.7889 147.701 85.7168 148.176 85.7168C148.507 85.7168 148.823 85.7554 149.125 85.8327C149.43 85.9101 149.699 86.0299 149.934 86.1923C150.172 86.3547 150.359 86.5635 150.496 86.8186C150.633 87.0712 150.701 87.3741 150.701 87.7272V91.7327H149.137V90.9092H149.09C148.995 91.0948 148.867 91.2584 148.707 91.4002C148.547 91.5394 148.354 91.6489 148.13 91.7288C147.905 91.8062 147.646 91.8448 147.352 91.8448ZM147.824 90.7081C148.067 90.7081 148.281 90.6605 148.467 90.5651C148.653 90.4671 148.798 90.3357 148.904 90.1707C149.01 90.0058 149.063 89.8189 149.063 89.6101V88.9799C149.011 89.0134 148.94 89.0443 148.85 89.0727C148.762 89.0985 148.663 89.123 148.552 89.1462C148.441 89.1668 148.33 89.1861 148.219 89.2042C148.108 89.2196 148.007 89.2338 147.917 89.2467C147.723 89.275 147.554 89.3201 147.41 89.382C147.265 89.4439 147.153 89.5276 147.073 89.6333C146.993 89.7364 146.953 89.8653 146.953 90.0199C146.953 90.2442 147.034 90.4156 147.197 90.5342C147.362 90.6501 147.571 90.7081 147.824 90.7081Z" fill="#4B4B4B"/>
<path d="M154.668 91.8487C154.059 91.8487 153.535 91.7198 153.096 91.4621C152.659 91.2017 152.324 90.8409 152.089 90.3795C151.857 89.9181 151.741 89.3872 151.741 88.7866C151.741 88.1783 151.858 87.6447 152.093 87.1859C152.33 86.7246 152.667 86.365 153.103 86.1073C153.54 85.8469 154.059 85.7168 154.66 85.7168C155.179 85.7168 155.633 85.8108 156.023 85.999C156.413 86.1872 156.721 86.4514 156.948 86.7916C157.176 87.1318 157.301 87.5313 157.324 87.9901H155.767C155.724 87.6937 155.607 87.4553 155.419 87.2749C155.233 87.0919 154.989 87.0004 154.687 87.0004C154.432 87.0004 154.208 87.07 154.017 87.2091C153.829 87.3458 153.682 87.5455 153.576 87.8084C153.47 88.0713 153.417 88.3897 153.417 88.7634C153.417 89.1423 153.469 89.4645 153.572 89.73C153.678 89.9955 153.826 90.1978 154.017 90.337C154.208 90.4762 154.432 90.5458 154.687 90.5458C154.876 90.5458 155.045 90.5071 155.194 90.4298C155.347 90.3524 155.472 90.2403 155.57 90.0934C155.671 89.9439 155.736 89.7648 155.767 89.556H157.324C157.298 90.0096 157.174 90.4091 156.952 90.7545C156.733 91.0973 156.43 91.3654 156.042 91.5587C155.655 91.752 155.197 91.8487 154.668 91.8487ZM154.281 91.7018H155.039L154.978 92.0381C155.243 92.0794 155.46 92.1786 155.628 92.3358C155.798 92.4931 155.885 92.707 155.887 92.9777C155.89 93.3617 155.712 93.6671 155.353 93.894C154.994 94.1234 154.491 94.2381 153.843 94.2381L153.828 93.5035C154.153 93.5035 154.407 93.4635 154.59 93.3836C154.776 93.3063 154.873 93.1851 154.881 93.0202C154.886 92.863 154.825 92.7431 154.699 92.6606C154.572 92.5781 154.375 92.5201 154.106 92.4866L154.281 91.7018Z" fill="#4B4B4B"/>
<path d="M160.076 91.8448C159.696 91.8448 159.358 91.7791 159.061 91.6476C158.765 91.5136 158.53 91.3164 158.357 91.0561C158.186 90.7932 158.101 90.4659 158.101 90.0741C158.101 89.7441 158.162 89.4671 158.283 89.2428C158.405 89.0186 158.57 88.8381 158.779 88.7015C158.988 88.5649 159.225 88.4618 159.491 88.3922C159.76 88.3226 160.041 88.2737 160.335 88.2453C160.681 88.2092 160.96 88.1757 161.172 88.1448C161.383 88.1113 161.537 88.0623 161.632 87.9979C161.728 87.9334 161.776 87.8381 161.776 87.7118V87.6886C161.776 87.4437 161.698 87.2543 161.543 87.1202C161.391 86.9862 161.174 86.9192 160.893 86.9192C160.596 86.9192 160.36 86.9849 160.184 87.1164C160.009 87.2452 159.893 87.4076 159.836 87.6035L158.31 87.4798C158.388 87.1189 158.54 86.807 158.767 86.5441C158.994 86.2787 159.287 86.075 159.646 85.9333C160.008 85.7889 160.426 85.7168 160.901 85.7168C161.231 85.7168 161.547 85.7554 161.849 85.8327C162.154 85.9101 162.424 86.0299 162.659 86.1923C162.896 86.3547 163.083 86.5635 163.22 86.8186C163.357 87.0712 163.425 87.3741 163.425 87.7272V91.7327H161.861V90.9092H161.814C161.719 91.0948 161.591 91.2584 161.431 91.4002C161.271 91.5394 161.079 91.6489 160.854 91.7288C160.63 91.8062 160.37 91.8448 160.076 91.8448ZM160.548 90.7081C160.791 90.7081 161.005 90.6605 161.191 90.5651C161.377 90.4671 161.523 90.3357 161.629 90.1707C161.734 90.0058 161.787 89.8189 161.787 89.6101V88.9799C161.736 89.0134 161.665 89.0443 161.574 89.0727C161.487 89.0985 161.387 89.123 161.276 89.1462C161.165 89.1668 161.054 89.1861 160.943 89.2042C160.832 89.2196 160.732 89.2338 160.641 89.2467C160.448 89.275 160.279 89.3201 160.134 89.382C159.989 89.4439 159.877 89.5276 159.797 89.6333C159.717 89.7364 159.677 89.8653 159.677 90.0199C159.677 90.2442 159.758 90.4156 159.921 90.5342C160.086 90.6501 160.295 90.7081 160.548 90.7081ZM159.855 85.0634L158.938 85.0518C158.938 84.5594 159.059 84.1818 159.302 83.9189C159.547 83.656 159.845 83.5233 160.196 83.5207C160.377 83.5207 160.532 83.5503 160.661 83.6096C160.792 83.6663 160.91 83.7333 161.013 83.8107C161.119 83.888 161.219 83.9563 161.315 84.0156C161.41 84.0723 161.514 84.1006 161.625 84.1006C161.774 84.0981 161.888 84.0427 161.965 83.9344C162.045 83.8236 162.086 83.6792 162.086 83.5014L162.988 83.5284C162.983 84.0156 162.859 84.3919 162.616 84.6574C162.373 84.9203 162.078 85.053 161.729 85.0556C161.536 85.0556 161.373 85.0273 161.241 84.9706C161.112 84.9113 160.999 84.8443 160.901 84.7695C160.803 84.6922 160.707 84.6239 160.614 84.5646C160.521 84.5053 160.417 84.4757 160.301 84.4757C160.166 84.4757 160.058 84.5285 159.975 84.6342C159.895 84.7399 159.855 84.8829 159.855 85.0634Z" fill="#4B4B4B"/>
<path d="M167.392 91.8487C166.791 91.8487 166.27 91.7211 165.832 91.4659C165.395 91.2082 165.059 90.8499 164.821 90.3911C164.584 89.9297 164.465 89.3949 164.465 88.7866C164.465 88.1731 164.584 87.637 164.821 87.1782C165.059 86.7168 165.395 86.3586 165.832 86.1034C166.27 85.8456 166.791 85.7168 167.392 85.7168C167.993 85.7168 168.512 85.8456 168.949 86.1034C169.387 86.3586 169.726 86.7168 169.963 87.1782C170.201 87.637 170.319 88.1731 170.319 88.7866C170.319 89.3949 170.201 89.9297 169.963 90.3911C169.726 90.8499 169.387 91.2082 168.949 91.4659C168.512 91.7211 167.993 91.8487 167.392 91.8487ZM167.4 90.5728C167.673 90.5728 167.902 90.4955 168.085 90.3408C168.268 90.1836 168.407 89.9697 168.499 89.699C168.595 89.4284 168.643 89.1204 168.643 88.775C168.643 88.4296 168.595 88.1216 168.499 87.8509C168.407 87.5803 168.268 87.3664 168.085 87.2091C167.902 87.0519 167.673 86.9733 167.4 86.9733C167.124 86.9733 166.891 87.0519 166.703 87.2091C166.517 87.3664 166.376 87.5803 166.281 87.8509C166.188 88.1216 166.141 88.4296 166.141 88.775C166.141 89.1204 166.188 89.4284 166.281 89.699C166.376 89.9697 166.517 90.1836 166.703 90.3408C166.891 90.4955 167.124 90.5728 167.4 90.5728Z" fill="#4B4B4B"/>
<path d="M180.943 86.5867H179.247C179.216 86.3676 179.153 86.173 179.057 86.0029C178.962 85.8302 178.839 85.6832 178.69 85.5621C178.54 85.441 178.367 85.3482 178.171 85.2837C177.977 85.2193 177.767 85.1871 177.54 85.1871C177.129 85.1871 176.772 85.2889 176.467 85.4925C176.162 85.6936 175.926 85.9874 175.758 86.374C175.591 86.7581 175.507 87.2246 175.507 87.7736C175.507 88.3381 175.591 88.8124 175.758 89.1964C175.929 89.5805 176.166 89.8704 176.471 90.0663C176.775 90.2622 177.128 90.3602 177.528 90.3602C177.753 90.3602 177.96 90.3305 178.151 90.2712C178.345 90.212 178.517 90.1256 178.666 90.0122C178.816 89.8962 178.94 89.7557 179.038 89.5908C179.139 89.4258 179.208 89.2377 179.247 89.0263L180.943 89.034C180.899 89.3975 180.789 89.748 180.614 90.0857C180.441 90.4207 180.207 90.721 179.913 90.9865C179.621 91.2494 179.273 91.4582 178.868 91.6129C178.465 91.7649 178.009 91.841 177.501 91.841C176.794 91.841 176.161 91.6812 175.604 91.3615C175.049 91.0419 174.61 90.5793 174.287 89.9735C173.967 89.3678 173.807 88.6345 173.807 87.7736C173.807 86.9102 173.97 86.1756 174.295 85.5698C174.62 84.9641 175.061 84.5027 175.619 84.1857C176.177 83.8661 176.804 83.7063 177.501 83.7063C177.96 83.7063 178.386 83.7707 178.779 83.8996C179.174 84.0285 179.523 84.2166 179.828 84.4641C180.132 84.7089 180.38 85.0092 180.571 85.3649C180.765 85.7206 180.889 86.1279 180.943 86.5867Z" fill="#4B4B4B"/>
<path d="M182.114 91.7327V85.7941H183.713V86.8302H183.775C183.884 86.4617 184.066 86.1833 184.321 85.9951C184.577 85.8044 184.871 85.709 185.204 85.709C185.287 85.709 185.376 85.7142 185.471 85.7245C185.567 85.7348 185.651 85.749 185.723 85.767V87.2285C185.646 87.2053 185.538 87.1847 185.402 87.1666C185.265 87.1486 185.14 87.1396 185.026 87.1396C184.783 87.1396 184.567 87.1924 184.376 87.2981C184.187 87.4012 184.037 87.5455 183.926 87.7311C183.818 87.9167 183.764 88.1306 183.764 88.3729V91.7327H182.114Z" fill="#4B4B4B"/>
<path d="M186.576 91.7327V85.7941H188.225V91.7327H186.576ZM187.404 85.0286C187.159 85.0286 186.949 84.9474 186.773 84.785C186.6 84.62 186.514 84.4228 186.514 84.1934C186.514 83.9666 186.6 83.772 186.773 83.6096C186.949 83.4447 187.159 83.3622 187.404 83.3622C187.65 83.3622 187.859 83.4447 188.032 83.6096C188.207 83.772 188.295 83.9666 188.295 84.1934C188.295 84.4228 188.207 84.62 188.032 84.785C187.859 84.9474 187.65 85.0286 187.404 85.0286Z" fill="#4B4B4B"/>
<path d="M191.242 91.8448C190.863 91.8448 190.525 91.7791 190.228 91.6476C189.931 91.5136 189.696 91.3164 189.523 91.0561C189.353 90.7932 189.268 90.4659 189.268 90.0741C189.268 89.7441 189.328 89.4671 189.45 89.2428C189.571 89.0186 189.736 88.8381 189.945 88.7015C190.154 88.5649 190.392 88.4618 190.658 88.3922C190.926 88.3226 191.208 88.2737 191.502 88.2453C191.848 88.2092 192.127 88.1757 192.338 88.1448C192.55 88.1113 192.704 88.0623 192.799 87.9979C192.895 87.9334 192.942 87.8381 192.942 87.7118V87.6886C192.942 87.4437 192.865 87.2543 192.71 87.1202C192.558 86.9862 192.341 86.9192 192.059 86.9192C191.763 86.9192 191.526 86.9849 191.351 87.1164C191.175 87.2452 191.059 87.4076 191.002 87.6035L189.477 87.4798C189.554 87.1189 189.707 86.807 189.934 86.5441C190.161 86.2787 190.454 86.075 190.813 85.9333C191.174 85.7889 191.592 85.7168 192.067 85.7168C192.398 85.7168 192.714 85.7554 193.016 85.8327C193.32 85.9101 193.59 86.0299 193.825 86.1923C194.063 86.3547 194.25 86.5635 194.387 86.8186C194.523 87.0712 194.592 87.3741 194.592 87.7272V91.7327H193.027V90.9092H192.981C192.885 91.0948 192.758 91.2584 192.598 91.4002C192.438 91.5394 192.245 91.6489 192.021 91.7288C191.796 91.8062 191.537 91.8448 191.242 91.8448ZM191.715 90.7081C191.958 90.7081 192.172 90.6605 192.358 90.5651C192.543 90.4671 192.689 90.3357 192.795 90.1707C192.901 90.0058 192.954 89.8189 192.954 89.6101V88.9799C192.902 89.0134 192.831 89.0443 192.741 89.0727C192.653 89.0985 192.554 89.123 192.443 89.1462C192.332 89.1668 192.221 89.1861 192.11 89.2042C191.999 89.2196 191.898 89.2338 191.808 89.2467C191.614 89.275 191.445 89.3201 191.301 89.382C191.156 89.4439 191.044 89.5276 190.964 89.6333C190.884 89.7364 190.844 89.8653 190.844 90.0199C190.844 90.2442 190.925 90.4156 191.088 90.5342C191.253 90.6501 191.462 90.7081 191.715 90.7081Z" fill="#4B4B4B"/>
<path d="M199.035 85.7941V87.0313H195.453V85.7941H199.035ZM196.266 84.3713H197.916V89.9078C197.916 90.0599 197.939 90.1785 197.986 90.2635C198.032 90.346 198.097 90.404 198.179 90.4375C198.264 90.471 198.362 90.4878 198.473 90.4878C198.551 90.4878 198.628 90.4813 198.706 90.4684C198.783 90.453 198.843 90.4414 198.884 90.4336L199.143 91.6592C199.061 91.685 198.944 91.7147 198.795 91.7482C198.645 91.7843 198.463 91.8062 198.249 91.8139C197.851 91.8294 197.503 91.7765 197.203 91.6554C196.907 91.5342 196.676 91.3461 196.51 91.0909C196.345 90.8357 196.264 90.5135 196.266 90.1243V84.3713Z" fill="#4B4B4B"/>
<path d="M200.109 91.7327V85.7941H201.759V91.7327H200.109ZM200.938 85.0286C200.693 85.0286 200.482 84.9474 200.307 84.785C200.134 84.62 200.047 84.4228 200.047 84.1934C200.047 83.9666 200.134 83.772 200.307 83.6096C200.482 83.4447 200.693 83.3622 200.938 83.3622C201.183 83.3622 201.392 83.4447 201.565 83.6096C201.741 83.772 201.828 83.9666 201.828 84.1934C201.828 84.4228 201.741 84.62 201.565 84.785C201.392 84.9474 201.183 85.0286 200.938 85.0286Z" fill="#4B4B4B"/>
<path d="M208.625 85.7941L206.546 91.7327H204.687L202.608 85.7941H204.35L205.585 90.0431H205.647L206.879 85.7941H208.625Z" fill="#4B4B4B"/>
<path d="M211.005 91.8448C210.626 91.8448 210.287 91.7791 209.991 91.6476C209.694 91.5136 209.459 91.3164 209.286 91.0561C209.116 90.7932 209.03 90.4659 209.03 90.0741C209.03 89.7441 209.091 89.4671 209.212 89.2428C209.334 89.0186 209.499 88.8381 209.708 88.7015C209.917 88.5649 210.155 88.4618 210.42 88.3922C210.689 88.3226 210.97 88.2737 211.264 88.2453C211.61 88.2092 211.889 88.1757 212.101 88.1448C212.312 88.1113 212.466 88.0623 212.562 87.9979C212.657 87.9334 212.705 87.8381 212.705 87.7118V87.6886C212.705 87.4437 212.627 87.2543 212.473 87.1202C212.32 86.9862 212.103 86.9192 211.822 86.9192C211.525 86.9192 211.289 86.9849 211.113 87.1164C210.938 87.2452 210.822 87.4076 210.765 87.6035L209.239 87.4798C209.317 87.1189 209.469 86.807 209.696 86.5441C209.923 86.2787 210.216 86.075 210.575 85.9333C210.937 85.7889 211.355 85.7168 211.83 85.7168C212.16 85.7168 212.476 85.7554 212.778 85.8327C213.083 85.9101 213.353 86.0299 213.588 86.1923C213.825 86.3547 214.012 86.5635 214.149 86.8186C214.286 87.0712 214.354 87.3741 214.354 87.7272V91.7327H212.79V90.9092H212.744C212.648 91.0948 212.52 91.2584 212.36 91.4002C212.2 91.5394 212.008 91.6489 211.783 91.7288C211.559 91.8062 211.299 91.8448 211.005 91.8448ZM211.477 90.7081C211.72 90.7081 211.934 90.6605 212.12 90.5651C212.306 90.4671 212.452 90.3357 212.558 90.1707C212.664 90.0058 212.716 89.8189 212.716 89.6101V88.9799C212.665 89.0134 212.594 89.0443 212.504 89.0727C212.416 89.0985 212.316 89.123 212.205 89.1462C212.094 89.1668 211.983 89.1861 211.872 89.2042C211.761 89.2196 211.661 89.2338 211.57 89.2467C211.377 89.275 211.208 89.3201 211.063 89.382C210.919 89.4439 210.806 89.5276 210.726 89.6333C210.646 89.7364 210.606 89.8653 210.606 90.0199C210.606 90.2442 210.688 90.4156 210.85 90.5342C211.015 90.6501 211.224 90.7081 211.477 90.7081Z" fill="#4B4B4B"/>
</g>
<defs>
<clipPath id="clip0_131_80">
<rect width="213.917" height="93.4762" fill="white" transform="translate(0.4375 0.761963)"/>
</clipPath>
</defs>
</svg>
