<svg width="200" height="45" viewBox="0 0 200 45" fill="none" xmlns="http://www.w3.org/2000/svg">
<g clip-path="url(#clip0_218_13)">
<path d="M22.9889 38.4092V18.4264C22.9889 14.0252 20.2834 10.0124 16.2165 8.89103C14.5919 8.43841 12.957 8.50935 11.4573 8.99912C10.2683 9.36054 9.42727 9.87733 8.9071 10.2489C6.81289 11.7486 5.55299 14.1941 5.46179 14.9068C6.92098 14.5217 9.09963 14.2346 11.5181 14.998C17.4258 16.8558 19.4828 23.2938 19.6112 23.841C19.7598 24.4726 19.8611 25.1245 19.9051 25.8473C19.9355 26.2358 19.9456 26.6512 19.9456 27.0971V36.5987C19.9456 36.5987 19.9355 36.592 19.9321 36.5886V37.808C19.9321 37.808 19.9422 37.8147 19.9456 37.8181C20.2766 38.0174 20.6144 38.2167 20.9522 38.416C21.5939 38.7976 22.2526 39.1861 22.918 39.5914C22.9349 39.4056 22.9484 39.2131 22.9619 39.0138C22.9754 38.8078 22.9822 38.6051 22.9889 38.4126V38.4092Z" fill="#D3A132"/>
<path d="M17.3312 27.0836C17.3312 26.2392 17.2771 25.388 17.0812 24.5705C16.3077 21.3684 14.0852 18.879 11.2918 17.8995V17.8927C10.7682 17.7137 9.99809 17.5077 9.05232 17.4604C9.05232 17.4604 8.41731 17.4266 7.80256 17.4942C3.82019 17.9164 0.705901 21.2299 0.057373 25.3677C0.357993 25.1279 4.44507 22.0001 8.95775 23.9321C11.9437 25.2089 13.359 27.9382 13.7238 28.7015C14.835 31.0356 14.835 33.2243 14.7776 34.2106C15.6626 34.8862 16.5442 35.5584 17.4291 36.2339C17.3954 33.1838 17.365 30.1337 17.3312 27.087V27.0836Z" fill="#D3A132"/>
<path d="M24.2556 38.4092V18.4264C24.2556 14.0252 26.9612 10.0124 31.028 8.89103C32.6527 8.43841 34.2875 8.50935 35.7873 8.99912C36.9762 9.36054 37.8173 9.87733 38.3375 10.2489C40.4317 11.7486 41.6916 14.1941 41.7828 14.9068C40.3236 14.5217 38.1449 14.2346 35.7265 14.998C29.8188 16.8558 27.7617 23.2938 27.6334 23.841C27.4847 24.4726 27.3834 25.1245 27.3395 25.8473C27.3091 26.2358 27.299 26.6512 27.299 27.0971V36.5987C27.299 36.5987 27.3091 36.592 27.3125 36.5886V37.808C27.3125 37.808 27.3023 37.8147 27.299 37.8181C26.9679 38.0174 26.6302 38.2167 26.2924 38.416C25.6506 38.7976 24.992 39.1861 24.3265 39.5914C24.3097 39.4056 24.2961 39.2131 24.2826 39.0138C24.2691 38.8078 24.2624 38.6051 24.2556 38.4126V38.4092Z" fill="#D3A132"/>
<path d="M29.9134 27.0836C29.9134 26.2392 29.9674 25.388 30.1633 24.5705C30.9368 21.3684 33.1594 18.879 35.9528 17.8995V17.8927C36.4764 17.7137 37.2465 17.5077 38.1923 17.4604C38.1923 17.4604 38.8273 17.4266 39.442 17.4942C43.4244 17.9198 46.5387 21.2299 47.1872 25.3677C46.8866 25.1279 42.7995 22.0001 38.2868 23.9321C35.3009 25.2089 33.8856 27.9382 33.5208 28.7015C32.4095 31.0356 32.4095 33.2243 32.467 34.2106C31.582 34.8862 30.7004 35.5584 29.8154 36.2339C29.8492 33.1838 29.8796 30.1337 29.9134 27.087V27.0836Z" fill="#D3A132"/>
<path d="M35.9865 2.03082C35.4596 10.384 36.1014 16.0789 36.8377 19.8282C37.0775 21.0543 37.4862 22.8648 36.9661 24.9793C36.1419 28.3367 33.9329 29.9446 30.8355 32.7076C29.0385 34.3086 26.3093 36.8115 23.6172 40.6689C21.0062 36.7946 18.125 34.3019 16.3381 32.7076C13.2509 29.9513 11.1026 28.3942 10.2717 25.0569C9.74478 22.9459 10.1569 21.1252 10.4001 19.9059C11.1499 16.1464 11.8153 10.438 11.3593 2.03082M9.33607 0.426392C9.33607 0.426392 10.6973 7.09069 8.72808 19.2641C7.51546 26.7526 10.1163 30.8599 15.5207 34.7916C23.1646 40.348 23.1612 43.1786 23.6206 44.5702C24.08 43.1786 24.0766 40.3447 31.717 34.7916C37.1248 30.8599 39.7257 26.7526 38.5131 19.2641C36.5405 7.09069 37.9017 0.426392 37.9017 0.426392" fill="#D3A132"/>
<path d="M23.597 11.5257C23.2085 10.1509 21.7155 7.57372 19.6112 6.37124C19.6112 6.37124 22.533 6.9691 23.5564 10.8434C23.5091 10.0158 23.5834 9.12748 23.097 7.9858C21.675 4.63507 17.571 4.09126 16.5611 4.51347C15.8923 4.79383 16.4868 5.30049 16.4868 5.30049C16.5341 5.11134 17.5035 4.51347 17.6656 6.03346C17.8278 7.55345 18.5269 7.89122 18.5269 7.89122C18.6148 9.19166 20.3611 8.50935 20.3611 8.50935C20.074 9.13424 20.3408 9.47539 20.3408 9.47539C21.9723 9.13761 23.0329 11.6473 23.0329 11.6473C23.3031 11.9074 23.705 12.5998 23.705 12.5998C23.651 12.2147 23.6206 11.8668 23.597 11.5324V11.5257Z" fill="url(#paint0_linear_218_13)"/>
<path d="M30.7949 4.48645C29.785 4.07099 25.681 4.64183 24.2793 7.99931C23.7996 9.14437 23.8807 10.0327 23.8401 10.8603C24.84 6.97923 27.7583 6.36448 27.7583 6.36448C25.6608 7.58047 24.1847 10.1678 23.803 11.5426C23.7827 11.8804 23.7557 12.2283 23.7017 12.6133C23.7017 12.6133 24.1002 11.9175 24.3671 11.6574C24.3671 11.6574 25.4142 9.14099 27.0456 9.46864C27.0456 9.46864 27.3091 9.12748 27.0186 8.5026C27.0186 8.5026 28.7683 9.17477 28.8494 7.87434C28.8494 7.87434 29.5485 7.53319 29.7005 6.0132C29.8525 4.49321 30.8253 5.08769 30.8726 5.27347C30.8726 5.27347 31.4637 4.76005 30.7916 4.48645H30.7949Z" fill="url(#paint1_linear_218_13)"/>
<path d="M25.5392 3.70282H21.8203C22.4249 4.73641 23.0295 5.77338 23.6342 6.80697C24.2692 5.77338 24.9042 4.73641 25.5392 3.70282Z" fill="url(#paint2_linear_218_13)"/>
<path d="M59.6139 34.9706C58.8675 34.3289 58.6851 33.4844 58.6851 32.7819C58.6851 32.2853 58.8675 31.4274 59.5464 30.7653C60.0058 30.3229 60.7016 29.9749 61.8737 29.9749C62.1776 29.9749 62.6134 30.002 62.9849 30.0628C63.272 30.1134 63.5152 30.1675 63.7686 30.1742C63.8463 30.1742 63.8632 30.208 63.8632 30.2519C63.8632 30.3127 63.8463 30.4005 63.8294 30.6708C63.8192 30.914 63.8192 31.3227 63.8125 31.4274C63.8023 31.5388 63.7686 31.5828 63.7247 31.5828C63.674 31.5828 63.6639 31.5321 63.6639 31.4274C63.6639 31.1403 63.5423 30.8464 63.343 30.6876C63.0728 30.4613 62.5188 30.2789 61.8399 30.2789C60.857 30.2789 60.3874 30.539 60.1206 30.7924C59.5565 31.3125 59.4349 31.9746 59.4349 32.7211C59.4349 34.1363 60.5563 35.3962 62.1912 35.3962C62.7654 35.3962 63.1471 35.3523 63.4511 35.0483C63.6166 34.8828 63.7213 34.5687 63.7449 34.4302C63.7618 34.3525 63.7719 34.3255 63.8226 34.3255C63.8564 34.3255 63.8935 34.3762 63.8935 34.4302C63.8935 34.4842 63.7888 35.126 63.7111 35.376C63.6672 35.5145 63.6504 35.5415 63.5186 35.5921C63.2045 35.7137 62.6336 35.7577 62.1371 35.7577C60.9887 35.7577 60.2152 35.4874 59.6173 34.9673L59.6139 34.9706Z" fill="#F3F3F3"/>
<path d="M66.5755 32.2178C66.5755 31.0693 66.5755 30.8633 66.5586 30.6269C66.5417 30.3735 66.4978 30.2519 66.2445 30.2181C66.1837 30.208 66.0519 30.2013 65.9844 30.2013C65.9574 30.2013 65.9236 30.1675 65.9236 30.1405C65.9236 30.0965 65.9574 30.0797 66.0452 30.0797C66.3931 30.0797 66.8896 30.0965 66.9302 30.0965C66.9808 30.0965 68.5819 30.1067 68.7541 30.0965C68.9028 30.0864 69.0412 30.0628 69.102 30.0526C69.1358 30.0425 69.173 30.0189 69.2068 30.0189C69.2338 30.0189 69.2405 30.0526 69.2405 30.0898C69.2405 30.1405 69.1966 30.2283 69.1797 30.4377C69.1696 30.5086 69.1527 30.8363 69.1358 30.9241C69.1257 30.9579 69.102 31.0018 69.0649 31.0018C69.021 31.0018 69.0041 30.968 69.0041 30.9072C69.0041 30.8565 68.994 30.7349 68.9602 30.6471C68.9095 30.5255 68.8284 30.4749 68.413 30.4208C68.2813 30.4039 67.3963 30.3938 67.3085 30.3938C67.2747 30.3938 67.2646 30.4208 67.2646 30.4715V32.4779C67.2646 32.5285 67.2646 32.5556 67.3085 32.5556C67.403 32.5556 68.413 32.5556 68.5853 32.5387C68.7677 32.5218 68.8791 32.5116 68.9602 32.434C69.0109 32.3833 69.048 32.3394 69.0717 32.3394C69.0953 32.3394 69.1156 32.3563 69.1156 32.4002C69.1156 32.4441 69.0716 32.5657 69.0548 32.8089C69.0379 32.9575 69.021 33.2345 69.021 33.2885C69.021 33.3493 69.0041 33.427 68.9501 33.427C68.9163 33.427 68.8994 33.4 68.8994 33.3561C68.8994 33.2851 68.8994 33.2075 68.8656 33.1129C68.8386 33.0082 68.771 32.9203 68.4738 32.8866C68.2644 32.8595 67.447 32.8528 67.3186 32.8528C67.2747 32.8528 67.2679 32.8798 67.2679 32.9035V33.5216C67.2679 33.7749 67.2578 34.6329 67.2679 34.7815C67.2848 35.278 67.4233 35.3726 68.1799 35.3726C68.3792 35.3726 68.744 35.3726 68.9433 35.2949C69.1426 35.2071 69.2473 35.0787 69.2912 34.7815C69.3081 34.6937 69.325 34.67 69.3689 34.67C69.4128 34.67 69.4196 34.7308 69.4196 34.7815C69.4196 34.8322 69.3588 35.3388 69.3148 35.4942C69.2642 35.6867 69.1831 35.6867 68.8892 35.6867C68.315 35.6867 67.8725 35.6698 67.5584 35.6597C67.2375 35.6428 67.0382 35.6428 66.9234 35.6428C66.9065 35.6428 66.7579 35.6428 66.5924 35.6529C66.4438 35.6631 66.2715 35.6698 66.1499 35.6698C66.0722 35.6698 66.0283 35.6529 66.0283 35.609C66.0283 35.582 66.0452 35.5482 66.0891 35.5482C66.16 35.5482 66.2546 35.5212 66.3222 35.5145C66.4708 35.4874 66.4877 35.3422 66.5214 35.1226C66.5654 34.8186 66.5654 34.2377 66.5654 33.525V32.2212L66.5755 32.2178Z" fill="#F3F3F3"/>
<path d="M72.5541 34.6599C72.571 35.2679 72.642 35.4503 72.848 35.5043C72.9865 35.5381 73.1621 35.5482 73.2297 35.5482C73.2635 35.5482 73.2905 35.5753 73.2905 35.609C73.2905 35.6529 73.2398 35.6698 73.152 35.6698C72.7163 35.6698 72.4123 35.6428 72.3447 35.6428C72.2772 35.6428 71.9529 35.6698 71.605 35.6698C71.5273 35.6698 71.4834 35.6597 71.4834 35.609C71.4834 35.5753 71.5104 35.5482 71.5442 35.5482C71.605 35.5482 71.7435 35.5381 71.8583 35.5043C72.0509 35.4537 72.0745 35.251 72.0745 34.5822V30.3499C72.0745 30.056 72.1184 29.9749 72.1792 29.9749C72.267 29.9749 72.3954 30.1236 72.4731 30.2013C72.5947 30.3229 73.706 31.5051 74.8882 32.7211C75.6448 33.5047 76.4622 34.3795 76.6953 34.6227L76.6176 30.9207C76.6074 30.4411 76.5669 30.2789 76.3305 30.235C76.192 30.208 76.0163 30.2013 75.9555 30.2013C75.9049 30.2013 75.8947 30.1573 75.8947 30.1303C75.8947 30.0864 75.9555 30.0797 76.0434 30.0797C76.3913 30.0797 76.7561 30.0965 76.8439 30.0965C76.9317 30.0965 77.1817 30.0797 77.4958 30.0797C77.5735 30.0797 77.6343 30.0898 77.6343 30.1303C77.6343 30.1573 77.6005 30.2013 77.5465 30.2013C77.5127 30.2013 77.4519 30.2013 77.3641 30.2181C77.1107 30.2688 77.0938 30.4174 77.0938 30.8599L77.077 35.1868C77.077 35.6732 77.0668 35.7171 77.0162 35.7171C76.9385 35.7171 76.8608 35.6563 76.4352 35.2645C76.3575 35.1936 75.253 34.1093 74.4457 33.2649C73.5607 32.336 72.6994 31.4308 72.4629 31.1707L72.5508 34.6565L72.5541 34.6599Z" fill="#F3F3F3"/>
<path d="M82.0084 33.5216C82.0084 34.2343 82.0084 34.8153 82.0422 35.1193C82.0692 35.3354 82.103 35.4739 82.3394 35.5111C82.4441 35.528 82.6164 35.5449 82.6873 35.5449C82.738 35.5449 82.7481 35.5786 82.7481 35.6057C82.7481 35.6394 82.7144 35.6665 82.6265 35.6665C82.2111 35.6665 81.7213 35.6394 81.6808 35.6394C81.647 35.6394 81.1167 35.6665 80.8904 35.6665C80.8026 35.6665 80.7688 35.6496 80.7688 35.6057C80.7688 35.5786 80.7857 35.555 80.8296 35.555C80.9005 35.555 80.985 35.5381 81.0559 35.5212C81.2113 35.4874 81.2552 35.3388 81.2822 35.1226C81.316 34.8187 81.316 34.2377 81.316 33.525V30.4242L80.2114 30.4411C79.7352 30.4512 79.5494 30.5019 79.4379 30.6742C79.3501 30.8059 79.3434 30.8565 79.3163 30.9072C79.2995 30.968 79.2724 30.9781 79.2387 30.9781C79.2218 30.9781 79.188 30.9613 79.188 30.9173C79.188 30.8397 79.3434 30.1776 79.3535 30.1168C79.3704 30.0729 79.4042 29.9783 79.4312 29.9783C79.4819 29.9783 79.5629 30.0391 79.769 30.0662C79.9851 30.0932 80.2824 30.0999 80.3702 30.0999H83.2548C83.5081 30.0999 83.6804 30.083 83.802 30.0662C83.9135 30.0493 83.9844 30.0324 84.0182 30.0324C84.052 30.0324 84.0519 30.0763 84.0519 30.1202C84.0519 30.3465 84.0249 30.8768 84.0249 30.9646C84.0249 31.0254 83.9912 31.0592 83.954 31.0592C83.9168 31.0592 83.9033 31.0322 83.8932 30.9275L83.8831 30.8498C83.856 30.6235 83.6905 30.458 82.9609 30.4411L82.005 30.4242V33.525L82.0084 33.5216Z" fill="#F3F3F3"/>
<path d="M86.5076 32.2178C86.5076 31.0693 86.5076 30.8633 86.4907 30.6268C86.4738 30.3735 86.4299 30.2519 86.1766 30.2181C86.1158 30.208 85.9841 30.2013 85.9165 30.2013C85.8895 30.2013 85.8557 30.1675 85.8557 30.1405C85.8557 30.0965 85.8895 30.0797 85.9773 30.0797C86.3252 30.0797 86.8386 30.0965 86.8826 30.0965C86.9602 30.0965 87.6054 30.0797 87.8385 30.0797C88.3248 30.0797 88.8653 30.1236 89.2639 30.4005C89.4564 30.539 89.7942 30.8971 89.7942 31.4071C89.7942 31.9543 89.5679 32.4846 88.8552 33.0926C89.48 33.8762 90.0104 34.545 90.4528 35.0044C90.8615 35.4199 91.1149 35.4908 91.304 35.5178C91.4526 35.5449 91.5303 35.5449 91.5742 35.5449C91.6182 35.5449 91.6452 35.5786 91.6452 35.6057C91.6452 35.6496 91.6013 35.6665 91.4628 35.6665H90.9865C90.5508 35.6665 90.3616 35.6225 90.1691 35.5178C89.8381 35.3456 89.5611 34.9875 89.1254 34.4302C88.8045 34.0316 88.4633 33.552 88.3012 33.3527C88.2674 33.3189 88.2505 33.3088 88.1965 33.3088L87.2237 33.2919C87.1899 33.2919 87.173 33.3088 87.173 33.3527V33.525C87.173 34.2377 87.173 34.8119 87.2068 35.1159C87.2338 35.3321 87.2777 35.4705 87.5108 35.5077C87.6155 35.5246 87.781 35.5415 87.8486 35.5415C87.8993 35.5415 87.9094 35.5753 87.9094 35.6023C87.9094 35.6361 87.8756 35.6631 87.7878 35.6631C87.3723 35.6631 86.8826 35.636 86.8488 35.636C86.8386 35.636 86.3286 35.6631 86.0922 35.6631C86.0145 35.6631 85.9706 35.6462 85.9706 35.6023C85.9706 35.5753 85.9874 35.5415 86.0314 35.5415C86.1023 35.5415 86.1969 35.5246 86.2644 35.5077C86.413 35.4739 86.4299 35.3354 86.4637 35.1159C86.5076 34.8119 86.5076 34.2309 86.5076 33.5182V32.2144V32.2178ZM87.1697 32.8427C87.1697 32.8866 87.1865 32.9136 87.2203 32.9372C87.3318 32.998 87.7236 33.0487 88.0648 33.0487C88.2472 33.0487 88.4566 33.0386 88.639 32.917C88.8991 32.7447 89.0984 32.3529 89.0984 31.7888C89.0984 30.8667 88.5951 30.3364 87.7777 30.3364C87.5513 30.3364 87.3081 30.3634 87.2305 30.3803C87.1967 30.3972 87.1697 30.4242 87.1697 30.4681V32.8393V32.8427Z" fill="#F3F3F3"/>
<path d="M95.5026 29.9749C97.2218 29.9749 98.5257 31.0254 98.5257 32.7481C98.5257 34.4707 97.2995 35.7644 95.4587 35.7644C93.3645 35.7644 92.4694 34.1904 92.4694 32.8629C92.4694 31.674 93.3915 29.9783 95.5026 29.9783V29.9749ZM95.6748 35.457C96.3605 35.457 97.742 35.0922 97.742 32.9541C97.742 31.1808 96.6645 30.2519 95.4553 30.2519C94.1785 30.2519 93.2564 31.0524 93.2564 32.6603C93.2564 34.3795 94.29 35.457 95.6715 35.457H95.6748Z" fill="#F3F3F3"/>
<path d="M104.923 32.2178C104.923 31.0693 104.923 30.8633 104.906 30.6269C104.889 30.3735 104.845 30.2519 104.592 30.2181C104.531 30.208 104.4 30.2013 104.332 30.2013C104.305 30.2013 104.271 30.1675 104.271 30.1405C104.271 30.0965 104.305 30.0797 104.393 30.0797C104.741 30.0797 105.237 30.0965 105.278 30.0965C105.328 30.0965 106.93 30.1067 107.102 30.0965C107.25 30.0864 107.389 30.0628 107.45 30.0526C107.483 30.0425 107.521 30.0189 107.554 30.0189C107.581 30.0189 107.588 30.0526 107.588 30.0898C107.588 30.1405 107.544 30.2283 107.527 30.4377C107.517 30.5086 107.5 30.8363 107.483 30.9241C107.473 30.9579 107.45 31.0018 107.413 31.0018C107.369 31.0018 107.352 30.968 107.352 30.9072C107.352 30.8565 107.342 30.7349 107.308 30.6471C107.257 30.5255 107.176 30.4749 106.761 30.4208C106.629 30.4039 105.744 30.3938 105.656 30.3938C105.622 30.3938 105.612 30.4208 105.612 30.4715V32.4779C105.612 32.5285 105.612 32.5556 105.656 32.5556C105.751 32.5556 106.761 32.5556 106.933 32.5387C107.115 32.5218 107.227 32.5116 107.308 32.434C107.359 32.3833 107.396 32.3394 107.419 32.3394C107.443 32.3394 107.463 32.3563 107.463 32.4002C107.463 32.4441 107.419 32.5657 107.402 32.8089C107.386 32.9575 107.369 33.2345 107.369 33.2885C107.369 33.3493 107.352 33.427 107.298 33.427C107.264 33.427 107.247 33.4 107.247 33.3561C107.247 33.2851 107.247 33.2075 107.213 33.1129C107.186 33.0082 107.119 32.9203 106.821 32.8866C106.612 32.8595 105.795 32.8528 105.666 32.8528C105.622 32.8528 105.616 32.8798 105.616 32.9035V33.5216C105.616 33.7749 105.605 34.6329 105.616 34.7815C105.632 35.278 105.771 35.3726 106.528 35.3726C106.727 35.3726 107.092 35.3726 107.291 35.2949C107.49 35.2071 107.595 35.0787 107.639 34.7815C107.656 34.6937 107.673 34.67 107.717 34.67C107.76 34.67 107.767 34.7308 107.767 34.7815C107.767 34.8322 107.706 35.3388 107.662 35.4942C107.612 35.6867 107.531 35.6867 107.237 35.6867C106.663 35.6867 106.22 35.6698 105.906 35.6597C105.585 35.6428 105.386 35.6428 105.271 35.6428C105.254 35.6428 105.106 35.6428 104.94 35.6529C104.791 35.6631 104.619 35.6698 104.498 35.6698C104.42 35.6698 104.376 35.6529 104.376 35.609C104.376 35.582 104.393 35.5482 104.437 35.5482C104.508 35.5482 104.602 35.5212 104.67 35.5145C104.818 35.4874 104.835 35.3422 104.869 35.1226C104.913 34.8186 104.913 34.2377 104.913 33.525V32.2212L104.923 32.2178Z" fill="#F3F3F3"/>
<path d="M116.306 34.7106C116.333 34.9706 116.384 35.3726 116.698 35.4739C116.914 35.5449 117.117 35.5449 117.194 35.5449C117.228 35.5449 117.255 35.5617 117.255 35.5955C117.255 35.6394 117.184 35.6665 117.1 35.6665C116.928 35.6665 116.073 35.6496 115.796 35.6225C115.614 35.6057 115.58 35.5786 115.58 35.5449C115.58 35.5178 115.597 35.4942 115.631 35.4841C115.674 35.4739 115.681 35.3625 115.664 35.224L115.3 31.4882H115.283L113.442 35.2611C113.286 35.582 113.242 35.6529 113.172 35.6529C113.101 35.6529 113.06 35.582 112.911 35.3152C112.712 34.9504 112.209 34.0046 112.016 33.6026C111.79 33.1331 111.172 31.8901 111.044 31.5861H111.01L110.716 34.9233C110.706 35.0348 110.706 35.1767 110.706 35.2983C110.706 35.4097 110.777 35.4807 110.888 35.5077C111.02 35.5415 111.131 35.5516 111.182 35.5516C111.209 35.5516 111.243 35.5786 111.243 35.6023C111.243 35.6529 111.192 35.6732 111.104 35.6732C110.817 35.6732 110.452 35.6462 110.392 35.6462C110.321 35.6462 109.956 35.6732 109.75 35.6732C109.672 35.6732 109.618 35.6563 109.618 35.6023C109.618 35.5753 109.652 35.5516 109.696 35.5516C109.757 35.5516 109.807 35.5415 109.922 35.5246C110.175 35.4807 110.182 35.2105 110.216 34.9335L110.773 30.1101C110.783 30.0324 110.817 29.9783 110.861 29.9783C110.912 29.9783 110.973 30.0053 111.017 30.0898L113.327 34.6768L115.553 30.0965C115.587 30.0256 115.624 29.9749 115.674 29.9749C115.725 29.9749 115.769 30.0357 115.786 30.1742L116.306 34.7106Z" fill="#F3F3F3"/>
<path d="M119.478 32.2178C119.478 31.0693 119.478 30.8633 119.461 30.6268C119.444 30.3735 119.4 30.2519 119.147 30.2181C119.086 30.208 118.954 30.2013 118.887 30.2013C118.86 30.2013 118.826 30.1675 118.826 30.1405C118.826 30.0965 118.86 30.0797 118.948 30.0797C119.295 30.0797 119.772 30.0965 119.832 30.0965C119.998 30.0965 120.572 30.0797 120.92 30.0797C121.903 30.0797 122.251 30.3836 122.379 30.4985C122.552 30.6539 122.761 30.9849 122.761 31.3835C122.761 32.4441 121.96 33.1466 120.788 33.1466C120.744 33.1466 120.616 33.1466 120.572 33.1365C120.538 33.1365 120.495 33.1027 120.495 33.0656C120.495 33.0048 120.538 32.9879 120.694 32.9879C121.518 32.9879 122.109 32.4677 122.109 31.7989C122.109 31.5557 122.082 31.0761 121.673 30.6775C121.275 30.2789 120.812 30.3228 120.64 30.3228C120.508 30.3228 120.292 30.3566 120.214 30.3735C120.17 30.3836 120.153 30.4343 120.153 30.512V33.5182C120.153 34.2309 120.153 34.8119 120.187 35.1159C120.214 35.3321 120.258 35.4705 120.491 35.5077C120.596 35.5246 120.761 35.5415 120.829 35.5415C120.873 35.5415 120.89 35.5753 120.89 35.6023C120.89 35.6361 120.856 35.6631 120.768 35.6631C120.353 35.6631 119.846 35.636 119.812 35.636C119.785 35.636 119.292 35.6631 119.056 35.6631C118.978 35.6631 118.934 35.6462 118.934 35.6023C118.934 35.5753 118.951 35.5415 118.995 35.5415C119.066 35.5415 119.16 35.5246 119.228 35.5077C119.377 35.4739 119.393 35.3354 119.427 35.1159C119.471 34.8119 119.471 34.2309 119.471 33.5182V32.2144L119.478 32.2178Z" fill="#F3F3F3"/>
<path d="M125.318 32.2178C125.318 31.0693 125.318 30.8633 125.301 30.6268C125.284 30.3735 125.24 30.2519 124.987 30.2181C124.926 30.208 124.794 30.2013 124.727 30.2013C124.7 30.2013 124.666 30.1675 124.666 30.1405C124.666 30.0965 124.7 30.0797 124.788 30.0797C125.136 30.0797 125.649 30.0965 125.693 30.0965C125.771 30.0965 126.416 30.0797 126.649 30.0797C127.135 30.0797 127.676 30.1236 128.074 30.4005C128.267 30.539 128.604 30.8971 128.604 31.4071C128.604 31.9543 128.378 32.4846 127.665 33.0926C128.29 33.8762 128.821 34.545 129.263 35.0044C129.672 35.4199 129.925 35.4908 130.114 35.5178C130.263 35.5449 130.341 35.5449 130.385 35.5449C130.428 35.5449 130.455 35.5786 130.455 35.6057C130.455 35.6496 130.412 35.6665 130.273 35.6665H129.797C129.361 35.6665 129.172 35.6225 128.979 35.5178C128.648 35.3456 128.371 34.9875 127.936 34.4302C127.615 34.0316 127.274 33.552 127.112 33.3527C127.078 33.3189 127.061 33.3088 127.007 33.3088L126.034 33.2919C126 33.2919 125.983 33.3088 125.983 33.3527V33.525C125.983 34.2377 125.983 34.8119 126.017 35.1159C126.044 35.3321 126.088 35.4705 126.321 35.5077C126.426 35.5246 126.591 35.5415 126.659 35.5415C126.71 35.5415 126.72 35.5753 126.72 35.6023C126.72 35.6361 126.686 35.6631 126.598 35.6631C126.183 35.6631 125.693 35.636 125.659 35.636C125.649 35.636 125.139 35.6631 124.902 35.6631C124.825 35.6631 124.781 35.6462 124.781 35.6023C124.781 35.5753 124.798 35.5415 124.842 35.5415C124.913 35.5415 125.007 35.5246 125.075 35.5077C125.223 35.4739 125.24 35.3354 125.274 35.1159C125.318 34.8119 125.318 34.2309 125.318 33.5182V32.2144V32.2178ZM125.98 32.8427C125.98 32.8866 125.997 32.9136 126.031 32.9372C126.142 32.998 126.534 33.0487 126.875 33.0487C127.057 33.0487 127.267 33.0386 127.449 32.917C127.709 32.7447 127.909 32.3529 127.909 31.7888C127.909 30.8667 127.405 30.3364 126.588 30.3364C126.362 30.3364 126.118 30.3634 126.041 30.3803C126.007 30.3972 125.98 30.4242 125.98 30.4681V32.8393V32.8427Z" fill="#F3F3F3"/>
<path d="M132.026 32.2178C132.026 31.0693 132.026 30.8633 132.009 30.6269C131.992 30.3735 131.948 30.2519 131.695 30.2181C131.634 30.208 131.503 30.2013 131.435 30.2013C131.408 30.2013 131.374 30.1675 131.374 30.1405C131.374 30.0965 131.408 30.0797 131.496 30.0797C131.844 30.0797 132.34 30.0965 132.381 30.0965C132.432 30.0965 134.033 30.1067 134.205 30.0965C134.353 30.0864 134.492 30.0628 134.553 30.0526C134.587 30.0425 134.624 30.0189 134.657 30.0189C134.684 30.0189 134.691 30.0526 134.691 30.0898C134.691 30.1405 134.647 30.2283 134.63 30.4377C134.62 30.5086 134.603 30.8363 134.587 30.9241C134.576 30.9579 134.553 31.0018 134.516 31.0018C134.472 31.0018 134.455 30.968 134.455 30.9072C134.455 30.8565 134.445 30.7349 134.411 30.6471C134.36 30.5255 134.279 30.4749 133.864 30.4208C133.732 30.4039 132.847 30.3938 132.759 30.3938C132.725 30.3938 132.715 30.4208 132.715 30.4715V32.4779C132.715 32.5285 132.715 32.5556 132.759 32.5556C132.854 32.5556 133.864 32.5556 134.036 32.5387C134.218 32.5218 134.33 32.5116 134.411 32.434C134.462 32.3833 134.499 32.3394 134.522 32.3394C134.546 32.3394 134.566 32.3563 134.566 32.4002C134.566 32.4441 134.522 32.5657 134.505 32.8089C134.489 32.9575 134.472 33.2345 134.472 33.2885C134.472 33.3493 134.455 33.427 134.401 33.427C134.367 33.427 134.35 33.4 134.35 33.3561C134.35 33.2851 134.35 33.2075 134.316 33.1129C134.289 33.0082 134.222 32.9203 133.924 32.8866C133.715 32.8595 132.898 32.8528 132.769 32.8528C132.725 32.8528 132.719 32.8798 132.719 32.9035V33.5216C132.719 33.7749 132.708 34.6329 132.719 34.7815C132.736 35.278 132.874 35.3726 133.631 35.3726C133.83 35.3726 134.195 35.3726 134.394 35.2949C134.593 35.2071 134.698 35.0787 134.742 34.7815C134.759 34.6937 134.776 34.67 134.82 34.67C134.863 34.67 134.87 34.7308 134.87 34.7815C134.87 34.8322 134.809 35.3388 134.766 35.4942C134.715 35.6867 134.634 35.6867 134.34 35.6867C133.766 35.6867 133.323 35.6698 133.009 35.6597C132.688 35.6428 132.489 35.6428 132.374 35.6428C132.357 35.6428 132.209 35.6428 132.043 35.6529C131.894 35.6631 131.722 35.6698 131.601 35.6698C131.523 35.6698 131.479 35.6529 131.479 35.609C131.479 35.582 131.496 35.5482 131.54 35.5482C131.611 35.5482 131.705 35.5212 131.773 35.5145C131.921 35.4874 131.938 35.3422 131.972 35.1226C132.016 34.8186 132.016 34.2377 132.016 33.525V32.2212L132.026 32.2178Z" fill="#F3F3F3"/>
<path d="M137.039 35.5617C136.934 35.5111 136.927 35.4841 136.927 35.2848C136.927 34.92 136.961 34.6227 136.971 34.5011C136.971 34.4234 136.988 34.3795 137.032 34.3795C137.076 34.3795 137.103 34.4066 137.103 34.4674C137.103 34.5282 137.103 34.6329 137.13 34.7376C137.252 35.278 137.826 35.4672 138.339 35.4672C139.096 35.4672 139.488 35.0416 139.488 34.4842C139.488 33.9269 139.2 33.7006 138.522 33.1973L138.174 32.9372C137.349 32.3191 137.079 31.8699 137.079 31.3564C137.079 30.4884 137.765 29.9648 138.775 29.9648C139.079 29.9648 139.383 30.0087 139.565 30.0526C139.714 30.0864 139.775 30.0864 139.835 30.0864C139.896 30.0864 139.913 30.0965 139.913 30.1371C139.913 30.1709 139.879 30.4141 139.879 30.9207C139.879 31.0322 139.869 31.0862 139.819 31.0862C139.768 31.0862 139.758 31.0524 139.748 30.9916C139.738 30.9038 139.677 30.7045 139.636 30.6269C139.586 30.539 139.332 30.2621 138.647 30.2621C138.089 30.2621 137.63 30.539 137.63 31.0626C137.63 31.5321 137.863 31.8023 138.62 32.3124L138.836 32.461C139.765 33.096 140.085 33.6094 140.085 34.241C140.085 34.6768 139.92 35.1463 139.373 35.5009C139.052 35.7104 138.572 35.761 138.157 35.761C137.802 35.761 137.356 35.7104 137.045 35.5617H137.039Z" fill="#F3F3F3"/>
<path d="M144.271 30.2283C144.365 29.9851 144.402 29.9412 144.453 29.9412C144.531 29.9412 144.558 30.0459 144.635 30.2114C144.774 30.5255 146 33.5756 146.469 34.697C146.746 35.3591 146.956 35.4537 147.121 35.5043C147.233 35.5381 147.348 35.5482 147.425 35.5482C147.469 35.5482 147.52 35.5651 147.52 35.609C147.52 35.6529 147.432 35.6698 147.348 35.6698C147.236 35.6698 146.669 35.6698 146.138 35.6529C145.99 35.6428 145.868 35.6428 145.868 35.6023C145.868 35.5685 145.885 35.5685 145.919 35.5516C145.963 35.5347 146.04 35.4739 145.99 35.3523L145.304 33.6567C145.287 33.6229 145.277 33.6128 145.233 33.6128H143.47C143.436 33.6128 143.409 33.6297 143.392 33.6736L142.957 34.8558C142.886 35.0382 142.845 35.2206 142.845 35.3523C142.845 35.5009 142.977 35.5516 143.105 35.5516H143.176C143.237 35.5516 143.254 35.5786 143.254 35.6124C143.254 35.6563 143.21 35.6732 143.142 35.6732C142.96 35.6732 142.544 35.6462 142.457 35.6462C142.379 35.6462 141.997 35.6732 141.683 35.6732C141.589 35.6732 141.535 35.6563 141.535 35.6124C141.535 35.5786 141.568 35.5516 141.605 35.5516C141.656 35.5516 141.771 35.5415 141.832 35.5347C142.18 35.4908 142.328 35.2307 142.474 34.8558L144.274 30.2316L144.271 30.2283ZM145.122 33.3054C145.156 33.3054 145.155 33.2885 145.149 33.2547L144.392 31.2315C144.348 31.12 144.304 31.12 144.26 31.2315L143.548 33.2547C143.538 33.2885 143.548 33.3054 143.575 33.3054H145.122Z" fill="#F3F3F3"/>
<path d="M149.398 32.2178C149.398 31.0693 149.398 30.8633 149.381 30.6268C149.364 30.3735 149.32 30.2519 149.067 30.2181C149.006 30.208 148.874 30.2013 148.807 30.2013C148.78 30.2013 148.746 30.1675 148.746 30.1405C148.746 30.0965 148.78 30.0797 148.868 30.0797C149.215 30.0797 149.729 30.0965 149.773 30.0965C149.85 30.0965 150.496 30.0797 150.729 30.0797C151.215 30.0797 151.756 30.1236 152.154 30.4005C152.347 30.539 152.684 30.8971 152.684 31.4071C152.684 31.9543 152.458 32.4846 151.745 33.0926C152.37 33.8762 152.901 34.545 153.343 35.0044C153.752 35.4199 154.005 35.4908 154.194 35.5178C154.343 35.5449 154.421 35.5449 154.465 35.5449C154.508 35.5449 154.535 35.5786 154.535 35.6057C154.535 35.6496 154.492 35.6665 154.353 35.6665H153.877C153.441 35.6665 153.252 35.6225 153.059 35.5178C152.728 35.3456 152.451 34.9875 152.016 34.4302C151.695 34.0316 151.354 33.552 151.191 33.3527C151.158 33.3189 151.141 33.3088 151.087 33.3088L150.114 33.2919C150.08 33.2919 150.063 33.3088 150.063 33.3527V33.525C150.063 34.2377 150.063 34.8119 150.097 35.1159C150.124 35.3321 150.168 35.4705 150.401 35.5077C150.506 35.5246 150.671 35.5415 150.739 35.5415C150.79 35.5415 150.8 35.5753 150.8 35.6023C150.8 35.6361 150.766 35.6631 150.678 35.6631C150.263 35.6631 149.773 35.636 149.739 35.636C149.729 35.636 149.219 35.6631 148.982 35.6631C148.905 35.6631 148.861 35.6462 148.861 35.6023C148.861 35.5753 148.878 35.5415 148.922 35.5415C148.993 35.5415 149.087 35.5246 149.155 35.5077C149.303 35.4739 149.32 35.3354 149.354 35.1159C149.398 34.8119 149.398 34.2309 149.398 33.5182V32.2144V32.2178ZM150.06 32.8427C150.06 32.8866 150.077 32.9136 150.111 32.9372C150.222 32.998 150.614 33.0487 150.955 33.0487C151.137 33.0487 151.347 33.0386 151.529 32.917C151.789 32.7447 151.989 32.3529 151.989 31.7888C151.989 30.8667 151.485 30.3364 150.668 30.3364C150.442 30.3364 150.198 30.3634 150.121 30.3803C150.087 30.3972 150.06 30.4242 150.06 30.4681V32.8393V32.8427Z" fill="#F3F3F3"/>
<path d="M156.802 33.5216C156.802 34.2343 156.802 34.8153 156.836 35.1193C156.863 35.3354 156.886 35.4739 157.113 35.5111C157.224 35.528 157.39 35.5449 157.461 35.5449C157.505 35.5449 157.521 35.5786 157.521 35.6057C157.521 35.6394 157.488 35.6665 157.4 35.6665C156.974 35.6665 156.478 35.6394 156.444 35.6394C156.4 35.6394 155.924 35.6665 155.687 35.6665C155.61 35.6665 155.566 35.6496 155.566 35.6057C155.566 35.5786 155.583 35.5449 155.627 35.5449C155.697 35.5449 155.792 35.528 155.86 35.5111C156.008 35.4773 156.032 35.3388 156.059 35.1193C156.093 34.8153 156.103 34.2343 156.103 33.5216V32.2178C156.103 31.0693 156.103 30.8633 156.086 30.6268C156.069 30.3735 156.008 30.2621 155.843 30.2283C155.755 30.2114 155.66 30.2013 155.61 30.2013C155.576 30.2013 155.549 30.1675 155.549 30.1405C155.549 30.0965 155.583 30.0797 155.67 30.0797C155.924 30.0797 156.4 30.0965 156.444 30.0965C156.478 30.0965 156.974 30.0797 157.207 30.0797C157.295 30.0797 157.329 30.0965 157.329 30.1405C157.329 30.1675 157.295 30.2013 157.268 30.2013C157.217 30.2013 157.163 30.2012 157.076 30.2181C156.866 30.262 156.822 30.3668 156.805 30.6268C156.795 30.8599 156.795 31.0693 156.795 32.2178V33.5216H156.802Z" fill="#F3F3F3"/>
<path d="M161.521 30.2283C161.615 29.9851 161.652 29.9412 161.703 29.9412C161.781 29.9412 161.808 30.0459 161.885 30.2114C162.024 30.5255 163.25 33.5756 163.72 34.697C163.997 35.3591 164.206 35.4537 164.371 35.5043C164.483 35.5381 164.598 35.5482 164.675 35.5482C164.719 35.5482 164.77 35.5651 164.77 35.609C164.77 35.6529 164.682 35.6698 164.598 35.6698C164.486 35.6698 163.919 35.6698 163.389 35.6529C163.24 35.6428 163.118 35.6428 163.118 35.6023C163.118 35.5685 163.135 35.5685 163.169 35.5516C163.213 35.5347 163.291 35.4739 163.24 35.3523L162.554 33.6567C162.537 33.6229 162.527 33.6128 162.483 33.6128H160.72C160.686 33.6128 160.659 33.6297 160.642 33.6736L160.207 34.8558C160.136 35.0382 160.095 35.2206 160.095 35.3523C160.095 35.5009 160.227 35.5516 160.355 35.5516H160.426C160.487 35.5516 160.504 35.5786 160.504 35.6124C160.504 35.6563 160.46 35.6732 160.392 35.6732C160.21 35.6732 159.795 35.6462 159.707 35.6462C159.629 35.6462 159.247 35.6732 158.933 35.6732C158.839 35.6732 158.785 35.6563 158.785 35.6124C158.785 35.5786 158.818 35.5516 158.856 35.5516C158.906 35.5516 159.021 35.5415 159.082 35.5347C159.43 35.4908 159.578 35.2307 159.724 34.8558L161.524 30.2316L161.521 30.2283ZM162.372 33.3054C162.406 33.3054 162.406 33.2885 162.399 33.2547L161.642 31.2315C161.598 31.12 161.554 31.12 161.511 31.2315L160.798 33.2547C160.788 33.2885 160.798 33.3054 160.825 33.3054H162.372Z" fill="#F3F3F3"/>
<path d="M167.341 33.5385C167.341 34.6261 167.357 35.0686 167.496 35.1969C167.618 35.3185 167.915 35.3726 168.513 35.3726C168.911 35.3726 169.252 35.3625 169.435 35.1463C169.529 35.0348 169.59 34.8761 169.617 34.7274C169.627 34.6768 169.651 34.6329 169.695 34.6329C169.729 34.6329 169.746 34.6666 169.746 34.7443C169.746 34.822 169.695 35.2645 169.634 35.4841C169.583 35.6597 169.556 35.6833 169.148 35.6833C168.6 35.6833 168.175 35.6732 167.817 35.6563C167.469 35.6462 167.209 35.6394 166.983 35.6394C166.949 35.6394 166.817 35.6394 166.668 35.6496C166.513 35.6597 166.348 35.6665 166.226 35.6665C166.148 35.6665 166.104 35.6496 166.104 35.6057C166.104 35.5786 166.121 35.5449 166.165 35.5449C166.236 35.5449 166.331 35.528 166.398 35.5111C166.547 35.4773 166.564 35.3388 166.597 35.1193C166.641 34.8153 166.641 34.2343 166.641 33.5216V32.2178C166.641 31.0693 166.641 30.8633 166.625 30.6268C166.608 30.3735 166.564 30.2519 166.31 30.2181C166.25 30.208 166.118 30.2013 166.05 30.2013C166.023 30.2013 165.99 30.1675 165.99 30.1405C165.99 30.0965 166.023 30.0797 166.111 30.0797C166.459 30.0797 166.935 30.0965 166.979 30.0965C167.013 30.0965 167.587 30.0797 167.824 30.0797C167.901 30.0797 167.945 30.0965 167.945 30.1405C167.945 30.1675 167.911 30.1911 167.884 30.1911C167.834 30.1911 167.719 30.2012 167.631 30.208C167.405 30.2519 167.361 30.3634 167.344 30.6268C167.334 30.8599 167.334 31.0693 167.334 32.2178V33.5385H167.341Z" fill="#F3F3F3"/>
<path d="M67.0788 15.4844C67.0788 15.9843 67.0957 16.3863 67.1261 16.6936H66.7613C66.5485 15.4979 66.231 14.6535 65.8087 14.1671C65.3865 13.6807 64.792 13.4375 64.0287 13.4375H63.5051C63.1775 13.4375 62.9376 13.4645 62.789 13.5185C62.6404 13.5726 62.5391 13.6739 62.4884 13.8293C62.4344 13.9813 62.4073 14.2279 62.4073 14.569V18.575H62.9647C63.5254 18.575 63.9543 18.369 64.2448 17.9535C64.5353 17.5414 64.7414 17.0483 64.8562 16.4741H65.221C65.1906 16.9199 65.1737 17.4165 65.1737 17.967V18.7304C65.1737 19.2709 65.2041 20.0241 65.2683 20.9868H64.9035C64.6806 19.5884 64.0354 18.8892 62.9647 18.8892H62.4073V22.5439C62.4073 22.9695 62.4512 23.2769 62.5424 23.4728C62.6336 23.6687 62.7924 23.797 63.0187 23.8612C63.245 23.9254 63.6098 23.9626 64.1063 23.9727V24.324C62.8025 24.2936 61.8331 24.2767 61.1981 24.2767C60.6678 24.2767 59.999 24.2868 59.1951 24.3071L58.6851 24.324V24.0065C59.0363 23.9862 59.2931 23.9423 59.4552 23.8781C59.6207 23.8139 59.7322 23.6923 59.7896 23.5133C59.847 23.3343 59.8774 23.0404 59.8774 22.6385V14.7548C59.8774 14.3528 59.847 14.0624 59.7896 13.88C59.7322 13.7009 59.6207 13.5793 59.4552 13.5152C59.2897 13.451 59.033 13.4105 58.6851 13.3868V13.0693C59.8301 13.0997 61.5561 13.1166 63.8665 13.1166C65.4237 13.1166 66.5316 13.0997 67.1902 13.0693C67.1159 13.9712 67.0788 14.7751 67.0788 15.4844Z" fill="#F3F3F3"/>
<path d="M76.3034 13.5287C77.1444 13.9847 77.7997 14.6433 78.2658 15.508C78.732 16.3727 78.965 17.403 78.965 18.5987C78.965 19.7944 78.7252 20.7976 78.249 21.6995C77.7727 22.6013 77.1073 23.3005 76.2527 23.797C75.3981 24.297 74.4253 24.5435 73.3343 24.5435C72.2433 24.5435 71.2266 24.3172 70.3855 23.8612C69.5445 23.4052 68.8892 22.7466 68.4231 21.8819C67.9569 21.0172 67.7239 19.9869 67.7239 18.7912C67.7239 17.5955 67.9637 16.5923 68.44 15.6904C68.9162 14.7886 69.5816 14.0894 70.4362 13.5929C71.2908 13.0963 72.2602 12.8464 73.3546 12.8464C74.449 12.8464 75.4623 13.0761 76.3034 13.5287ZM71.7502 13.8394C71.3043 14.3123 70.9631 14.971 70.7233 15.8188C70.4835 16.6666 70.3653 17.636 70.3653 18.727C70.3653 19.8181 70.5004 20.7976 70.7706 21.6353C71.0408 22.473 71.4056 23.1181 71.8684 23.5741C72.3278 24.0301 72.8412 24.2564 73.4019 24.2564C73.9626 24.2564 74.4996 24.02 74.9421 23.5505C75.3846 23.081 75.7291 22.4189 75.969 21.5711C76.2088 20.7233 76.327 19.7539 76.327 18.6629C76.327 17.5718 76.1919 16.5923 75.9217 15.7546C75.6515 14.9169 75.2867 14.2718 74.8239 13.8158C74.3645 13.3598 73.8511 13.1335 73.2904 13.1335C72.7297 13.1335 72.1926 13.3699 71.7468 13.8394H71.7502Z" fill="#F3F3F3"/>
<path d="M90.1421 13.3834C89.7908 13.4375 89.5341 13.5253 89.372 13.6537C89.2064 13.782 89.095 13.9813 89.0376 14.2583C88.9801 14.5353 88.9497 14.9406 88.9497 15.481V24.351L88.5681 24.3341L88.1391 24.351L81.2417 15.6094V21.713C81.2417 22.3379 81.2721 22.7972 81.3363 23.0877C81.4005 23.3782 81.539 23.591 81.7484 23.7227C81.9612 23.8545 82.3057 23.9491 82.782 23.9997V24.3172C82.3699 24.2868 81.7957 24.2699 81.0661 24.2699C80.4817 24.2699 80.0223 24.2868 79.6846 24.3172V23.9997C80.0359 23.9457 80.2926 23.8579 80.4547 23.7295C80.6202 23.6011 80.7317 23.4019 80.7891 23.1249C80.8465 22.8479 80.8769 22.4426 80.8769 21.9021V14.7481C80.8769 14.3461 80.8465 14.0556 80.7891 13.8732C80.7317 13.6942 80.6202 13.5726 80.4547 13.5084C80.2892 13.4442 80.0325 13.4037 79.6846 13.3801V13.0626C80.0223 13.093 80.4851 13.1098 81.0661 13.1098C81.5964 13.1098 82.0524 13.093 82.4341 13.0626L88.5849 20.6456V15.6702C88.5849 15.0453 88.5545 14.5859 88.4904 14.2954C88.4262 14.005 88.2877 13.7922 88.0783 13.6604C87.8655 13.5287 87.521 13.4341 87.0447 13.3834V13.0659C87.4568 13.0963 88.031 13.1132 88.7606 13.1132C89.3551 13.1132 89.8144 13.0963 90.1421 13.0659V13.3834Z" fill="#F3F3F3"/>
<path d="M100.299 15.7681C100.299 16.268 100.316 16.67 100.346 16.9774H99.9814C99.7281 15.6736 99.3802 14.7582 98.9411 14.2279C98.502 13.6976 97.9007 13.4341 97.1373 13.4341H96.7726V22.5101C96.7726 22.956 96.8165 23.2802 96.9077 23.4795C96.9989 23.6822 97.1576 23.8173 97.3839 23.8849C97.6102 23.9524 97.975 23.993 98.4716 24.0031V24.3206C97.1373 24.2902 96.1308 24.2733 95.4518 24.2733C94.7729 24.2733 93.8136 24.2902 92.5436 24.3206V24.0031C93.0401 23.993 93.4049 23.9524 93.6312 23.8849C93.8576 23.8173 94.0197 23.6822 94.1075 23.4795C94.1987 23.2769 94.2426 22.956 94.2426 22.5101V13.4341H93.8913C93.3813 13.4341 92.9523 13.5456 92.5943 13.7685C92.2396 13.9914 91.9356 14.3596 91.6789 14.873C91.4256 15.3864 91.206 16.089 91.027 16.9807H90.6622C90.6926 16.6734 90.7095 16.2714 90.7095 15.7715C90.7095 14.9777 90.6723 14.0759 90.598 13.0693C91.5607 13.0997 93.1989 13.1166 95.5093 13.1166C97.8197 13.1166 99.4511 13.0997 100.404 13.0693C100.329 14.0759 100.292 14.9777 100.292 15.7715L100.299 15.7681Z" fill="#F3F3F3"/>
<path d="M109.79 24.3206C109.071 24.2902 107.855 24.2733 106.149 24.2733C103.839 24.2733 102.113 24.2902 100.968 24.3206V24.0031C101.319 23.9828 101.576 23.9389 101.738 23.8747C101.903 23.8105 102.015 23.6889 102.072 23.5099C102.13 23.3309 102.16 23.037 102.16 22.6351V14.7514C102.16 14.3495 102.13 14.059 102.072 13.8766C102.015 13.6976 101.903 13.576 101.738 13.5118C101.572 13.4476 101.316 13.4071 100.968 13.3834V13.0659C102.113 13.0963 103.839 13.1132 106.149 13.1132C107.706 13.1132 108.814 13.0963 109.473 13.0659C109.399 13.9441 109.361 14.7312 109.361 15.4168C109.361 15.883 109.378 16.2444 109.409 16.4977H109.044C108.885 15.3628 108.598 14.569 108.186 14.113C107.774 13.657 107.19 13.4307 106.436 13.4307H105.784C105.457 13.4307 105.217 13.4577 105.068 13.5118C104.92 13.5658 104.818 13.6672 104.768 13.8225C104.714 13.9745 104.687 14.2211 104.687 14.5623V18.5041H105.197C105.757 18.5041 106.186 18.2981 106.477 17.8826C106.767 17.4705 106.973 16.9774 107.088 16.4031H107.453C107.423 16.849 107.406 17.3455 107.406 17.8961V18.6595C107.406 19.1999 107.436 19.9532 107.5 20.9158H107.136C106.913 19.5174 106.267 18.8182 105.197 18.8182H104.687V22.8242C104.687 23.162 104.714 23.4086 104.768 23.564C104.822 23.7193 104.92 23.8207 105.068 23.8747C105.217 23.9288 105.457 23.9558 105.784 23.9558H106.565C107.318 23.9558 107.923 23.6991 108.385 23.1857C108.845 22.6722 109.172 21.8008 109.361 20.5713H109.726C109.696 20.9226 109.679 21.3651 109.679 21.9055C109.679 22.8817 109.716 23.6856 109.79 24.3206Z" fill="#F3F3F3"/>
<path d="M122.984 23.7498C123.163 23.9085 123.339 23.993 123.507 24.0031V24.3206C122.872 24.2902 122.065 24.2733 121.092 24.2733C120.011 24.2733 119.208 24.2902 118.677 24.3206V24.0031C119.079 23.9828 119.366 23.9322 119.535 23.8511C119.704 23.77 119.789 23.6315 119.789 23.4289C119.789 23.2397 119.724 22.983 119.599 22.6655L118.647 20.0579H115.181L114.769 21.1557C114.472 21.919 114.323 22.5068 114.323 22.9188C114.323 23.3309 114.442 23.5843 114.681 23.7363C114.921 23.8916 115.272 23.9761 115.739 23.9997V24.3172C115.019 24.2868 114.36 24.2699 113.766 24.2699C113.28 24.2699 112.874 24.2868 112.557 24.3172V23.9997C113.077 23.9051 113.533 23.3478 113.925 22.3311L117.549 13.0322C117.664 13.0423 117.85 13.0491 118.106 13.0491C118.363 13.0491 118.542 13.0423 118.647 13.0322L122.511 22.983C122.649 23.3343 122.808 23.5876 122.987 23.7464L122.984 23.7498ZM118.532 19.7438L116.958 15.4506L115.306 19.7438H118.532Z" fill="#F3F3F3"/>
<path d="M128.23 13.3834C127.848 13.4037 127.571 13.4476 127.395 13.5118C127.22 13.576 127.101 13.6976 127.037 13.8766C126.973 14.0556 126.943 14.3495 126.943 14.7514V22.8276C126.943 23.1654 126.97 23.412 127.024 23.5674C127.078 23.7227 127.169 23.8241 127.301 23.8781C127.432 23.9322 127.649 23.9592 127.946 23.9592H128.726C129.446 23.9592 130.07 23.6349 130.594 22.9898C131.118 22.3446 131.459 21.4867 131.621 20.4159H131.986C131.955 20.7773 131.938 21.2435 131.938 21.8143C131.938 22.831 131.976 23.6687 132.05 24.3274C131.33 24.297 130.114 24.2801 128.409 24.2801C126.098 24.2801 124.372 24.297 123.227 24.3274V24.0099C123.578 23.9896 123.835 23.9457 123.997 23.8815C124.163 23.8173 124.274 23.6957 124.332 23.5167C124.389 23.3377 124.42 23.0438 124.42 22.6419V14.7582C124.42 14.3562 124.389 14.0658 124.332 13.8834C124.274 13.7043 124.163 13.5827 123.997 13.5186C123.832 13.4544 123.575 13.4138 123.227 13.3902V13.0727C123.768 13.1031 124.605 13.12 125.74 13.12C126.875 13.12 127.652 13.1031 128.236 13.0727V13.3902L128.23 13.3834Z" fill="#F3F3F3"/>
<path d="M142.092 14.4744C143.119 15.4135 143.636 16.7781 143.636 18.5683C143.636 19.7235 143.382 20.7334 142.879 21.5981C142.376 22.4628 141.649 23.1316 140.7 23.6079C139.751 24.0841 138.62 24.324 137.306 24.324L136.319 24.3071C135.705 24.2868 135.259 24.2767 134.985 24.2767C133.894 24.2767 133.077 24.2936 132.536 24.324V24.0065C132.888 23.9862 133.144 23.9423 133.306 23.8781C133.472 23.8139 133.583 23.6923 133.641 23.5133C133.698 23.3343 133.729 23.0404 133.729 22.6385V14.7548C133.729 14.3528 133.698 14.0624 133.641 13.88C133.583 13.7009 133.472 13.5793 133.306 13.5152C133.141 13.451 132.884 13.4105 132.536 13.3868V13.0693C132.982 13.0997 133.624 13.1166 134.458 13.1166H134.951L135.586 13.0997C136.454 13.0794 137.076 13.0693 137.448 13.0693C139.515 13.0693 141.062 13.5388 142.089 14.4778L142.092 14.4744ZM136.694 13.4645C136.529 13.5388 136.417 13.6705 136.353 13.8631C136.289 14.0522 136.259 14.3393 136.259 14.721V22.6689C136.259 23.0506 136.289 23.3377 136.353 23.5268C136.417 23.7194 136.529 23.8511 136.694 23.9254C136.86 23.9997 137.11 24.0369 137.451 24.0369C138.734 24.0369 139.643 23.591 140.183 22.6925C140.724 21.7974 140.994 20.4429 140.994 18.6325C140.994 16.822 140.717 15.4878 140.16 14.6332C139.603 13.7786 138.694 13.353 137.434 13.353C137.106 13.353 136.86 13.3902 136.694 13.4645Z" fill="#F3F3F3"/>
<path d="M155.11 23.6214C154.823 23.9491 154.515 24.1855 154.188 24.3274C153.86 24.4692 153.461 24.5402 152.995 24.5402C152.38 24.5402 151.894 24.4118 151.539 24.1517C151.185 23.8916 150.955 23.4491 150.847 22.8243L150.56 21.2333C150.421 20.4598 150.256 19.889 150.06 19.5242C149.864 19.1594 149.536 18.977 149.084 18.977H148.05V22.6317C148.05 23.0337 148.081 23.3275 148.138 23.5066C148.195 23.6856 148.303 23.8072 148.462 23.8714C148.621 23.9355 148.881 23.9761 149.243 23.9997V24.3172C148.672 24.2868 147.871 24.2699 146.841 24.2699C145.706 24.2699 144.868 24.2868 144.328 24.3172V23.9997C144.679 23.9795 144.936 23.9355 145.098 23.8714C145.264 23.8072 145.375 23.6856 145.432 23.5066C145.49 23.3275 145.52 23.0337 145.52 22.6317V14.7481C145.52 14.3461 145.49 14.0556 145.432 13.8732C145.375 13.6942 145.264 13.5726 145.098 13.5084C144.932 13.4442 144.676 13.4037 144.328 13.3801V13.0626C144.868 13.093 145.672 13.1098 146.743 13.1098L148.506 13.093C148.719 13.0828 148.962 13.0761 149.236 13.0761C150.698 13.0761 151.796 13.3159 152.536 13.7922C153.272 14.2684 153.64 14.9541 153.64 15.8424C153.64 16.5957 153.363 17.2577 152.813 17.8286C152.262 18.3994 151.35 18.7608 150.08 18.9094C151.033 18.9939 151.745 19.1999 152.212 19.531C152.678 19.8586 152.978 20.3517 153.117 21.0104L153.482 22.6486C153.566 23.0742 153.664 23.3681 153.775 23.5403C153.887 23.7092 154.042 23.7937 154.245 23.7937C154.373 23.7835 154.481 23.7531 154.569 23.6991C154.66 23.6451 154.762 23.5572 154.88 23.4289L155.103 23.618L155.11 23.6214ZM148.408 13.4949C148.276 13.5692 148.182 13.701 148.131 13.8935C148.077 14.0826 148.05 14.3698 148.05 14.7514V18.6629H148.732C149.601 18.6629 150.198 18.4332 150.519 17.9704C150.844 17.5111 151.006 16.8592 151.006 16.0215C151.006 15.1838 150.854 14.4947 150.546 14.0489C150.239 13.603 149.736 13.3801 149.036 13.3801C148.749 13.3801 148.54 13.4172 148.408 13.4915V13.4949Z" fill="#F3F3F3"/>
<path d="M159.845 13.3834C159.484 13.4037 159.224 13.4476 159.065 13.5118C158.906 13.576 158.798 13.6976 158.741 13.8766C158.683 14.0556 158.653 14.3495 158.653 14.7514V22.6351C158.653 23.037 158.683 23.3309 158.741 23.5099C158.798 23.6889 158.906 23.8105 159.065 23.8747C159.224 23.9389 159.484 23.9794 159.845 24.0031V24.3206C159.274 24.2902 158.474 24.2733 157.444 24.2733C156.309 24.2733 155.471 24.2902 154.931 24.3206V24.0031C155.282 23.9828 155.539 23.9389 155.701 23.8747C155.866 23.8105 155.978 23.6889 156.035 23.5099C156.093 23.3309 156.123 23.037 156.123 22.6351V14.7514C156.123 14.3495 156.093 14.059 156.035 13.8766C155.978 13.6976 155.866 13.576 155.701 13.5118C155.535 13.4476 155.279 13.4071 154.931 13.3834V13.0659C155.471 13.0963 156.309 13.1132 157.444 13.1132C158.471 13.1132 159.271 13.0963 159.845 13.0659V13.3834Z" fill="#F3F3F3"/>
<path d="M167.945 13.1132C168.394 13.2922 168.837 13.549 169.273 13.8766C169.401 13.9712 169.506 14.0185 169.59 14.0185C169.695 14.0185 169.779 13.9408 169.843 13.7888C169.908 13.6368 169.955 13.3936 169.985 13.0659H170.35C170.306 13.7854 170.286 15.0689 170.286 16.9132H169.921C169.837 16.1937 169.712 15.6094 169.546 15.1635C169.381 14.7177 169.11 14.3427 168.729 14.0354C168.475 13.7922 168.161 13.5996 167.79 13.4645C167.418 13.326 167.037 13.2585 166.645 13.2585C165.902 13.2585 165.287 13.5118 164.794 14.0151C164.301 14.5184 163.939 15.1838 163.706 16.0113C163.473 16.8389 163.355 17.7441 163.355 18.7304C163.355 22.3987 164.372 24.2294 166.408 24.2294C166.874 24.2294 167.249 24.1247 167.536 23.9119C167.675 23.8173 167.773 23.7059 167.83 23.5775C167.888 23.4491 167.918 23.287 167.918 23.0843V21.5272C167.918 21.0307 167.874 20.6659 167.79 20.4396C167.705 20.2133 167.553 20.0545 167.337 19.9701C167.121 19.8856 166.776 19.8316 166.31 19.8113V19.4938C166.966 19.5242 167.874 19.5411 169.029 19.5411C169.972 19.5411 170.681 19.5242 171.161 19.4938V19.8113C170.948 19.8316 170.796 19.8755 170.701 19.9397C170.607 20.0038 170.539 20.1254 170.502 20.3045C170.465 20.4835 170.448 20.7773 170.448 21.1793V24.3274H170.131C170.12 24.1044 170.077 23.8984 169.995 23.7059C169.914 23.5167 169.806 23.4187 169.671 23.4187C169.492 23.4187 169.205 23.5302 168.813 23.7531C167.891 24.2834 167.023 24.5469 166.206 24.5469C164.372 24.5469 162.966 24.047 161.994 23.0438C161.017 22.044 160.531 20.6355 160.531 18.825C160.531 17.6394 160.778 16.5957 161.271 15.6938C161.764 14.792 162.443 14.0928 163.314 13.5962C164.182 13.0997 165.175 12.8498 166.287 12.8498C166.942 12.8498 167.496 12.941 167.949 13.12L167.945 13.1132Z" fill="#F3F3F3"/>
<path d="M181.797 13.3834C181.446 13.4375 181.189 13.5253 181.027 13.6537C180.862 13.782 180.75 13.9813 180.693 14.2583C180.635 14.5353 180.605 14.9406 180.605 15.481V19.6931C180.605 21.2097 180.389 22.3311 179.953 23.0641C179.666 23.5302 179.254 23.895 178.713 24.1517C178.173 24.4084 177.511 24.5402 176.727 24.5402C175.498 24.5402 174.545 24.2767 173.866 23.7464C173.38 23.3546 173.049 22.858 172.88 22.2602C172.711 21.6623 172.627 20.8213 172.627 19.7404V14.7481C172.627 14.3461 172.596 14.0556 172.539 13.8732C172.481 13.6942 172.37 13.5726 172.204 13.5084C172.039 13.4442 171.782 13.4037 171.434 13.3801V13.0626C171.975 13.093 172.802 13.1098 173.914 13.1098C175.025 13.1098 175.859 13.093 176.44 13.0626V13.3801C176.058 13.4003 175.781 13.4442 175.606 13.5084C175.43 13.5726 175.312 13.6942 175.248 13.8732C175.184 14.0522 175.153 14.3461 175.153 14.7481V20.7402C175.153 21.8515 175.315 22.6723 175.64 23.1958C175.964 23.7194 176.531 23.9828 177.349 23.9828C178.409 23.9828 179.156 23.6248 179.592 22.9087C180.027 22.1926 180.243 21.1793 180.243 19.8654V15.6702C180.243 15.0554 180.206 14.5994 180.132 14.3022C180.058 14.005 179.916 13.7922 179.703 13.657C179.49 13.5253 179.156 13.4307 178.703 13.3801V13.0626C179.105 13.093 179.679 13.1098 180.419 13.1098C181.014 13.1098 181.473 13.093 181.801 13.0626V13.3801L181.797 13.3834Z" fill="#F3F3F3"/>
<path d="M191.049 24.3206C190.33 24.2902 189.114 24.2733 187.408 24.2733C185.097 24.2733 183.371 24.2902 182.226 24.3206V24.0031C182.578 23.9828 182.834 23.9389 182.996 23.8747C183.162 23.8105 183.273 23.6889 183.331 23.5099C183.388 23.3309 183.419 23.037 183.419 22.6351V14.7514C183.419 14.3495 183.388 14.059 183.331 13.8766C183.273 13.6976 183.162 13.576 182.996 13.5118C182.831 13.4476 182.574 13.4071 182.226 13.3834V13.0659C183.371 13.0963 185.097 13.1132 187.408 13.1132C188.965 13.1132 190.073 13.0963 190.731 13.0659C190.657 13.9441 190.62 14.7312 190.62 15.4168C190.62 15.883 190.637 16.2444 190.667 16.4977H190.303C190.144 15.3628 189.857 14.569 189.445 14.113C189.032 13.657 188.448 13.4307 187.695 13.4307H187.043C186.715 13.4307 186.476 13.4577 186.327 13.5118C186.178 13.5658 186.077 13.6672 186.026 13.8225C185.972 13.9745 185.945 14.2211 185.945 14.5623V18.5041H186.455C187.016 18.5041 187.445 18.2981 187.735 17.8826C188.026 17.4705 188.232 16.9774 188.347 16.4031H188.712C188.681 16.849 188.664 17.3455 188.664 17.8961V18.6595C188.664 19.1999 188.695 19.9532 188.759 20.9158H188.394C188.171 19.5174 187.526 18.8182 186.455 18.8182H185.945V22.8242C185.945 23.162 185.972 23.4086 186.026 23.564C186.08 23.7193 186.178 23.8207 186.327 23.8747C186.476 23.9288 186.715 23.9558 187.043 23.9558H187.823C188.576 23.9558 189.181 23.6991 189.644 23.1857C190.103 22.6722 190.431 21.8008 190.62 20.5713H190.985C190.954 20.9226 190.938 21.3651 190.938 21.9055C190.938 22.8817 190.975 23.6856 191.049 24.3206Z" fill="#F3F3F3"/>
<path d="M197.203 13.0186C197.531 13.1234 197.865 13.2787 198.206 13.478C198.321 13.5422 198.426 13.5962 198.517 13.6368C198.608 13.6807 198.683 13.701 198.747 13.701C198.841 13.701 198.916 13.6469 198.97 13.5354C199.024 13.424 199.064 13.2483 199.098 13.0018H199.463C199.409 13.7111 199.382 14.9203 199.382 16.6261H199.017C198.973 16.0552 198.845 15.5081 198.629 14.9879C198.412 14.4677 198.105 14.0489 197.707 13.7246C197.308 13.4003 196.845 13.2382 196.315 13.2382C195.785 13.2382 195.376 13.3834 195.052 13.6739C194.727 13.9644 194.565 14.3596 194.565 14.8595C194.565 15.2311 194.646 15.5553 194.805 15.8289C194.964 16.1059 195.187 16.3559 195.474 16.5856C195.761 16.8152 196.2 17.1226 196.795 17.5144L197.305 17.8657C197.929 18.2778 198.423 18.6392 198.784 18.9466C199.145 19.254 199.439 19.612 199.666 20.0207C199.892 20.4294 200.007 20.9023 200.007 21.4428C200.007 22.1217 199.831 22.6925 199.483 23.1519C199.135 23.6147 198.659 23.9592 198.061 24.1923C197.463 24.4253 196.798 24.5402 196.065 24.5402C195.47 24.5402 194.977 24.4861 194.585 24.3814C194.194 24.2767 193.832 24.1315 193.505 23.9524C193.272 23.8038 193.093 23.7295 192.964 23.7295C192.87 23.7295 192.795 23.7869 192.741 23.895C192.687 24.0065 192.647 24.1855 192.613 24.4287H192.248C192.289 23.7599 192.312 22.3311 192.312 20.1356H192.677C192.751 21.3212 193.015 22.2838 193.471 23.0202C193.927 23.7565 194.626 24.1247 195.568 24.1247C196.139 24.1247 196.612 23.9727 196.984 23.6619C197.355 23.3546 197.541 22.9155 197.541 22.3412C197.541 21.767 197.352 21.2401 196.97 20.8145C196.588 20.3923 195.984 19.9126 195.156 19.3823C194.521 18.9702 194.011 18.6088 193.63 18.3015C193.248 17.9941 192.934 17.6327 192.691 17.2138C192.447 16.795 192.326 16.312 192.326 15.758C192.326 15.123 192.488 14.5859 192.812 14.1434C193.136 13.7043 193.569 13.3767 194.109 13.1673C194.65 12.9545 195.244 12.8498 195.889 12.8498C196.44 12.8498 196.879 12.9038 197.21 13.0085L197.203 13.0186Z" fill="#F3F3F3"/>
</g>
<defs>
<linearGradient id="paint0_linear_218_13" x1="16.9293" y1="8.48909" x2="80.6337" y2="8.48909" gradientUnits="userSpaceOnUse">
<stop offset="0.2" stop-color="#E1A507"/>
<stop offset="0.23" stop-color="#E2A916"/>
<stop offset="0.35" stop-color="#E9BB57"/>
<stop offset="0.43" stop-color="#EDC780"/>
<stop offset="0.48" stop-color="#EFCC90"/>
<stop offset="0.49" stop-color="#EECA89"/>
<stop offset="0.6" stop-color="#E8BA51"/>
<stop offset="0.69" stop-color="#E4AE29"/>
<stop offset="0.77" stop-color="#E1A710"/>
<stop offset="0.81" stop-color="#E1A507"/>
<stop offset="0.85" stop-color="#DCA107"/>
<stop offset="0.9" stop-color="#CE9709"/>
<stop offset="0.94" stop-color="#B8860D"/>
<stop offset="0.99" stop-color="#986E12"/>
<stop offset="1" stop-color="#916914"/>
</linearGradient>
<linearGradient id="paint1_linear_218_13" x1="24.384" y1="8.48909" x2="87.6898" y2="8.48909" gradientUnits="userSpaceOnUse">
<stop offset="0.2" stop-color="#E1A507"/>
<stop offset="0.23" stop-color="#E2A916"/>
<stop offset="0.35" stop-color="#E9BB57"/>
<stop offset="0.43" stop-color="#EDC780"/>
<stop offset="0.48" stop-color="#EFCC90"/>
<stop offset="0.49" stop-color="#EECA89"/>
<stop offset="0.6" stop-color="#E8BA51"/>
<stop offset="0.69" stop-color="#E4AE29"/>
<stop offset="0.77" stop-color="#E1A710"/>
<stop offset="0.81" stop-color="#E1A507"/>
<stop offset="0.85" stop-color="#DCA107"/>
<stop offset="0.9" stop-color="#CE9709"/>
<stop offset="0.94" stop-color="#B8860D"/>
<stop offset="0.99" stop-color="#986E12"/>
<stop offset="1" stop-color="#916914"/>
</linearGradient>
<linearGradient id="paint2_linear_218_13" x1="22.1615" y1="5.25658" x2="53.9123" y2="5.25658" gradientUnits="userSpaceOnUse">
<stop offset="0.2" stop-color="#E1A507"/>
<stop offset="0.23" stop-color="#E2A916"/>
<stop offset="0.35" stop-color="#E9BB57"/>
<stop offset="0.43" stop-color="#EDC780"/>
<stop offset="0.48" stop-color="#EFCC90"/>
<stop offset="0.49" stop-color="#EECA89"/>
<stop offset="0.6" stop-color="#E8BA51"/>
<stop offset="0.69" stop-color="#E4AE29"/>
<stop offset="0.77" stop-color="#E1A710"/>
<stop offset="0.81" stop-color="#E1A507"/>
<stop offset="0.85" stop-color="#DCA107"/>
<stop offset="0.9" stop-color="#CE9709"/>
<stop offset="0.94" stop-color="#B8860D"/>
<stop offset="0.99" stop-color="#986E12"/>
<stop offset="1" stop-color="#916914"/>
</linearGradient>
<clipPath id="clip0_218_13">
<rect width="200" height="44.1472" fill="white" transform="translate(0 0.426392)"/>
</clipPath>
</defs>
</svg>
