<svg width="200" height="45" viewBox="0 0 200 45" fill="none" xmlns="http://www.w3.org/2000/svg">
<g clip-path="url(#clip0_60_410)">
<path d="M22.9888 37.9828V18C22.9888 13.5988 20.2832 9.58605 16.2164 8.46464C14.5917 8.01202 12.9569 8.08295 11.4572 8.57273C10.2682 8.93415 9.42715 9.45094 8.90698 9.8225C6.81277 11.3222 5.55287 13.7677 5.46167 14.4804C6.92086 14.0954 9.09951 13.8082 11.518 14.5716C17.4257 16.4294 19.4827 22.8674 19.6111 23.4146C19.7597 24.0462 19.861 24.6981 19.9049 25.4209C19.9353 25.8094 19.9455 26.2249 19.9455 26.6707V36.1723C19.9455 36.1723 19.9353 36.1656 19.932 36.1622V37.3816C19.932 37.3816 19.9421 37.3883 19.9455 37.3917C20.2765 37.591 20.6143 37.7903 20.952 37.9896C21.5938 38.3712 22.2525 38.7597 22.9179 39.165C22.9348 38.9792 22.9483 38.7867 22.9618 38.5874C22.9753 38.3814 22.9821 38.1787 22.9888 37.9862V37.9828Z" fill="#D3A132"/>
<path d="M17.3312 26.6573C17.3312 25.8129 17.2771 24.9617 17.0812 24.1442C16.3077 20.9421 14.0852 18.4527 11.2918 17.4732V17.4664C10.7682 17.2874 9.99809 17.0814 9.05232 17.0341C9.05232 17.0341 8.41731 17.0003 7.80256 17.0679C3.82019 17.4901 0.705901 20.8036 0.057373 24.9414C0.357993 24.7016 4.44507 21.5738 8.95775 23.5058C11.9437 24.7826 13.359 27.5119 13.7238 28.2752C14.835 30.6093 14.835 32.798 14.7776 33.7843C15.6626 34.4599 16.5442 35.1321 17.4291 35.8076C17.3954 32.7575 17.365 29.7074 17.3312 26.6607V26.6573Z" fill="#D3A132"/>
<path d="M24.2556 37.9828V18C24.2556 13.5988 26.9612 9.58605 31.028 8.46464C32.6527 8.01202 34.2875 8.08295 35.7873 8.57273C36.9762 8.93415 37.8173 9.45094 38.3375 9.8225C40.4317 11.3222 41.6916 13.7677 41.7828 14.4804C40.3236 14.0954 38.1449 13.8082 35.7265 14.5716C29.8188 16.4294 27.7617 22.8674 27.6334 23.4146C27.4847 24.0462 27.3834 24.6981 27.3395 25.4209C27.3091 25.8094 27.299 26.2249 27.299 26.6707V36.1723C27.299 36.1723 27.3091 36.1656 27.3125 36.1622V37.3816C27.3125 37.3816 27.3023 37.3883 27.299 37.3917C26.9679 37.591 26.6302 37.7903 26.2924 37.9896C25.6506 38.3712 24.992 38.7597 24.3265 39.165C24.3097 38.9792 24.2961 38.7867 24.2826 38.5874C24.2691 38.3814 24.2624 38.1787 24.2556 37.9862V37.9828Z" fill="#D3A132"/>
<path d="M29.9134 26.6573C29.9134 25.8129 29.9674 24.9617 30.1633 24.1442C30.9368 20.9421 33.1594 18.4527 35.9528 17.4732V17.4664C36.4764 17.2874 37.2465 17.0814 38.1923 17.0341C38.1923 17.0341 38.8273 17.0003 39.442 17.0679C43.4244 17.4935 46.5387 20.8036 47.1872 24.9414C46.8866 24.7016 42.7995 21.5738 38.2868 23.5058C35.3009 24.7826 33.8856 27.5119 33.5208 28.2752C32.4095 30.6093 32.4095 32.798 32.467 33.7843C31.582 34.4599 30.7004 35.1321 29.8154 35.8076C29.8492 32.7575 29.8796 29.7074 29.9134 26.6607V26.6573Z" fill="#D3A132"/>
<path d="M35.9864 1.60443C35.4595 9.95761 36.1012 15.6525 36.8376 19.4018C37.0774 20.6279 37.4861 22.4384 36.966 24.5529C36.1418 27.9104 33.9327 29.5182 30.8353 32.2812C29.0384 33.8822 26.3091 36.3851 23.6171 40.2425C21.0061 36.3682 18.1249 33.8755 16.338 32.2812C13.2508 29.5249 11.1025 27.9678 10.2716 24.6306C9.74466 22.5195 10.1567 20.6989 10.3999 19.4795C11.1498 15.7201 11.8152 10.0117 11.3592 1.60443M9.33595 0C9.33595 0 10.6972 6.6643 8.72795 18.8377C7.51534 26.3262 10.1162 30.4335 15.5206 34.3652C23.1645 39.9216 23.1611 42.7522 23.6205 44.1438C24.0798 42.7522 24.0765 39.9183 31.7169 34.3652C37.1247 30.4335 39.7256 26.3262 38.513 18.8377C36.5404 6.6643 37.9016 0 37.9016 0" fill="#D3A132"/>
<path d="M23.5968 11.0993C23.2084 9.72458 21.7154 7.14735 19.6111 5.94488C19.6111 5.94488 22.5328 6.54274 23.5563 10.417C23.509 9.58947 23.5833 8.70112 23.0969 7.55944C21.6749 4.20871 17.5709 3.66489 16.561 4.08711C15.8922 4.36747 16.4867 4.87413 16.4867 4.87413C16.534 4.68497 17.5034 4.08711 17.6655 5.6071C17.8276 7.12709 18.5268 7.46486 18.5268 7.46486C18.6146 8.7653 20.3609 8.08299 20.3609 8.08299C20.0738 8.70788 20.3407 9.04903 20.3407 9.04903C21.9721 8.71125 23.0327 11.2209 23.0327 11.2209C23.303 11.481 23.7049 12.1734 23.7049 12.1734C23.6509 11.7884 23.6205 11.4405 23.5968 11.1061V11.0993Z" fill="url(#paint0_linear_60_410)"/>
<path d="M30.7949 4.06012C29.785 3.64466 25.681 4.2155 24.2793 7.57298C23.7996 8.71804 23.8807 9.60639 23.8401 10.4339C24.84 6.5529 27.7583 5.93815 27.7583 5.93815C25.6608 7.15414 24.1847 9.7415 23.803 11.1162C23.7827 11.454 23.7557 11.8019 23.7017 12.187C23.7017 12.187 24.1002 11.4912 24.3671 11.2311C24.3671 11.2311 25.4142 8.71466 27.0456 9.04231C27.0456 9.04231 27.3091 8.70115 27.0186 8.07627C27.0186 8.07627 28.7683 8.74844 28.8494 7.44801C28.8494 7.44801 29.5485 7.10685 29.7005 5.58687C29.8525 4.06688 30.8253 4.66136 30.8726 4.84714C30.8726 4.84714 31.4637 4.33372 30.7916 4.06012H30.7949Z" fill="url(#paint1_linear_60_410)"/>
<path d="M25.539 3.27637H21.8201C22.4247 4.30996 23.0293 5.34693 23.6339 6.38052C24.2689 5.34693 24.904 4.30996 25.539 3.27637Z" fill="url(#paint2_linear_60_410)"/>
<path d="M59.6139 34.544C58.8675 33.9023 58.6851 33.0578 58.6851 32.3552C58.6851 31.8587 58.8675 31.0008 59.5464 30.3387C60.0058 29.8962 60.7016 29.5483 61.8737 29.5483C62.1776 29.5483 62.6134 29.5754 62.9849 29.6362C63.272 29.6868 63.5152 29.7409 63.7686 29.7476C63.8463 29.7476 63.8632 29.7814 63.8632 29.8253C63.8632 29.8861 63.8463 29.9739 63.8294 30.2442C63.8192 30.4874 63.8192 30.8961 63.8125 31.0008C63.8023 31.1122 63.7686 31.1561 63.7247 31.1561C63.674 31.1561 63.6639 31.1055 63.6639 31.0008C63.6639 30.7137 63.5423 30.4198 63.343 30.261C63.0728 30.0347 62.5188 29.8523 61.8399 29.8523C60.857 29.8523 60.3874 30.1124 60.1206 30.3658C59.5565 30.8859 59.4349 31.548 59.4349 32.2945C59.4349 33.7097 60.5563 34.9696 62.1912 34.9696C62.7654 34.9696 63.1471 34.9257 63.4511 34.6217C63.6166 34.4562 63.7213 34.1421 63.7449 34.0036C63.7618 33.9259 63.7719 33.8989 63.8226 33.8989C63.8564 33.8989 63.8935 33.9495 63.8935 34.0036C63.8935 34.0576 63.7888 34.6994 63.7111 34.9494C63.6672 35.0879 63.6504 35.1149 63.5186 35.1655C63.2045 35.2871 62.6336 35.331 62.1371 35.331C60.9887 35.331 60.2152 35.0608 59.6173 34.5407L59.6139 34.544Z" fill="#484848"/>
<path d="M66.5755 31.7912C66.5755 30.6428 66.5755 30.4367 66.5586 30.2003C66.5417 29.947 66.4978 29.8253 66.2445 29.7916C66.1837 29.7814 66.0519 29.7747 65.9844 29.7747C65.9574 29.7747 65.9236 29.7409 65.9236 29.7139C65.9236 29.67 65.9574 29.6531 66.0452 29.6531C66.3931 29.6531 66.8896 29.67 66.9302 29.67C66.9808 29.67 68.5819 29.6801 68.7541 29.67C68.9028 29.6598 69.0412 29.6362 69.102 29.6261C69.1358 29.6159 69.173 29.5923 69.2068 29.5923C69.2338 29.5923 69.2405 29.6261 69.2405 29.6632C69.2405 29.7139 69.1966 29.8017 69.1797 30.0111C69.1696 30.0821 69.1527 30.4097 69.1358 30.4975C69.1257 30.5313 69.102 30.5752 69.0649 30.5752C69.021 30.5752 69.0041 30.5414 69.0041 30.4806C69.0041 30.43 68.994 30.3084 68.9602 30.2205C68.9095 30.0989 68.8284 30.0483 68.413 29.9942C68.2813 29.9773 67.3963 29.9672 67.3085 29.9672C67.2747 29.9672 67.2646 29.9942 67.2646 30.0449V32.0513C67.2646 32.102 67.2646 32.129 67.3085 32.129C67.403 32.129 68.413 32.129 68.5853 32.1121C68.7677 32.0952 68.8791 32.0851 68.9602 32.0074C69.0109 31.9567 69.048 31.9128 69.0717 31.9128C69.0953 31.9128 69.1156 31.9297 69.1156 31.9736C69.1156 32.0175 69.0716 32.1391 69.0548 32.3823C69.0379 32.5309 69.021 32.8079 69.021 32.8619C69.021 32.9227 69.0041 33.0004 68.9501 33.0004C68.9163 33.0004 68.8994 32.9734 68.8994 32.9295C68.8994 32.8586 68.8994 32.7809 68.8656 32.6863C68.8386 32.5816 68.771 32.4938 68.4738 32.46C68.2644 32.433 67.447 32.4262 67.3186 32.4262C67.2747 32.4262 67.2679 32.4532 67.2679 32.4769V33.095C67.2679 33.3483 67.2578 34.2063 67.2679 34.3549C67.2848 34.8514 67.4233 34.946 68.1799 34.946C68.3792 34.946 68.744 34.946 68.9433 34.8683C69.1426 34.7805 69.2473 34.6522 69.2912 34.3549C69.3081 34.2671 69.325 34.2434 69.3689 34.2434C69.4128 34.2434 69.4196 34.3042 69.4196 34.3549C69.4196 34.4056 69.3588 34.9122 69.3148 35.0676C69.2642 35.2602 69.1831 35.2602 68.8892 35.2602C68.315 35.2602 67.8725 35.2433 67.5584 35.2331C67.2375 35.2162 67.0382 35.2162 66.9234 35.2162C66.9065 35.2162 66.7579 35.2162 66.5924 35.2264C66.4438 35.2365 66.2715 35.2433 66.1499 35.2433C66.0722 35.2433 66.0283 35.2264 66.0283 35.1825C66.0283 35.1554 66.0452 35.1217 66.0891 35.1217C66.16 35.1217 66.2546 35.0946 66.3222 35.0879C66.4708 35.0609 66.4877 34.9156 66.5214 34.6961C66.5654 34.3921 66.5654 33.8111 66.5654 33.0984V31.7946L66.5755 31.7912Z" fill="#484848"/>
<path d="M72.5541 34.2333C72.571 34.8413 72.642 35.0237 72.848 35.0777C72.9865 35.1115 73.1621 35.1216 73.2297 35.1216C73.2635 35.1216 73.2905 35.1487 73.2905 35.1824C73.2905 35.2263 73.2398 35.2432 73.152 35.2432C72.7163 35.2432 72.4123 35.2162 72.3447 35.2162C72.2772 35.2162 71.9529 35.2432 71.605 35.2432C71.5273 35.2432 71.4834 35.2331 71.4834 35.1824C71.4834 35.1487 71.5104 35.1216 71.5442 35.1216C71.605 35.1216 71.7435 35.1115 71.8583 35.0777C72.0509 35.0271 72.0745 34.8244 72.0745 34.1556V29.9233C72.0745 29.6294 72.1184 29.5483 72.1792 29.5483C72.267 29.5483 72.3954 29.697 72.4731 29.7746C72.5947 29.8962 73.706 31.0785 74.8882 32.2945C75.6448 33.0781 76.4622 33.9529 76.6953 34.1961L76.6176 30.4941C76.6074 30.0145 76.5669 29.8523 76.3305 29.8084C76.192 29.7814 76.0163 29.7746 75.9555 29.7746C75.9049 29.7746 75.8947 29.7307 75.8947 29.7037C75.8947 29.6598 75.9555 29.653 76.0434 29.653C76.3913 29.653 76.7561 29.6699 76.8439 29.6699C76.9317 29.6699 77.1817 29.653 77.4958 29.653C77.5735 29.653 77.6343 29.6632 77.6343 29.7037C77.6343 29.7307 77.6005 29.7746 77.5465 29.7746C77.5127 29.7746 77.4519 29.7746 77.3641 29.7915C77.1107 29.8422 77.0938 29.9908 77.0938 30.4333L77.077 34.7602C77.077 35.2466 77.0668 35.2905 77.0162 35.2905C76.9385 35.2905 76.8608 35.2297 76.4352 34.8379C76.3575 34.767 75.253 33.6827 74.4457 32.8383C73.5607 31.9094 72.6994 31.0041 72.4629 30.7441L72.5508 34.2299L72.5541 34.2333Z" fill="#484848"/>
<path d="M82.0084 33.095C82.0084 33.8077 82.0084 34.3887 82.0422 34.6927C82.0692 34.9089 82.103 35.0474 82.3394 35.0845C82.4441 35.1014 82.6164 35.1183 82.6873 35.1183C82.738 35.1183 82.7481 35.1521 82.7481 35.1791C82.7481 35.2129 82.7144 35.2399 82.6265 35.2399C82.2111 35.2399 81.7213 35.2129 81.6808 35.2129C81.647 35.2129 81.1167 35.2399 80.8904 35.2399C80.8026 35.2399 80.7688 35.223 80.7688 35.1791C80.7688 35.1521 80.7857 35.1284 80.8296 35.1284C80.9005 35.1284 80.985 35.1115 81.0559 35.0946C81.2113 35.0609 81.2552 34.9122 81.2822 34.6961C81.316 34.3921 81.316 33.8111 81.316 33.0984V29.9976L80.2114 30.0145C79.7352 30.0246 79.5494 30.0753 79.4379 30.2476C79.3501 30.3793 79.3434 30.43 79.3163 30.4806C79.2995 30.5414 79.2724 30.5516 79.2387 30.5516C79.2218 30.5516 79.188 30.5347 79.188 30.4908C79.188 30.4131 79.3434 29.751 79.3535 29.6902C79.3704 29.6463 79.4042 29.5518 79.4312 29.5518C79.4819 29.5518 79.5629 29.6126 79.769 29.6396C79.9851 29.6666 80.2824 29.6734 80.3702 29.6734H83.2548C83.5081 29.6734 83.6804 29.6565 83.802 29.6396C83.9135 29.6227 83.9844 29.6058 84.0182 29.6058C84.052 29.6058 84.0519 29.6497 84.0519 29.6936C84.0519 29.9199 84.0249 30.4502 84.0249 30.5381C84.0249 30.5989 83.9912 30.6326 83.954 30.6326C83.9168 30.6326 83.9033 30.6056 83.8932 30.5009L83.8831 30.4232C83.856 30.1969 83.6905 30.0314 82.9609 30.0145L82.005 29.9976V33.0984L82.0084 33.095Z" fill="#484848"/>
<path d="M86.5076 31.7912C86.5076 30.6428 86.5076 30.4367 86.4907 30.2003C86.4738 29.9469 86.4299 29.8253 86.1766 29.7916C86.1158 29.7814 85.9841 29.7747 85.9165 29.7747C85.8895 29.7747 85.8557 29.7409 85.8557 29.7139C85.8557 29.67 85.8895 29.6531 85.9773 29.6531C86.3252 29.6531 86.8386 29.67 86.8826 29.67C86.9602 29.67 87.6054 29.6531 87.8385 29.6531C88.3248 29.6531 88.8653 29.697 89.2639 29.974C89.4564 30.1124 89.7942 30.4705 89.7942 30.9805C89.7942 31.5277 89.5679 32.058 88.8552 32.666C89.48 33.4497 90.0104 34.1185 90.4528 34.5778C90.8615 34.9933 91.1149 35.0642 91.304 35.0913C91.4526 35.1183 91.5303 35.1183 91.5742 35.1183C91.6182 35.1183 91.6452 35.1521 91.6452 35.1791C91.6452 35.223 91.6013 35.2399 91.4628 35.2399H90.9865C90.5508 35.2399 90.3616 35.196 90.1691 35.0913C89.8381 34.919 89.5611 34.5609 89.1254 34.0036C88.8045 33.605 88.4633 33.1254 88.3012 32.9261C88.2674 32.8923 88.2505 32.8822 88.1965 32.8822L87.2237 32.8653C87.1899 32.8653 87.173 32.8822 87.173 32.9261V33.0984C87.173 33.8111 87.173 34.3853 87.2068 34.6893C87.2338 34.9055 87.2777 35.044 87.5108 35.0811C87.6155 35.098 87.781 35.1149 87.8486 35.1149C87.8993 35.1149 87.9094 35.1487 87.9094 35.1757C87.9094 35.2095 87.8756 35.2365 87.7878 35.2365C87.3723 35.2365 86.8826 35.2095 86.8488 35.2095C86.8386 35.2095 86.3286 35.2365 86.0922 35.2365C86.0145 35.2365 85.9706 35.2196 85.9706 35.1757C85.9706 35.1487 85.9874 35.1149 86.0314 35.1149C86.1023 35.1149 86.1969 35.098 86.2644 35.0811C86.413 35.0473 86.4299 34.9089 86.4637 34.6893C86.5076 34.3853 86.5076 33.8043 86.5076 33.0916V31.7878V31.7912ZM87.1697 32.4161C87.1697 32.46 87.1865 32.487 87.2203 32.5107C87.3318 32.5715 87.7236 32.6221 88.0648 32.6221C88.2472 32.6221 88.4566 32.612 88.639 32.4904C88.8991 32.3181 89.0984 31.9263 89.0984 31.3622C89.0984 30.4401 88.5951 29.9098 87.7777 29.9098C87.5513 29.9098 87.3081 29.9368 87.2305 29.9537C87.1967 29.9706 87.1697 29.9976 87.1697 30.0415V32.4127V32.4161Z" fill="#484848"/>
<path d="M95.5025 29.5483C97.2217 29.5483 98.5255 30.5988 98.5255 32.3215C98.5255 34.0441 97.2994 35.3378 95.4585 35.3378C93.3643 35.3378 92.4692 33.7638 92.4692 32.4363C92.4692 31.2473 93.3914 29.5517 95.5025 29.5517V29.5483ZM95.6747 35.0304C96.3604 35.0304 97.7419 34.6656 97.7419 32.5275C97.7419 30.7542 96.6644 29.8253 95.4552 29.8253C94.1784 29.8253 93.2562 30.6258 93.2562 32.2337C93.2562 33.9529 94.2898 35.0304 95.6713 35.0304H95.6747Z" fill="#484848"/>
<path d="M104.923 31.7912C104.923 30.6428 104.923 30.4367 104.906 30.2003C104.889 29.947 104.845 29.8253 104.592 29.7916C104.531 29.7814 104.4 29.7747 104.332 29.7747C104.305 29.7747 104.271 29.7409 104.271 29.7139C104.271 29.67 104.305 29.6531 104.393 29.6531C104.741 29.6531 105.237 29.67 105.278 29.67C105.328 29.67 106.93 29.6801 107.102 29.67C107.25 29.6598 107.389 29.6362 107.45 29.6261C107.483 29.6159 107.521 29.5923 107.554 29.5923C107.581 29.5923 107.588 29.6261 107.588 29.6632C107.588 29.7139 107.544 29.8017 107.527 30.0111C107.517 30.0821 107.5 30.4097 107.483 30.4975C107.473 30.5313 107.45 30.5752 107.413 30.5752C107.369 30.5752 107.352 30.5414 107.352 30.4806C107.352 30.43 107.342 30.3084 107.308 30.2205C107.257 30.0989 107.176 30.0483 106.761 29.9942C106.629 29.9773 105.744 29.9672 105.656 29.9672C105.622 29.9672 105.612 29.9942 105.612 30.0449V32.0513C105.612 32.102 105.612 32.129 105.656 32.129C105.751 32.129 106.761 32.129 106.933 32.1121C107.115 32.0952 107.227 32.0851 107.308 32.0074C107.359 31.9567 107.396 31.9128 107.419 31.9128C107.443 31.9128 107.463 31.9297 107.463 31.9736C107.463 32.0175 107.419 32.1391 107.402 32.3823C107.386 32.5309 107.369 32.8079 107.369 32.8619C107.369 32.9227 107.352 33.0004 107.298 33.0004C107.264 33.0004 107.247 32.9734 107.247 32.9295C107.247 32.8586 107.247 32.7809 107.213 32.6863C107.186 32.5816 107.119 32.4938 106.821 32.46C106.612 32.433 105.795 32.4262 105.666 32.4262C105.622 32.4262 105.616 32.4532 105.616 32.4769V33.095C105.616 33.3483 105.605 34.2063 105.616 34.3549C105.632 34.8514 105.771 34.946 106.528 34.946C106.727 34.946 107.092 34.946 107.291 34.8683C107.49 34.7805 107.595 34.6522 107.639 34.3549C107.656 34.2671 107.673 34.2434 107.717 34.2434C107.76 34.2434 107.767 34.3042 107.767 34.3549C107.767 34.4056 107.706 34.9122 107.662 35.0676C107.612 35.2602 107.531 35.2602 107.237 35.2602C106.663 35.2602 106.22 35.2433 105.906 35.2331C105.585 35.2162 105.386 35.2162 105.271 35.2162C105.254 35.2162 105.106 35.2162 104.94 35.2264C104.791 35.2365 104.619 35.2433 104.498 35.2433C104.42 35.2433 104.376 35.2264 104.376 35.1825C104.376 35.1554 104.393 35.1217 104.437 35.1217C104.508 35.1217 104.602 35.0946 104.67 35.0879C104.818 35.0609 104.835 34.9156 104.869 34.6961C104.913 34.3921 104.913 33.8111 104.913 33.0984V31.7946L104.923 31.7912Z" fill="#484848"/>
<path d="M116.306 34.2839C116.333 34.544 116.384 34.946 116.698 35.0473C116.914 35.1182 117.117 35.1182 117.194 35.1182C117.228 35.1182 117.255 35.1351 117.255 35.1689C117.255 35.2128 117.184 35.2398 117.1 35.2398C116.928 35.2398 116.073 35.223 115.796 35.1959C115.614 35.179 115.58 35.152 115.58 35.1182C115.58 35.0912 115.597 35.0676 115.631 35.0575C115.674 35.0473 115.681 34.9358 115.664 34.7974L115.3 31.0616H115.283L113.442 34.8345C113.286 35.1554 113.242 35.2263 113.172 35.2263C113.101 35.2263 113.06 35.1554 112.911 34.8886C112.712 34.5238 112.209 33.578 112.016 33.176C111.79 32.7065 111.172 31.4635 111.044 31.1595H111.01L110.716 34.4967C110.706 34.6082 110.706 34.7501 110.706 34.8717C110.706 34.9831 110.777 35.0541 110.888 35.0811C111.02 35.1149 111.131 35.125 111.182 35.125C111.209 35.125 111.243 35.152 111.243 35.1757C111.243 35.2263 111.192 35.2466 111.104 35.2466C110.817 35.2466 110.452 35.2196 110.392 35.2196C110.321 35.2196 109.956 35.2466 109.75 35.2466C109.672 35.2466 109.618 35.2297 109.618 35.1757C109.618 35.1486 109.652 35.125 109.696 35.125C109.757 35.125 109.807 35.1149 109.922 35.098C110.175 35.0541 110.182 34.7839 110.216 34.5069L110.773 29.6834C110.783 29.6058 110.817 29.5517 110.861 29.5517C110.912 29.5517 110.973 29.5787 111.017 29.6632L113.327 34.2502L115.553 29.6699C115.587 29.599 115.624 29.5483 115.674 29.5483C115.725 29.5483 115.769 29.6091 115.786 29.7476L116.306 34.2839Z" fill="#484848"/>
<path d="M119.478 31.7912C119.478 30.6428 119.478 30.4367 119.461 30.2003C119.444 29.9469 119.4 29.8253 119.147 29.7916C119.086 29.7814 118.954 29.7747 118.887 29.7747C118.86 29.7747 118.826 29.7409 118.826 29.7139C118.826 29.67 118.86 29.6531 118.948 29.6531C119.295 29.6531 119.772 29.67 119.832 29.67C119.998 29.67 120.572 29.6531 120.92 29.6531C121.903 29.6531 122.251 29.9571 122.379 30.0719C122.552 30.2273 122.761 30.5583 122.761 30.9569C122.761 32.0175 121.96 32.7201 120.788 32.7201C120.744 32.7201 120.616 32.7201 120.572 32.7099C120.538 32.7099 120.495 32.6762 120.495 32.639C120.495 32.5782 120.538 32.5613 120.694 32.5613C121.518 32.5613 122.109 32.0411 122.109 31.3724C122.109 31.1292 122.082 30.6495 121.673 30.2509C121.275 29.8524 120.812 29.8963 120.64 29.8963C120.508 29.8963 120.292 29.9301 120.214 29.9469C120.17 29.9571 120.153 30.0077 120.153 30.0854V33.0916C120.153 33.8043 120.153 34.3853 120.187 34.6893C120.214 34.9055 120.258 35.044 120.491 35.0811C120.596 35.098 120.761 35.1149 120.829 35.1149C120.873 35.1149 120.89 35.1487 120.89 35.1757C120.89 35.2095 120.856 35.2365 120.768 35.2365C120.353 35.2365 119.846 35.2095 119.812 35.2095C119.785 35.2095 119.292 35.2365 119.056 35.2365C118.978 35.2365 118.934 35.2196 118.934 35.1757C118.934 35.1487 118.951 35.1149 118.995 35.1149C119.066 35.1149 119.16 35.098 119.228 35.0811C119.377 35.0473 119.393 34.9089 119.427 34.6893C119.471 34.3853 119.471 33.8043 119.471 33.0916V31.7878L119.478 31.7912Z" fill="#484848"/>
<path d="M125.318 31.7912C125.318 30.6428 125.318 30.4367 125.301 30.2003C125.284 29.9469 125.24 29.8253 124.987 29.7916C124.926 29.7814 124.794 29.7747 124.727 29.7747C124.7 29.7747 124.666 29.7409 124.666 29.7139C124.666 29.67 124.7 29.6531 124.788 29.6531C125.136 29.6531 125.649 29.67 125.693 29.67C125.771 29.67 126.416 29.6531 126.649 29.6531C127.135 29.6531 127.676 29.697 128.074 29.974C128.267 30.1124 128.604 30.4705 128.604 30.9805C128.604 31.5277 128.378 32.058 127.665 32.666C128.29 33.4497 128.821 34.1185 129.263 34.5778C129.672 34.9933 129.925 35.0642 130.114 35.0913C130.263 35.1183 130.341 35.1183 130.385 35.1183C130.428 35.1183 130.455 35.1521 130.455 35.1791C130.455 35.223 130.412 35.2399 130.273 35.2399H129.797C129.361 35.2399 129.172 35.196 128.979 35.0913C128.648 34.919 128.371 34.5609 127.936 34.0036C127.615 33.605 127.274 33.1254 127.112 32.9261C127.078 32.8923 127.061 32.8822 127.007 32.8822L126.034 32.8653C126 32.8653 125.983 32.8822 125.983 32.9261V33.0984C125.983 33.8111 125.983 34.3853 126.017 34.6893C126.044 34.9055 126.088 35.044 126.321 35.0811C126.426 35.098 126.591 35.1149 126.659 35.1149C126.71 35.1149 126.72 35.1487 126.72 35.1757C126.72 35.2095 126.686 35.2365 126.598 35.2365C126.183 35.2365 125.693 35.2095 125.659 35.2095C125.649 35.2095 125.139 35.2365 124.902 35.2365C124.825 35.2365 124.781 35.2196 124.781 35.1757C124.781 35.1487 124.798 35.1149 124.842 35.1149C124.913 35.1149 125.007 35.098 125.075 35.0811C125.223 35.0473 125.24 34.9089 125.274 34.6893C125.318 34.3853 125.318 33.8043 125.318 33.0916V31.7878V31.7912ZM125.98 32.4161C125.98 32.46 125.997 32.487 126.031 32.5107C126.142 32.5715 126.534 32.6221 126.875 32.6221C127.057 32.6221 127.267 32.612 127.449 32.4904C127.709 32.3181 127.909 31.9263 127.909 31.3622C127.909 30.4401 127.405 29.9098 126.588 29.9098C126.362 29.9098 126.118 29.9368 126.041 29.9537C126.007 29.9706 125.98 29.9976 125.98 30.0415V32.4127V32.4161Z" fill="#484848"/>
<path d="M132.026 31.7912C132.026 30.6428 132.026 30.4367 132.009 30.2003C131.992 29.947 131.948 29.8253 131.695 29.7916C131.634 29.7814 131.503 29.7747 131.435 29.7747C131.408 29.7747 131.374 29.7409 131.374 29.7139C131.374 29.67 131.408 29.6531 131.496 29.6531C131.844 29.6531 132.34 29.67 132.381 29.67C132.432 29.67 134.033 29.6801 134.205 29.67C134.353 29.6598 134.492 29.6362 134.553 29.6261C134.587 29.6159 134.624 29.5923 134.657 29.5923C134.684 29.5923 134.691 29.6261 134.691 29.6632C134.691 29.7139 134.647 29.8017 134.63 30.0111C134.62 30.0821 134.603 30.4097 134.587 30.4975C134.576 30.5313 134.553 30.5752 134.516 30.5752C134.472 30.5752 134.455 30.5414 134.455 30.4806C134.455 30.43 134.445 30.3084 134.411 30.2205C134.36 30.0989 134.279 30.0483 133.864 29.9942C133.732 29.9773 132.847 29.9672 132.759 29.9672C132.725 29.9672 132.715 29.9942 132.715 30.0449V32.0513C132.715 32.102 132.715 32.129 132.759 32.129C132.854 32.129 133.864 32.129 134.036 32.1121C134.218 32.0952 134.33 32.0851 134.411 32.0074C134.462 31.9567 134.499 31.9128 134.522 31.9128C134.546 31.9128 134.566 31.9297 134.566 31.9736C134.566 32.0175 134.522 32.1391 134.505 32.3823C134.489 32.5309 134.472 32.8079 134.472 32.8619C134.472 32.9227 134.455 33.0004 134.401 33.0004C134.367 33.0004 134.35 32.9734 134.35 32.9295C134.35 32.8586 134.35 32.7809 134.316 32.6863C134.289 32.5816 134.222 32.4938 133.924 32.46C133.715 32.433 132.898 32.4262 132.769 32.4262C132.725 32.4262 132.719 32.4532 132.719 32.4769V33.095C132.719 33.3483 132.708 34.2063 132.719 34.3549C132.736 34.8514 132.874 34.946 133.631 34.946C133.83 34.946 134.195 34.946 134.394 34.8683C134.593 34.7805 134.698 34.6522 134.742 34.3549C134.759 34.2671 134.776 34.2434 134.82 34.2434C134.863 34.2434 134.87 34.3042 134.87 34.3549C134.87 34.4056 134.809 34.9122 134.766 35.0676C134.715 35.2602 134.634 35.2602 134.34 35.2602C133.766 35.2602 133.323 35.2433 133.009 35.2331C132.688 35.2162 132.489 35.2162 132.374 35.2162C132.357 35.2162 132.209 35.2162 132.043 35.2264C131.894 35.2365 131.722 35.2433 131.601 35.2433C131.523 35.2433 131.479 35.2264 131.479 35.1825C131.479 35.1554 131.496 35.1217 131.54 35.1217C131.611 35.1217 131.705 35.0946 131.773 35.0879C131.921 35.0609 131.938 34.9156 131.972 34.6961C132.016 34.3921 132.016 33.8111 132.016 33.0984V31.7946L132.026 31.7912Z" fill="#484848"/>
<path d="M137.039 35.1353C136.934 35.0846 136.927 35.0576 136.927 34.8583C136.927 34.4935 136.961 34.1962 136.971 34.0746C136.971 33.997 136.988 33.9531 137.032 33.9531C137.076 33.9531 137.103 33.9801 137.103 34.0409C137.103 34.1017 137.103 34.2064 137.13 34.3111C137.252 34.8515 137.826 35.0407 138.339 35.0407C139.096 35.0407 139.488 34.6151 139.488 34.0578C139.488 33.5004 139.2 33.2741 138.522 32.7708L138.174 32.5108C137.349 31.8926 137.079 31.4434 137.079 30.93C137.079 30.0619 137.765 29.5383 138.775 29.5383C139.079 29.5383 139.383 29.5822 139.565 29.6262C139.714 29.6599 139.775 29.6599 139.835 29.6599C139.896 29.6599 139.913 29.6701 139.913 29.7106C139.913 29.7444 139.879 29.9876 139.879 30.4942C139.879 30.6057 139.869 30.6597 139.819 30.6597C139.768 30.6597 139.758 30.626 139.748 30.5652C139.738 30.4773 139.677 30.2781 139.636 30.2004C139.586 30.1125 139.332 29.8356 138.647 29.8356C138.089 29.8356 137.63 30.1125 137.63 30.6361C137.63 31.1056 137.863 31.3758 138.62 31.8859L138.836 32.0345C139.765 32.6695 140.085 33.1829 140.085 33.8146C140.085 34.2503 139.92 34.7198 139.373 35.0745C139.052 35.2839 138.572 35.3346 138.157 35.3346C137.802 35.3346 137.356 35.2839 137.045 35.1353H137.039Z" fill="#484848"/>
<path d="M144.27 29.8018C144.365 29.5586 144.402 29.5146 144.453 29.5146C144.53 29.5146 144.558 29.6194 144.635 29.7849C144.774 30.099 146 33.1491 146.469 34.2705C146.746 34.9326 146.956 35.0271 147.121 35.0778C147.233 35.1116 147.348 35.1217 147.425 35.1217C147.469 35.1217 147.52 35.1386 147.52 35.1825C147.52 35.2264 147.432 35.2433 147.348 35.2433C147.236 35.2433 146.669 35.2433 146.138 35.2264C145.99 35.2163 145.868 35.2163 145.868 35.1758C145.868 35.142 145.885 35.142 145.919 35.1251C145.963 35.1082 146.04 35.0474 145.99 34.9258L145.304 33.2302C145.287 33.1964 145.277 33.1863 145.233 33.1863H143.47C143.436 33.1863 143.409 33.2032 143.392 33.2471L142.956 34.4293C142.886 34.6117 142.845 34.7941 142.845 34.9258C142.845 35.0744 142.977 35.1251 143.105 35.1251H143.176C143.237 35.1251 143.254 35.1521 143.254 35.1859C143.254 35.2298 143.21 35.2467 143.142 35.2467C142.96 35.2467 142.544 35.2197 142.457 35.2197C142.379 35.2197 141.997 35.2467 141.683 35.2467C141.588 35.2467 141.534 35.2298 141.534 35.1859C141.534 35.1521 141.568 35.1251 141.605 35.1251C141.656 35.1251 141.771 35.115 141.832 35.1082C142.18 35.0643 142.328 34.8042 142.473 34.4293L144.274 29.8051L144.27 29.8018ZM145.122 32.8789C145.155 32.8789 145.155 32.862 145.149 32.8282L144.392 30.8049C144.348 30.6935 144.304 30.6935 144.26 30.8049L143.548 32.8282C143.537 32.862 143.548 32.8789 143.575 32.8789H145.122Z" fill="#484848"/>
<path d="M149.398 31.7912C149.398 30.6428 149.398 30.4367 149.381 30.2003C149.364 29.9469 149.32 29.8253 149.067 29.7916C149.006 29.7814 148.874 29.7747 148.807 29.7747C148.78 29.7747 148.746 29.7409 148.746 29.7139C148.746 29.67 148.78 29.6531 148.868 29.6531C149.216 29.6531 149.729 29.67 149.773 29.67C149.851 29.67 150.496 29.6531 150.729 29.6531C151.215 29.6531 151.756 29.697 152.154 29.974C152.347 30.1124 152.685 30.4705 152.685 30.9805C152.685 31.5277 152.458 32.058 151.746 32.666C152.37 33.4497 152.901 34.1185 153.343 34.5778C153.752 34.9933 154.005 35.0642 154.194 35.0913C154.343 35.1183 154.421 35.1183 154.465 35.1183C154.509 35.1183 154.536 35.1521 154.536 35.1791C154.536 35.223 154.492 35.2399 154.353 35.2399H153.877C153.441 35.2399 153.252 35.196 153.059 35.0913C152.728 34.919 152.451 34.5609 152.016 34.0036C151.695 33.605 151.354 33.1254 151.192 32.9261C151.158 32.8923 151.141 32.8822 151.087 32.8822L150.114 32.8653C150.08 32.8653 150.063 32.8822 150.063 32.9261V33.0984C150.063 33.8111 150.063 34.3853 150.097 34.6893C150.124 34.9055 150.168 35.044 150.401 35.0811C150.506 35.098 150.671 35.1149 150.739 35.1149C150.79 35.1149 150.8 35.1487 150.8 35.1757C150.8 35.2095 150.766 35.2365 150.678 35.2365C150.263 35.2365 149.773 35.2095 149.739 35.2095C149.729 35.2095 149.219 35.2365 148.983 35.2365C148.905 35.2365 148.861 35.2196 148.861 35.1757C148.861 35.1487 148.878 35.1149 148.922 35.1149C148.993 35.1149 149.087 35.098 149.155 35.0811C149.303 35.0473 149.32 34.9089 149.354 34.6893C149.398 34.3853 149.398 33.8043 149.398 33.0916V31.7878V31.7912ZM150.06 32.4161C150.06 32.46 150.077 32.487 150.111 32.5107C150.222 32.5715 150.614 32.6221 150.955 32.6221C151.138 32.6221 151.347 32.612 151.529 32.4904C151.789 32.3181 151.989 31.9263 151.989 31.3622C151.989 30.4401 151.485 29.9098 150.668 29.9098C150.442 29.9098 150.199 29.9368 150.121 29.9537C150.087 29.9706 150.06 29.9976 150.06 30.0415V32.4127V32.4161Z" fill="#484848"/>
<path d="M156.802 33.095C156.802 33.8077 156.802 34.3887 156.836 34.6927C156.863 34.9089 156.886 35.0473 157.113 35.0845C157.224 35.1014 157.39 35.1183 157.461 35.1183C157.505 35.1183 157.521 35.1521 157.521 35.1791C157.521 35.2129 157.488 35.2399 157.4 35.2399C156.974 35.2399 156.478 35.2129 156.444 35.2129C156.4 35.2129 155.924 35.2399 155.687 35.2399C155.61 35.2399 155.566 35.223 155.566 35.1791C155.566 35.1521 155.583 35.1183 155.627 35.1183C155.697 35.1183 155.792 35.1014 155.86 35.0845C156.008 35.0507 156.032 34.9122 156.059 34.6927C156.093 34.3887 156.103 33.8077 156.103 33.095V31.7912C156.103 30.6428 156.103 30.4367 156.086 30.2003C156.069 29.9469 156.008 29.8355 155.843 29.8017C155.755 29.7848 155.66 29.7747 155.61 29.7747C155.576 29.7747 155.549 29.7409 155.549 29.7139C155.549 29.67 155.583 29.6531 155.67 29.6531C155.924 29.6531 156.4 29.67 156.444 29.67C156.478 29.67 156.974 29.6531 157.207 29.6531C157.295 29.6531 157.329 29.67 157.329 29.7139C157.329 29.7409 157.295 29.7747 157.268 29.7747C157.217 29.7747 157.163 29.7747 157.076 29.7916C156.866 29.8355 156.822 29.9402 156.805 30.2003C156.795 30.4333 156.795 30.6428 156.795 31.7912V33.095H156.802Z" fill="#484848"/>
<path d="M161.521 29.8018C161.615 29.5586 161.652 29.5146 161.703 29.5146C161.781 29.5146 161.808 29.6194 161.885 29.7849C162.024 30.099 163.25 33.1491 163.72 34.2705C163.997 34.9326 164.206 35.0271 164.371 35.0778C164.483 35.1116 164.598 35.1217 164.675 35.1217C164.719 35.1217 164.77 35.1386 164.77 35.1825C164.77 35.2264 164.682 35.2433 164.598 35.2433C164.486 35.2433 163.919 35.2433 163.389 35.2264C163.24 35.2163 163.118 35.2163 163.118 35.1758C163.118 35.142 163.135 35.142 163.169 35.1251C163.213 35.1082 163.291 35.0474 163.24 34.9258L162.554 33.2302C162.537 33.1964 162.527 33.1863 162.483 33.1863H160.72C160.686 33.1863 160.659 33.2032 160.642 33.2471L160.207 34.4293C160.136 34.6117 160.095 34.7941 160.095 34.9258C160.095 35.0744 160.227 35.1251 160.355 35.1251H160.426C160.487 35.1251 160.504 35.1521 160.504 35.1859C160.504 35.2298 160.46 35.2467 160.392 35.2467C160.21 35.2467 159.795 35.2197 159.707 35.2197C159.629 35.2197 159.247 35.2467 158.933 35.2467C158.839 35.2467 158.785 35.2298 158.785 35.1859C158.785 35.1521 158.818 35.1251 158.856 35.1251C158.906 35.1251 159.021 35.115 159.082 35.1082C159.43 35.0643 159.578 34.8042 159.724 34.4293L161.524 29.8051L161.521 29.8018ZM162.372 32.8789C162.406 32.8789 162.406 32.862 162.399 32.8282L161.642 30.8049C161.598 30.6935 161.554 30.6935 161.511 30.8049L160.798 32.8282C160.788 32.862 160.798 32.8789 160.825 32.8789H162.372Z" fill="#484848"/>
<path d="M167.341 33.1119C167.341 34.1995 167.357 34.642 167.496 34.7704C167.618 34.892 167.915 34.946 168.513 34.946C168.911 34.946 169.252 34.9359 169.435 34.7197C169.529 34.6082 169.59 34.4495 169.617 34.3009C169.627 34.2502 169.651 34.2063 169.695 34.2063C169.729 34.2063 169.746 34.2401 169.746 34.3177C169.746 34.3954 169.695 34.8379 169.634 35.0575C169.583 35.2331 169.556 35.2568 169.148 35.2568C168.6 35.2568 168.175 35.2466 167.817 35.2297C167.469 35.2196 167.209 35.2129 166.983 35.2129C166.949 35.2129 166.817 35.2129 166.668 35.223C166.513 35.2331 166.348 35.2399 166.226 35.2399C166.148 35.2399 166.104 35.223 166.104 35.1791C166.104 35.1521 166.121 35.1183 166.165 35.1183C166.236 35.1183 166.331 35.1014 166.398 35.0845C166.547 35.0507 166.564 34.9122 166.597 34.6927C166.641 34.3887 166.641 33.8077 166.641 33.095V31.7912C166.641 30.6428 166.641 30.4367 166.625 30.2003C166.608 29.9469 166.564 29.8253 166.31 29.7916C166.25 29.7814 166.118 29.7747 166.05 29.7747C166.023 29.7747 165.99 29.7409 165.99 29.7139C165.99 29.67 166.023 29.6531 166.111 29.6531C166.459 29.6531 166.935 29.67 166.979 29.67C167.013 29.67 167.587 29.6531 167.824 29.6531C167.901 29.6531 167.945 29.67 167.945 29.7139C167.945 29.7409 167.911 29.7645 167.884 29.7645C167.834 29.7645 167.719 29.7747 167.631 29.7814C167.405 29.8253 167.361 29.9368 167.344 30.2003C167.334 30.4333 167.334 30.6428 167.334 31.7912V33.1119H167.341Z" fill="#484848"/>
<path d="M67.0788 15.0579C67.0788 15.5578 67.0957 15.9598 67.1261 16.2671H66.7613C66.5485 15.0714 66.231 14.227 65.8087 13.7406C65.3865 13.2542 64.792 13.011 64.0287 13.011H63.5051C63.1775 13.011 62.9376 13.038 62.789 13.0921C62.6404 13.1461 62.5391 13.2474 62.4884 13.4028C62.4344 13.5548 62.4073 13.8014 62.4073 14.1425V18.1486H62.9647C63.5254 18.1486 63.9543 17.9425 64.2448 17.527C64.5353 17.115 64.7414 16.6218 64.8562 16.0476H65.221C65.1906 16.4935 65.1737 16.99 65.1737 17.5406V18.3039C65.1737 18.8444 65.2041 19.5976 65.2683 20.5603H64.9035C64.6806 19.1619 64.0354 18.4627 62.9647 18.4627H62.4073V22.1174C62.4073 22.543 62.4512 22.8504 62.5424 23.0463C62.6336 23.2422 62.7924 23.3706 63.0187 23.4347C63.245 23.4989 63.6098 23.5361 64.1063 23.5462V23.8975C62.8025 23.8671 61.8331 23.8502 61.1981 23.8502C60.6678 23.8502 59.999 23.8603 59.1951 23.8806L58.6851 23.8975V23.58C59.0363 23.5597 59.2931 23.5158 59.4552 23.4516C59.6207 23.3874 59.7322 23.2658 59.7896 23.0868C59.847 22.9078 59.8774 22.6139 59.8774 22.212V14.3283C59.8774 13.9264 59.847 13.6359 59.7896 13.4535C59.7322 13.2745 59.6207 13.1529 59.4552 13.0887C59.2897 13.0245 59.033 12.984 58.6851 12.9603V12.6428C59.8301 12.6732 61.5561 12.6901 63.8665 12.6901C65.4237 12.6901 66.5316 12.6732 67.1902 12.6428C67.1159 13.5447 67.0788 14.3486 67.0788 15.0579Z" fill="#484848"/>
<path d="M76.3034 13.1022C77.1444 13.5582 77.7997 14.2169 78.2658 15.0816C78.732 15.9463 78.965 16.9765 78.965 18.1722C78.965 19.368 78.7252 20.3711 78.249 21.273C77.7727 22.1749 77.1073 22.8741 76.2527 23.3706C75.3981 23.8705 74.4253 24.1171 73.3343 24.1171C72.2433 24.1171 71.2266 23.8908 70.3855 23.4348C69.5445 22.9788 68.8892 22.3201 68.4231 21.4554C67.9569 20.5907 67.7239 19.5605 67.7239 18.3648C67.7239 17.169 67.9637 16.1658 68.44 15.264C68.9162 14.3621 69.5816 13.6629 70.4362 13.1664C71.2908 12.6699 72.2602 12.4199 73.3546 12.4199C74.449 12.4199 75.4623 12.6496 76.3034 13.1022ZM71.7502 13.413C71.3043 13.8859 70.9631 14.5445 70.7233 15.3923C70.4835 16.2402 70.3653 17.2096 70.3653 18.3006C70.3653 19.3916 70.5004 20.3711 70.7706 21.2088C71.0408 22.0465 71.4056 22.6917 71.8684 23.1477C72.3278 23.6037 72.8412 23.83 73.4019 23.83C73.9626 23.83 74.4996 23.5935 74.9421 23.124C75.3846 22.6545 75.7291 21.9925 75.969 21.1447C76.2088 20.2968 76.327 19.3274 76.327 18.2364C76.327 17.1454 76.1919 16.1658 75.9217 15.3282C75.6515 14.4905 75.2867 13.8453 74.8239 13.3893C74.3645 12.9333 73.8511 12.707 73.2904 12.707C72.7297 12.707 72.1926 12.9435 71.7468 13.413H71.7502Z" fill="#484848"/>
<path d="M90.1421 12.9569C89.7908 13.0109 89.5341 13.0987 89.372 13.2271C89.2064 13.3554 89.095 13.5547 89.0376 13.8317C88.9801 14.1087 88.9497 14.514 88.9497 15.0545V23.9244L88.5681 23.9075L88.1391 23.9244L81.2417 15.1828V21.2864C81.2417 21.9113 81.2721 22.3707 81.3363 22.6611C81.4005 22.9516 81.539 23.1644 81.7484 23.2962C81.9612 23.4279 82.3057 23.5225 82.782 23.5731V23.8907C82.3699 23.8603 81.7957 23.8434 81.0661 23.8434C80.4817 23.8434 80.0223 23.8603 79.6846 23.8907V23.5731C80.0359 23.5191 80.2926 23.4313 80.4547 23.3029C80.6202 23.1746 80.7317 22.9753 80.7891 22.6983C80.8465 22.4213 80.8769 22.016 80.8769 21.4756V14.3215C80.8769 13.9195 80.8465 13.629 80.7891 13.4466C80.7317 13.2676 80.6202 13.146 80.4547 13.0818C80.2892 13.0177 80.0325 12.9771 79.6846 12.9535V12.636C80.0223 12.6664 80.4851 12.6833 81.0661 12.6833C81.5964 12.6833 82.0524 12.6664 82.4341 12.636L88.5849 20.219V15.2436C88.5849 14.6187 88.5545 14.1594 88.4904 13.8689C88.4262 13.5784 88.2877 13.3656 88.0783 13.2338C87.8655 13.1021 87.521 13.0075 87.0447 12.9569V12.6394C87.4568 12.6698 88.031 12.6867 88.7606 12.6867C89.3551 12.6867 89.8144 12.6698 90.1421 12.6394V12.9569Z" fill="#484848"/>
<path d="M100.299 15.3416C100.299 15.8416 100.316 16.2435 100.346 16.5509H99.9815C99.7282 15.2471 99.3803 14.3317 98.9412 13.8014C98.5021 13.2711 97.9008 13.0076 97.1375 13.0076H96.7727V22.0836C96.7727 22.5295 96.8166 22.8538 96.9078 23.053C96.999 23.2557 97.1577 23.3908 97.384 23.4584C97.6104 23.5259 97.9752 23.5665 98.4717 23.5766V23.8941C97.1375 23.8637 96.1309 23.8468 95.452 23.8468C94.773 23.8468 93.8138 23.8637 92.5437 23.8941V23.5766C93.0403 23.5665 93.4051 23.5259 93.6314 23.4584C93.8577 23.3908 94.0198 23.2557 94.1076 23.053C94.1988 22.8504 94.2427 22.5295 94.2427 22.0836V13.0076H93.8915C93.3814 13.0076 92.9524 13.1191 92.5944 13.342C92.2397 13.5649 91.9357 13.9331 91.679 14.4465C91.4257 14.96 91.2061 15.6625 91.0271 16.5543H90.6623C90.6927 16.2469 90.7096 15.8449 90.7096 15.345C90.7096 14.5513 90.6725 13.6494 90.5981 12.6428C91.5608 12.6732 93.199 12.6901 95.5094 12.6901C97.8198 12.6901 99.4512 12.6732 100.404 12.6428C100.329 13.6494 100.292 14.5513 100.292 15.345L100.299 15.3416Z" fill="#484848"/>
<path d="M109.79 23.8941C109.071 23.8637 107.855 23.8468 106.149 23.8468C103.839 23.8468 102.113 23.8637 100.968 23.8941V23.5766C101.319 23.5563 101.576 23.5124 101.738 23.4482C101.903 23.384 102.015 23.2624 102.072 23.0834C102.13 22.9044 102.16 22.6105 102.16 22.2086V14.3249C102.16 13.923 102.13 13.6325 102.072 13.4501C102.015 13.271 101.903 13.1494 101.738 13.0853C101.572 13.0211 101.316 12.9806 100.968 12.9569V12.6394C102.113 12.6698 103.839 12.6867 106.149 12.6867C107.706 12.6867 108.814 12.6698 109.473 12.6394C109.399 13.5176 109.361 14.3046 109.361 14.9903C109.361 15.4564 109.378 15.8179 109.409 16.0712H109.044C108.885 14.9363 108.598 14.1425 108.186 13.6865C107.774 13.2305 107.19 13.0042 106.436 13.0042H105.784C105.457 13.0042 105.217 13.0312 105.068 13.0853C104.92 13.1393 104.818 13.2406 104.768 13.396C104.714 13.548 104.687 13.7946 104.687 14.1357V18.0776H105.197C105.757 18.0776 106.186 17.8715 106.477 17.4561C106.767 17.044 106.973 16.5508 107.088 15.9766H107.453C107.423 16.4225 107.406 16.919 107.406 17.4696V18.233C107.406 18.7734 107.436 19.5266 107.5 20.4893H107.136C106.913 19.0909 106.267 18.3917 105.197 18.3917H104.687V22.3977C104.687 22.7355 104.714 22.9821 104.768 23.1375C104.822 23.2928 104.92 23.3942 105.068 23.4482C105.217 23.5023 105.457 23.5293 105.784 23.5293H106.565C107.318 23.5293 107.923 23.2726 108.385 22.7591C108.845 22.2457 109.172 21.3743 109.361 20.1448H109.726C109.696 20.4961 109.679 20.9385 109.679 21.479C109.679 22.4551 109.716 23.2591 109.79 23.8941Z" fill="#484848"/>
<path d="M122.984 23.3233C123.163 23.4821 123.339 23.5665 123.508 23.5766V23.8942C122.873 23.8638 122.065 23.8469 121.092 23.8469C120.012 23.8469 119.208 23.8638 118.677 23.8942V23.5766C119.079 23.5564 119.366 23.5057 119.535 23.4246C119.704 23.3436 119.789 23.2051 119.789 23.0024C119.789 22.8133 119.724 22.5566 119.599 22.2391L118.647 19.6314H115.181L114.769 20.7292C114.472 21.4926 114.323 22.0803 114.323 22.4924C114.323 22.9045 114.442 23.1578 114.681 23.3098C114.921 23.4652 115.273 23.5496 115.739 23.5733V23.8908C115.019 23.8604 114.361 23.8435 113.766 23.8435C113.28 23.8435 112.874 23.8604 112.557 23.8908V23.5733C113.077 23.4787 113.533 22.9214 113.925 21.9047L117.549 12.6057C117.664 12.6158 117.85 12.6226 118.107 12.6226C118.363 12.6226 118.542 12.6158 118.647 12.6057L122.511 22.5566C122.65 22.9079 122.808 23.1612 122.987 23.3199L122.984 23.3233ZM118.532 19.3173L116.958 15.0242L115.306 19.3173H118.532Z" fill="#484848"/>
<path d="M128.229 12.957C127.848 12.9773 127.571 13.0212 127.395 13.0853C127.22 13.1495 127.101 13.2711 127.037 13.4501C126.973 13.6292 126.943 13.923 126.943 14.325V22.4012C126.943 22.739 126.97 22.9855 127.024 23.1409C127.078 23.2963 127.169 23.3976 127.301 23.4517C127.432 23.5057 127.649 23.5327 127.946 23.5327H128.726C129.445 23.5327 130.07 23.2085 130.594 22.5633C131.117 21.9182 131.459 21.0602 131.621 19.9895H131.986C131.955 20.3509 131.938 20.817 131.938 21.3879C131.938 22.4046 131.975 23.2422 132.05 23.9009C131.33 23.8705 130.114 23.8536 128.409 23.8536C126.098 23.8536 124.372 23.8705 123.227 23.9009V23.5834C123.578 23.5631 123.835 23.5192 123.997 23.455C124.163 23.3909 124.274 23.2693 124.332 23.0902C124.389 22.9112 124.419 22.6174 124.419 22.2154V14.3317C124.419 13.9298 124.389 13.6393 124.332 13.4569C124.274 13.2779 124.163 13.1563 123.997 13.0921C123.832 13.0279 123.575 12.9874 123.227 12.9637V12.6462C123.767 12.6766 124.605 12.6935 125.74 12.6935C126.875 12.6935 127.652 12.6766 128.236 12.6462V12.9637L128.229 12.957Z" fill="#484848"/>
<path d="M142.092 14.048C143.119 14.987 143.635 16.3516 143.635 18.1418C143.635 19.297 143.382 20.3069 142.879 21.1716C142.376 22.0363 141.649 22.7051 140.7 23.1814C139.751 23.6577 138.619 23.8975 137.306 23.8975L136.319 23.8806C135.704 23.8603 135.259 23.8502 134.985 23.8502C133.894 23.8502 133.077 23.8671 132.536 23.8975V23.58C132.887 23.5597 133.144 23.5158 133.306 23.4516C133.472 23.3874 133.583 23.2658 133.641 23.0868C133.698 22.9078 133.728 22.6139 133.728 22.212V14.3283C133.728 13.9264 133.698 13.6359 133.641 13.4535C133.583 13.2745 133.472 13.1529 133.306 13.0887C133.141 13.0245 132.884 12.984 132.536 12.9603V12.6428C132.982 12.6732 133.624 12.6901 134.458 12.6901H134.951L135.586 12.6732C136.454 12.653 137.076 12.6428 137.447 12.6428C139.515 12.6428 141.062 13.1123 142.088 14.0513L142.092 14.048ZM136.694 13.038C136.529 13.1123 136.417 13.2441 136.353 13.4366C136.289 13.6257 136.258 13.9129 136.258 14.2945V22.2424C136.258 22.6241 136.289 22.9112 136.353 23.1003C136.417 23.2929 136.529 23.4246 136.694 23.4989C136.86 23.5732 137.11 23.6104 137.451 23.6104C138.734 23.6104 139.643 23.1645 140.183 22.266C140.724 21.3709 140.994 20.0165 140.994 18.206C140.994 16.3955 140.717 15.0613 140.16 14.2067C139.602 13.3522 138.694 12.9266 137.434 12.9266C137.106 12.9266 136.86 12.9637 136.694 13.038Z" fill="#484848"/>
<path d="M155.11 23.1948C154.823 23.5225 154.515 23.7589 154.188 23.9008C153.86 24.0427 153.461 24.1136 152.995 24.1136C152.38 24.1136 151.894 23.9852 151.539 23.7251C151.185 23.4651 150.955 23.0226 150.847 22.3977L150.56 20.8068C150.421 20.0333 150.256 19.4624 150.06 19.0976C149.864 18.7328 149.536 18.5504 149.084 18.5504H148.05V22.2052C148.05 22.6071 148.081 22.901 148.138 23.08C148.195 23.259 148.303 23.3806 148.462 23.4448C148.621 23.509 148.881 23.5495 149.243 23.5731V23.8907C148.672 23.8603 147.871 23.8434 146.841 23.8434C145.706 23.8434 144.868 23.8603 144.328 23.8907V23.5731C144.679 23.5529 144.936 23.509 145.098 23.4448C145.264 23.3806 145.375 23.259 145.432 23.08C145.49 22.901 145.52 22.6071 145.52 22.2052V14.3215C145.52 13.9195 145.49 13.629 145.432 13.4466C145.375 13.2676 145.264 13.146 145.098 13.0818C144.932 13.0177 144.676 12.9771 144.328 12.9535V12.636C144.868 12.6664 145.672 12.6833 146.743 12.6833L148.506 12.6664C148.719 12.6563 148.962 12.6495 149.236 12.6495C150.698 12.6495 151.796 12.8893 152.536 13.3656C153.272 13.8418 153.64 14.5275 153.64 15.4159C153.64 16.1691 153.363 16.8312 152.813 17.402C152.262 17.9728 151.35 18.3343 150.08 18.4829C151.033 18.5673 151.745 18.7734 152.212 19.1044C152.678 19.432 152.978 19.9252 153.117 20.5838L153.482 22.222C153.566 22.6476 153.664 22.9415 153.775 23.1138C153.887 23.2827 154.042 23.3671 154.245 23.3671C154.373 23.357 154.481 23.3266 154.569 23.2725C154.66 23.2185 154.762 23.1307 154.88 23.0023L155.103 23.1915L155.11 23.1948ZM148.408 13.0683C148.276 13.1426 148.182 13.2744 148.131 13.4669C148.077 13.6561 148.05 13.9432 148.05 14.3249V18.2363H148.732C149.601 18.2363 150.198 18.0066 150.519 17.5439C150.844 17.0845 151.006 16.4326 151.006 15.5949C151.006 14.7572 150.854 14.0682 150.546 13.6223C150.239 13.1764 149.736 12.9535 149.036 12.9535C148.749 12.9535 148.54 12.9907 148.408 13.065V13.0683Z" fill="#484848"/>
<path d="M159.845 12.9569C159.484 12.9772 159.224 13.0211 159.065 13.0853C158.906 13.1494 158.798 13.271 158.741 13.4501C158.683 13.6291 158.653 13.923 158.653 14.3249V22.2086C158.653 22.6105 158.683 22.9044 158.741 23.0834C158.798 23.2624 158.906 23.384 159.065 23.4482C159.224 23.5124 159.484 23.5529 159.845 23.5766V23.8941C159.274 23.8637 158.474 23.8468 157.444 23.8468C156.309 23.8468 155.471 23.8637 154.931 23.8941V23.5766C155.282 23.5563 155.539 23.5124 155.701 23.4482C155.866 23.384 155.978 23.2624 156.035 23.0834C156.093 22.9044 156.123 22.6105 156.123 22.2086V14.3249C156.123 13.923 156.093 13.6325 156.035 13.4501C155.978 13.271 155.866 13.1494 155.701 13.0853C155.535 13.0211 155.279 12.9806 154.931 12.9569V12.6394C155.471 12.6698 156.309 12.6867 157.444 12.6867C158.471 12.6867 159.271 12.6698 159.845 12.6394V12.9569Z" fill="#484848"/>
<path d="M167.945 12.6868C168.394 12.8658 168.837 13.1225 169.273 13.4502C169.401 13.5448 169.506 13.592 169.59 13.592C169.695 13.592 169.779 13.5144 169.843 13.3624C169.908 13.2104 169.955 12.9672 169.985 12.6395H170.35C170.306 13.359 170.286 14.6425 170.286 16.4868H169.921C169.837 15.7673 169.712 15.183 169.546 14.7371C169.381 14.2912 169.11 13.9163 168.729 13.6089C168.475 13.3657 168.161 13.1732 167.79 13.0381C167.418 12.8996 167.037 12.832 166.645 12.832C165.902 12.832 165.287 13.0854 164.794 13.5887C164.301 14.0919 163.939 14.7574 163.706 15.5849C163.473 16.4125 163.355 17.3177 163.355 18.304C163.355 21.9722 164.372 23.803 166.408 23.803C166.874 23.803 167.249 23.6983 167.536 23.4855C167.675 23.3909 167.773 23.2794 167.83 23.1511C167.888 23.0227 167.918 22.8606 167.918 22.6579V21.1008C167.918 20.6043 167.874 20.2395 167.79 20.0131C167.705 19.7868 167.553 19.6281 167.337 19.5436C167.121 19.4592 166.776 19.4052 166.31 19.3849V19.0674C166.966 19.0978 167.874 19.1147 169.029 19.1147C169.972 19.1147 170.681 19.0978 171.161 19.0674V19.3849C170.948 19.4052 170.796 19.4491 170.701 19.5132C170.607 19.5774 170.539 19.699 170.502 19.878C170.465 20.0571 170.448 20.3509 170.448 20.7529V23.9009H170.131C170.12 23.678 170.077 23.472 169.995 23.2794C169.914 23.0903 169.806 22.9923 169.671 22.9923C169.492 22.9923 169.205 23.1038 168.813 23.3267C167.891 23.857 167.023 24.1205 166.206 24.1205C164.372 24.1205 162.966 23.6206 161.994 22.6174C161.017 21.6176 160.531 20.2091 160.531 18.3986C160.531 17.213 160.778 16.1693 161.271 15.2674C161.764 14.3655 162.443 13.6664 163.314 13.1698C164.182 12.6733 165.175 12.4233 166.287 12.4233C166.942 12.4233 167.496 12.5145 167.949 12.6936L167.945 12.6868Z" fill="#484848"/>
<path d="M181.797 12.9569C181.446 13.0109 181.189 13.0987 181.027 13.2271C180.862 13.3554 180.75 13.5547 180.693 13.8317C180.635 14.1087 180.605 14.514 180.605 15.0545V19.2665C180.605 20.7831 180.389 21.9045 179.953 22.6375C179.666 23.1036 179.254 23.4684 178.713 23.7251C178.173 23.9819 177.511 24.1136 176.727 24.1136C175.498 24.1136 174.545 23.8501 173.866 23.3198C173.38 22.928 173.049 22.4315 172.88 21.8336C172.711 21.2357 172.627 20.3947 172.627 19.3138V14.3215C172.627 13.9195 172.596 13.629 172.539 13.4466C172.481 13.2676 172.37 13.146 172.204 13.0818C172.039 13.0177 171.782 12.9771 171.434 12.9535V12.636C171.975 12.6664 172.802 12.6833 173.914 12.6833C175.025 12.6833 175.859 12.6664 176.44 12.636V12.9535C176.058 12.9738 175.781 13.0177 175.606 13.0818C175.43 13.146 175.312 13.2676 175.248 13.4466C175.184 13.6257 175.153 13.9195 175.153 14.3215V20.3136C175.153 21.4249 175.315 22.2457 175.64 22.7692C175.964 23.2928 176.531 23.5563 177.349 23.5563C178.409 23.5563 179.156 23.1982 179.592 22.4821C180.027 21.766 180.243 20.7527 180.243 19.4388V15.2436C180.243 14.6289 180.206 14.1729 180.132 13.8756C180.058 13.5784 179.916 13.3656 179.703 13.2305C179.49 13.0987 179.156 13.0042 178.703 12.9535V12.636C179.105 12.6664 179.679 12.6833 180.419 12.6833C181.014 12.6833 181.473 12.6664 181.801 12.636V12.9535L181.797 12.9569Z" fill="#484848"/>
<path d="M191.049 23.8941C190.33 23.8637 189.114 23.8468 187.408 23.8468C185.097 23.8468 183.371 23.8637 182.226 23.8941V23.5766C182.578 23.5563 182.834 23.5124 182.996 23.4482C183.162 23.384 183.273 23.2624 183.331 23.0834C183.388 22.9044 183.419 22.6105 183.419 22.2086V14.3249C183.419 13.923 183.388 13.6325 183.331 13.4501C183.273 13.271 183.162 13.1494 182.996 13.0853C182.831 13.0211 182.574 12.9806 182.226 12.9569V12.6394C183.371 12.6698 185.097 12.6867 187.408 12.6867C188.965 12.6867 190.073 12.6698 190.731 12.6394C190.657 13.5176 190.62 14.3046 190.62 14.9903C190.62 15.4564 190.637 15.8179 190.667 16.0712H190.303C190.144 14.9363 189.857 14.1425 189.445 13.6865C189.032 13.2305 188.448 13.0042 187.695 13.0042H187.043C186.715 13.0042 186.476 13.0312 186.327 13.0853C186.178 13.1393 186.077 13.2406 186.026 13.396C185.972 13.548 185.945 13.7946 185.945 14.1357V18.0776H186.455C187.016 18.0776 187.445 17.8715 187.735 17.4561C188.026 17.044 188.232 16.5508 188.347 15.9766H188.712C188.681 16.4225 188.664 16.919 188.664 17.4696V18.233C188.664 18.7734 188.695 19.5266 188.759 20.4893H188.394C188.171 19.0909 187.526 18.3917 186.455 18.3917H185.945V22.3977C185.945 22.7355 185.972 22.9821 186.026 23.1375C186.08 23.2928 186.178 23.3942 186.327 23.4482C186.476 23.5023 186.715 23.5293 187.043 23.5293H187.823C188.576 23.5293 189.181 23.2726 189.644 22.7591C190.103 22.2457 190.431 21.3743 190.62 20.1448H190.985C190.954 20.4961 190.938 20.9385 190.938 21.479C190.938 22.4551 190.975 23.2591 191.049 23.8941Z" fill="#484848"/>
<path d="M197.203 12.5922C197.531 12.6969 197.865 12.8523 198.206 13.0516C198.321 13.1158 198.426 13.1698 198.517 13.2104C198.608 13.2543 198.683 13.2745 198.747 13.2745C198.841 13.2745 198.916 13.2205 198.97 13.109C199.024 12.9976 199.064 12.8219 199.098 12.5753H199.463C199.409 13.2847 199.382 14.4939 199.382 16.1997H199.017C198.973 15.6288 198.845 15.0816 198.629 14.5615C198.412 14.0413 198.105 13.6224 197.707 13.2982C197.308 12.9739 196.845 12.8118 196.315 12.8118C195.785 12.8118 195.376 12.957 195.052 13.2475C194.727 13.538 194.565 13.9332 194.565 14.4331C194.565 14.8047 194.646 15.1289 194.805 15.4025C194.964 15.6795 195.187 15.9294 195.474 16.1591C195.761 16.3888 196.2 16.6962 196.795 17.088L197.305 17.4393C197.929 17.8514 198.423 18.2128 198.784 18.5202C199.145 18.8276 199.439 19.1856 199.666 19.5943C199.892 20.003 200.007 20.4759 200.007 21.0163C200.007 21.6953 199.831 22.2661 199.483 22.7255C199.135 23.1882 198.659 23.5328 198.061 23.7658C197.463 23.9989 196.798 24.1137 196.065 24.1137C195.47 24.1137 194.977 24.0597 194.585 23.955C194.194 23.8503 193.832 23.705 193.505 23.526C193.272 23.3774 193.093 23.3031 192.964 23.3031C192.87 23.3031 192.795 23.3605 192.741 23.4686C192.687 23.5801 192.647 23.7591 192.613 24.0023H192.248C192.289 23.3335 192.312 21.9047 192.312 19.7091H192.677C192.751 20.8947 193.015 21.8574 193.471 22.5937C193.927 23.3301 194.626 23.6983 195.568 23.6983C196.139 23.6983 196.612 23.5463 196.984 23.2355C197.355 22.9281 197.541 22.489 197.541 21.9148C197.541 21.3406 197.352 20.8137 196.97 20.3881C196.588 19.9659 195.984 19.4862 195.156 18.9559C194.521 18.5438 194.011 18.1824 193.63 17.875C193.248 17.5677 192.934 17.2062 192.691 16.7874C192.447 16.3686 192.326 15.8855 192.326 15.3316C192.326 14.6966 192.488 14.1595 192.812 13.717C193.136 13.2779 193.569 12.9503 194.109 12.7408C194.65 12.5281 195.244 12.4233 195.889 12.4233C196.44 12.4233 196.879 12.4774 197.21 12.5821L197.203 12.5922Z" fill="#484848"/>
</g>
<defs>
<linearGradient id="paint0_linear_60_410" x1="16.9292" y1="8.06272" x2="80.6335" y2="8.06272" gradientUnits="userSpaceOnUse">
<stop offset="0.2" stop-color="#E1A507"/>
<stop offset="0.23" stop-color="#E2A916"/>
<stop offset="0.35" stop-color="#E9BB57"/>
<stop offset="0.43" stop-color="#EDC780"/>
<stop offset="0.48" stop-color="#EFCC90"/>
<stop offset="0.49" stop-color="#EECA89"/>
<stop offset="0.6" stop-color="#E8BA51"/>
<stop offset="0.69" stop-color="#E4AE29"/>
<stop offset="0.77" stop-color="#E1A710"/>
<stop offset="0.81" stop-color="#E1A507"/>
<stop offset="0.85" stop-color="#DCA107"/>
<stop offset="0.9" stop-color="#CE9709"/>
<stop offset="0.94" stop-color="#B8860D"/>
<stop offset="0.99" stop-color="#986E12"/>
<stop offset="1" stop-color="#916914"/>
</linearGradient>
<linearGradient id="paint1_linear_60_410" x1="24.384" y1="8.06276" x2="87.6898" y2="8.06276" gradientUnits="userSpaceOnUse">
<stop offset="0.2" stop-color="#E1A507"/>
<stop offset="0.23" stop-color="#E2A916"/>
<stop offset="0.35" stop-color="#E9BB57"/>
<stop offset="0.43" stop-color="#EDC780"/>
<stop offset="0.48" stop-color="#EFCC90"/>
<stop offset="0.49" stop-color="#EECA89"/>
<stop offset="0.6" stop-color="#E8BA51"/>
<stop offset="0.69" stop-color="#E4AE29"/>
<stop offset="0.77" stop-color="#E1A710"/>
<stop offset="0.81" stop-color="#E1A507"/>
<stop offset="0.85" stop-color="#DCA107"/>
<stop offset="0.9" stop-color="#CE9709"/>
<stop offset="0.94" stop-color="#B8860D"/>
<stop offset="0.99" stop-color="#986E12"/>
<stop offset="1" stop-color="#916914"/>
</linearGradient>
<linearGradient id="paint2_linear_60_410" x1="22.1612" y1="4.83013" x2="53.9121" y2="4.83013" gradientUnits="userSpaceOnUse">
<stop offset="0.2" stop-color="#E1A507"/>
<stop offset="0.23" stop-color="#E2A916"/>
<stop offset="0.35" stop-color="#E9BB57"/>
<stop offset="0.43" stop-color="#EDC780"/>
<stop offset="0.48" stop-color="#EFCC90"/>
<stop offset="0.49" stop-color="#EECA89"/>
<stop offset="0.6" stop-color="#E8BA51"/>
<stop offset="0.69" stop-color="#E4AE29"/>
<stop offset="0.77" stop-color="#E1A710"/>
<stop offset="0.81" stop-color="#E1A507"/>
<stop offset="0.85" stop-color="#DCA107"/>
<stop offset="0.9" stop-color="#CE9709"/>
<stop offset="0.94" stop-color="#B8860D"/>
<stop offset="0.99" stop-color="#986E12"/>
<stop offset="1" stop-color="#916914"/>
</linearGradient>
<clipPath id="clip0_60_410">
<rect width="200" height="44.1472" fill="white"/>
</clipPath>
</defs>
</svg>
